<mxfile host="app.diagrams.net" agent="Mozilla/5.0 (X11; Ubuntu; Linux x86_64; rv:137.0) Gecko/20100101 Firefox/137.0" version="26.2.12">
  <diagram name="Page-1" id="juYB1_PdI0FXm4bvgZiO">
    <mxGraphModel dx="3176" dy="1530" grid="1" gridSize="10" guides="1" tooltips="1" connect="1" arrows="1" fold="1" page="0" pageScale="1" pageWidth="850" pageHeight="1100" math="0" shadow="0">
      <root>
        <mxCell id="0" />
        <mxCell id="1" parent="0" />
        <mxCell id="Z4amRD8m1zhhW-L_DsDk-35" value="" style="group;aspect=fixed;" vertex="1" connectable="0" parent="1">
          <mxGeometry x="-10" y="123" width="1920" height="1080" as="geometry" />
        </mxCell>
        <mxCell id="Z4amRD8m1zhhW-L_DsDk-27" value="" style="rounded=0;whiteSpace=wrap;html=1;fillColor=#232428;strokeColor=none;" vertex="1" parent="Z4amRD8m1zhhW-L_DsDk-35">
          <mxGeometry width="1920" height="1080" as="geometry" />
        </mxCell>
        <mxCell id="Z4amRD8m1zhhW-L_DsDk-15" value="" style="shape=image;verticalLabelPosition=bottom;labelBackgroundColor=default;verticalAlign=top;aspect=fixed;imageAspect=0;editableCssRules=.*;image=data:image/svg+xml,PHN2ZyB4bWxucz0iaHR0cDovL3d3dy53My5vcmcvMjAwMC9zdmciIGZpbGw9Im5vbmUiIHZpZXdCb3g9Ii0xLjM0MTEwNDUwNzQ0NjI4OWUtNyAwIDUwLjE2Nzk0MjA0NzExOTE0IDI5Ljk3ODU5OTU0ODMzOTg0NCIgaGVpZ2h0PSIyOS45Nzg1OTk1NDgzMzk4NDQiIHdpZHRoPSI1MC4xNjc5NDIwNDcxMTkxNCI+JiN4YTs8cGF0aCBmaWxsPSJ3aGl0ZSIgZD0iTTE0LjEzNTIgMTAuODkwM0MxNC4xMzUyIDExLjUxNDIgMTQuMTk4NiAxMi4wMDk3IDE0LjMyNTQgMTIuMzc4NEMxNC40NTIyIDEyLjc0ODcgMTQuNjMyNCAxMy4xNDc0IDE0Ljg2NTkgMTMuNTc2MkMxNC45NDI3IDEzLjcxMyAxNC45ODI3IDEzLjgzODEgMTQuOTgyNyAxMy45NTQ4QzE0Ljk4MjcgMTQuMTMgMTQuODc1OSAxNC4yOTUyIDE0LjY2MDcgMTQuNDUyTDEzLjYwOTcgMTUuMTUyNkMxMy40NTQ2IDE1LjI0OTQgMTMuMzA3OCAxNS4yOTk0IDEzLjE3MjcgMTUuMjk5NEMxMi45OTc1IDE1LjI5OTQgMTIuODMyMyAxNS4yMjI3IDEyLjY3NzIgMTUuMDY1OUMxMi40NDM2IDE0LjgzMjMgMTIuMjQzNSAxNC41NzM4IDEyLjA3ODMgMTQuMjkxOEMxMS45MTMxIDE0LjAwOTkgMTEuNzQzIDEzLjY4NDYgMTEuNTY3OCAxMy4zMTQyQzEwLjI2MzMgMTQuODUyNCA4LjYyODM4IDE1LjYyMTQgNi42NjMxOSAxNS42MjE0QzUuMjYxODYgMTUuNjIxNCA0LjE1MjQ4IDE1LjIyMjcgMy4zMzUwNCAxNC40MjM2QzIuNTE3NjEgMTMuNjI2MiAyLjEwODg5IDEyLjU1NTIgMi4xMDg4OSAxMS4yMTIzQzIuMTA4ODkgOS43OTI1OCAyLjYxNDM2IDguNjQ4MTcgMy42MjY5OSA3Ljc4MjM1QzQuNjM3OTQgNi45MTY1MyA2LjAwMDkgNi40ODI3OSA3LjcxNDE4IDYuNDgyNzlDOC4yNzgwNSA2LjQ4Mjc5IDguODY2OTQgNi41MjYxNiA5LjQ4MDg1IDYuNjE0NThDMTAuMDk0OCA2LjcwMyAxMC43MzIgNi44MjQ3OCAxMS4zOTI3IDYuOTc5OTNWNS43NTM3N0MxMS4zOTI3IDQuNDg5MjQgMTEuMTI5MSAzLjU5ODQgMTAuNjA1MiAzLjA4MjkxQzEwLjA3OTcgMi41Njc0MiA5LjE3Mzg5IDIuMzA4ODUgNy44ODkzNSAyLjMwODg1QzcuMzA1NDYgMi4zMDg4NSA2LjcwNjU2IDIuMzgyMjUgNi4wOTQzMiAyLjUyNzM5QzUuNDgyMDcgMi42NzQxOSA0Ljg4MzE3IDIuODYyNyA0LjI5OTI5IDMuMDk2MjZDNC4wMjczNyAzLjIxMzAzIDMuODMyMTggMy4yODY0NCAzLjcxNTQgMy4zMTQ4QzMuNTk4NjMgMy4zNDMxNiAzLjUxMTg4IDMuMzU4MTcgMy40NTM0OSAzLjM1ODE3QzMuMjE5OTQgMy4zNTgxNyAzLjEwMzE2IDMuMTgzMDEgMy4xMDMxNiAyLjgzMjY4VjIuMDE1MjRDMy4xMDMxNiAxLjc0MzMxIDMuMTQxNTMgMS41NDgxMyAzLjIxOTk0IDEuNDMxMzVDMy4yOTY2OCAxLjMxNDU3IDMuNDUzNDkgMS4xOTc4IDMuNjg3MDQgMS4wODEwMkM0LjI3MDkzIDAuNzg5MDc5IDQuOTcxNTkgMC41MzcxNzQgNS43ODkwMyAwLjMyMTk3MUM2LjYwNjQ3IDAuMTA4NDM2IDcuNDcyMjkgMCA4LjM4NjQ4IDBDMTAuMzcxNyAwIDExLjgyNjQgMC40NTIwOTQgMTIuNzUwNiAxLjM1Nzk1QzEzLjY3NDggMi4yNjIxNCAxNC4xMzY5IDMuNjMwMSAxNC4xMzY5IDUuNDYwMTZWMTAuODkwM0gxNC4xMzUyWk03LjM2MjE4IDEzLjQzMUM3LjkwNzcgMTMuNDMxIDguNDgxNTcgMTMuMzI5MyA5LjA4NTQ4IDEzLjEyNDFDOS42ODkzOCAxMi45MjA1IDEwLjIxMzIgMTIuNTY1MiAxMC42NjIgMTIuMDU4MUMxMC45MzM5IDExLjc0NzggMTEuMTI0MSAxMS4zOTA4IDExLjIzMDggMTAuOTkyQzExLjMzNzYgMTAuNTkzMyAxMS4zOTEgMTAuMTExMiAxMS4zOTEgOS41NDczNVY4Ljg0NjY5QzEwLjkwMzkgOC43Mjk5MSAxMC4zOTM0IDguNjM4MTYgOS44NTc4NyA4LjU2OTc2QzkuMzIyMzcgOC41MDEzNiA4LjgwMTg4IDguNDY4IDguMjk2NCA4LjQ2OEM3LjE4NzAyIDguNDY4IDYuMzU5NTcgOC42OTE1NCA1LjgxNDA1IDkuMTM4NjNDNS4yNjg1NCA5LjU4NzM5IDQuOTk2NjEgMTAuMjI5NyA0Ljk5NjYxIDExLjA2NTVDNC45OTY2MSAxMS44NDQ1IDUuMjAxODEgMTIuNDMzNCA1LjYwODg2IDEyLjgzMjFDNi4wMTc1OCAxMy4yMzA4IDYuNjAxNDYgMTMuNDMxIDcuMzYwNTEgMTMuNDMxSDcuMzYyMThaTTIwLjc2MzIgMTUuMjQxMUMyMC40NzEyIDE1LjI0MTEgMjAuMjU2IDE1LjE4NzcgMjAuMTIwOSAxNS4wODA5QzE5Ljk4NDEgMTQuOTc0MSAxOS44NjczIDE0Ljc1NTYgMTkuNzcwNiAxNC40MjM2TDE1Ljg1ODUgMS41MTk3N0MxNS43NjAxIDEuMTg5NDYgMTUuNzEzNCAwLjk2NDI0NCAxNS43MTM0IDAuODQ5MTM1QzE1LjcxMzQgMC41NzcyMTIgMTUuODQ4NSAwLjQ0MDQxNiAxNi4xMjIxIDAuNDQwNDE2SDE3Ljc1N0MxOC4wNjczIDAuNDQwNDE2IDE4LjI4NzUgMC40OTM4IDE4LjQxNDMgMC42MDA1NjdDMTguNTQxMSAwLjcwNzMzNSAxOC42NTI4IDAuOTI3NTQzIDE4Ljc0OTYgMS4yNTc4NUwyMS41NTIyIDEyLjI5MzNMMjQuMTQ5NyAxLjI1Nzg1QzI0LjIyNjQgMC45Mjc1NDMgMjQuMzM0OSAwLjcwOTAwMyAyNC40NzE3IDAuNjAwNTY3QzI0LjYwNjggMC40OTM4IDI0LjgzMiAwLjQ0MDQxNiAyNS4xNDIzIDAuNDQwNDE2SDI2LjQ4NTJDMjYuNzk3MiAwLjQ0MDQxNiAyNy4wMjA3IDAuNDkzOCAyNy4xNTc1IDAuNjAwNTY3QzI3LjI5MjcgMC43MDczMzUgMjcuNDAxMSAwLjkyNzU0MyAyNy40Nzc4IDEuMjU3ODVMMzAuMTA1MyAxMi40NDAxTDMyLjk5NDcgMS4yNTYxOUMzMy4wOTE1IDAuOTI1ODc0IDMzLjIwMzMgMC43MDczMzUgMzMuMzMgMC41OTg4OTlDMzMuNDU2OCAwLjQ5MjEzMSAzMy42NzU0IDAuNDM4NzQ4IDMzLjk4NzMgMC40Mzg3NDhIMzUuNTMzOEMzNS44MDU3IDAuNDM4NzQ4IDM1Ljk0MjUgMC41NzU1NDQgMzUuOTQyNSAwLjg0NzQ2N0MzNS45NDI1IDAuOTI1ODc1IDM1LjkzMjUgMS4wMTI2MiAzNS45MTQxIDEuMTA5MzhDMzUuODk0MSAxLjIwNzgxIDM1Ljg1NTggMS4zNDI5NCAzNS43OTc0IDEuNTE4MUwzMS43Njg2IDE0LjQyMkMzMS42NzAxIDE0Ljc1MzkgMzEuNTUzNCAxNC45NzI1IDMxLjQxODIgMTUuMDc5MkMzMS4yODE0IDE1LjE4NiAzMS4wNjc5IDE1LjIzOTQgMzAuNzc2IDE1LjIzOTRIMjkuMzQ0NkMyOS4wMzI2IDE1LjIzOTQgMjguODA5MSAxNS4xODEgMjguNjcyMyAxNS4wNjQyQzI4LjUzNTUgMTQuOTQ3NSAyOC40Mjg3IDE0LjcyMzkgMjguMzUyIDE0LjM5MTlMMjUuNzUyOSAzLjY0ODQ1TDIzLjE4MzggMTQuMzkxOUMyMy4xMDU0IDE0LjcyMzkgMjIuOTk4NiAxNC45NDc1IDIyLjg2MzUgMTUuMDY0MkMyMi43MjY3IDE1LjE4MSAyMi41MDMxIDE1LjIzOTQgMjIuMTkxMiAxNS4yMzk0SDIwLjc1OThMMjAuNzYzMiAxNS4yNDExWk00Mi4xOTE3IDE1LjY3OThDNDEuMzE1OSAxNS42Nzk4IDQwLjQ2MDEgMTUuNTgzMSAzOS42MjI3IDE1LjM4NzlDMzguNzg1MiAxNS4xOTQ0IDM4LjE0MjkgMTQuOTY5MSAzNy42OTU4IDE0LjcxNTZDMzcuNDIzOSAxNC41NjA0IDM3LjI1MjEgMTQuNDA1MyAzNy4xODUzIDE0LjI0ODVDMzcuMTE3IDE0LjA5MzMgMzcuMDgzNiAxMy45MzgyIDM3LjA4MzYgMTMuNzgxM1YxMi45MzM5QzM3LjA4MzYgMTIuNTgzNiAzNy4yMTA0IDEyLjQwODQgMzcuNDYzOSAxMi40MDg0QzM3LjU2MDcgMTIuNDA4NCAzNy42NjI1IDEyLjQyODQgMzcuNzcwOSAxMi40NjY4QzM3Ljg3NzcgMTIuNTA2OCAzOC4wMTk1IDEyLjU2NTIgMzguMTk0NiAxMi42NDE5QzM4Ljc1ODUgMTIuODk1NSAzOS4zNzI0IDEzLjA5MDcgNDAuMDMzIDEzLjIyNThDNDAuNjkzNyAxMy4zNjI2IDQxLjM1NiAxMy40MzEgNDIuMDE4MiAxMy40MzFDNDMuMDY5MiAxMy40MzEgNDMuODgxNyAxMy4yNDU4IDQ0LjQ1NTUgMTIuODc1NUM0NS4wMjk0IDEyLjUwNjggNDUuMzE2NCAxMS45Nzk2IDQ1LjMxNjQgMTEuMjk5QzQ1LjMxNjQgMTAuODMxOSA0NS4xNjYyIDEwLjQ0MzIgNDQuODY0MyAxMC4xMzEyQzQ0LjU2MjMgOS44MTkyNyA0NC4wMDM1IDkuNTI3MzMgNDMuMTg2IDkuMjU1NDFMNDAuNzYyMSA4LjQ5NjM2QzM5LjUzNTkgOC4xMDc2NiAzOC42NDUxIDcuNTQzNzkgMzguMDkxMiA2LjgwMzA5QzM3LjUzNzMgNi4wNjQwNiAzNy4yNTg4IDUuMjU2NjMgMzcuMjU4OCA0LjM4MDhDMzcuMjU4OCAzLjY4MDE0IDM3LjQwODkgMy4wNjI4OSAzNy43MTA4IDIuNTI3MzlDMzguMDEyOCAxLjk5MTg4IDM4LjQxMTUgMS41MzQ3OCAzOC45MDcgMS4xNTQ0MkMzOS40MDI0IDAuNzc1NzMzIDM5Ljk4MyAwLjQ4NzEyNyA0MC42NDM2IDAuMjkzNjExQzQxLjMwNDIgMC4xMDAwOTUgNDIuMDA0OSAwLjAwMTY2ODI0IDQyLjc0NTYgMC4wMDE2NjgyNEM0My4xMTQzIDAuMDAxNjY4MjQgNDMuNDg5NiAwLjAyNjY5MTkgNDMuODcgMC4wNzUwNzA5QzQ0LjI1MDQgMC4xMjM0NSA0NC42MDkgMC4xODY4NDMgNDQuOTQ5MyAwLjI2NTI1MUM0NS4yODk3IDAuMzQzNjU4IDQ1LjYwNjYgMC40MzA0MDcgNDUuODk4NiAwLjUyNzE2NUM0Ni4xOTA1IDAuNjI1NTkxIDQ2LjQyNDEgMC43MjIzNDkgNDYuNTk5MiAwLjgxOTEwN0M0Ni44MzI4IDAuOTU1OTAzIDQ2Ljk5NzkgMS4wOTI3IDQ3LjA5NjQgMS4yMjc4M0M0Ny4xOTMxIDEuMzY0NjIgNDcuMjQxNSAxLjU0ODEzIDQ3LjI0MTUgMS43ODMzNVYyLjU3MDc2QzQ3LjI0MTUgMi45MjEwOSA0Ny4xMTQ3IDMuMDk2MjYgNDYuODYxMiAzLjA5NjI2QzQ2LjcyNDQgMy4wOTYyNiA0Ni41MTA4IDMuMDI3ODYgNDYuMjE4OSAyLjg5MTA2QzQ1LjI2NDYgMi40NjM5OSA0NC4xOTM2IDIuMjQ4NzkgNDMuMDA3NSAyLjI0ODc5QzQyLjA1MzMgMi4yNDg3OSA0MS4zMTQyIDIuNDA1NjEgNDAuNzg4NyAyLjcxNTlDNDAuMjYzMyAzLjAyNzg2IDQwLjAwMTMgMy41MjMzMyA0MC4wMDEzIDQuMjA1NjRDNDAuMDAxMyA0LjY3Mjc1IDQwLjE2NjUgNS4wNjY0NSA0MC40OTY4IDUuMzg4NDJDNDAuODI3MSA1LjcwODcyIDQxLjQ0MSA2LjAxNTY4IDQyLjMzNjkgNi4zMDc2Mkw0NC43MDA4IDcuMDY2NjdDNDUuOTA2OSA3LjQ1NzA0IDQ2Ljc2OTQgNy45OTA4OCA0Ny4yODQ5IDguNjczMTlDNDcuODAwNCA5LjM1MzgzIDQ4LjA1ODkgMTAuMTMyOSA0OC4wNTg5IDExLjAwODdDNDguMDU4OSAxMS43Mjk0IDQ3LjkxMzggMTIuMzc2NyA0Ny42MjE5IDEyLjk1MDZDNDcuMzI5OSAxMy41MjQ0IDQ2LjkyNjIgMTQuMDE2NiA0Ni40MTA3IDE0LjQyNTNDNDUuODk1MiAxNC44MzQgNDUuMjc2MyAxNS4xNDYgNDQuNTU3MyAxNS4zNTk1QzQzLjgzNjYgMTUuNTczIDQzLjA0OTIgMTUuNjc5OCA0Mi4xOTM0IDE1LjY3OThINDIuMTkxN1oiLz4mI3hhOzxwYXRoIGZpbGw9IiNGRjk5MDAiIGQ9Ik0yNS42MTExIDI2LjM2MTlDMzEuNjk4NSAyNi4zNjE5IDM4LjM5MTUgMjUuMDk5IDQ0LjU0OSAyMi40ODY2QzQ1LjQ3ODIgMjIuMDkyOSA0Ni4yNTczIDIzLjA5NzEgNDUuMzQ4MSAyMy43Njk0QzM5Ljg1NjMgMjcuODIzMyAzMS44OTIxIDI5Ljk3ODYgMjUuMDM1NiAyOS45Nzg2QzE1LjQyNDggMjkuOTc4NiA2Ljc3MTY3IDI2LjQyNyAwLjIyMjE1MiAyMC41MTNDLTAuMjkxNjY3IDIwLjA0OTMgMC4xNjU0MzIgMTkuNDEzNyAwLjc4NDM1IDE5Ljc3NEM3Ljg0OTM1IDIzLjg4NjIgMTYuNTg1OSAyNi4zNjE5IDI1LjYxMTEgMjYuMzYxOVoiLz4mI3hhOzxwYXRoIGZpbGw9IiNGRjk5MDAiIGQ9Ik00Ni44NzEyIDI3Ljc0NjVDNDYuNDE3NCAyOC4xMjUyIDQ1Ljk4NyAyNy45MjM0IDQ2LjE4NzIgMjcuNDIyOVYyNy40MjEyQzQ2Ljg1MTIgMjUuNzY2MyA0OC4zMzU5IDIyLjA1OTUgNDcuNjMxOSAyMS4xNTg2QzQ2LjkzMTQgMjAuMjYxOCA0My4wMDk2IDIwLjczMDggNDEuMjMxNCAyMC45NDM1TDQxLjIxNzUgMjAuOTQ1MUM0MC42ODA0IDIxLjAwODUgNDAuNTk2OSAyMC41Mzk3IDQxLjA4MDcgMjAuMjAxMUM0NC4yMjU0IDE3Ljk5NCA0OS4zNzY5IDE4LjYzMTMgNDkuOTc1OCAxOS4zNzAzQzUwLjU3OTcgMjAuMTE2IDQ5LjgxNzMgMjUuMjgwOSA0Ni44NzEyIDI3Ljc0NjVaIi8+JiN4YTs8L3N2Zz4=;" vertex="1" parent="Z4amRD8m1zhhW-L_DsDk-35">
          <mxGeometry x="659.9799108039697" y="360" width="599.9887500502231" height="359.9983928643176" as="geometry" />
        </mxCell>
        <mxCell id="Z4amRD8m1zhhW-L_DsDk-1" value="" style="shape=image;verticalLabelPosition=bottom;labelBackgroundColor=default;verticalAlign=top;aspect=fixed;imageAspect=0;editableCssRules=.*;image=data:image/svg+xml,PHN2ZyB4bWxuczp4bGluaz0iaHR0cDovL3d3dy53My5vcmcvMTk5OS94bGluayIgeG1sbnM9Imh0dHA6Ly93d3cudzMub3JnLzIwMDAvc3ZnIiB2ZXJzaW9uPSIxLjEiIHZpZXdCb3g9Ii0wLjUgLTAuNSAyNSAyNSIgaGVpZ2h0PSIyNSIgd2lkdGg9IjI1Ij4mI3hhOyAgICAmI3hhOyAgICA8dGl0bGU+SWNvbi1BcmNoaXRlY3R1cmUvMTYvRGV2T3BzX0d1cnVfMTY8L3RpdGxlPiYjeGE7ICAgIDxkZXNjPkNyZWF0ZWQgd2l0aCBTa2V0Y2guPC9kZXNjPiYjeGE7ICAgIDxkZWZzPiYjeGE7ICAgICAgICA8bGluZWFyR3JhZGllbnQgaWQ9ImxpbmVhckdyYWRpZW50LTEiIHkyPSIwJSIgeDI9IjEwMCUiIHkxPSIxMDAlIiB4MT0iMCUiPiYjeGE7ICAgICAgICAgICAgPHN0b3Agb2Zmc2V0PSIwJSIgc3RvcC1jb2xvcj0iIzA1NUY0RSIvPiYjeGE7ICAgICAgICAgICAgPHN0b3Agb2Zmc2V0PSIxMDAlIiBzdG9wLWNvbG9yPSIjNTZDMEE3Ii8+JiN4YTsgICAgICAgIDwvbGluZWFyR3JhZGllbnQ+JiN4YTsgICAgPC9kZWZzPiYjeGE7ICAgIDxnIGZpbGwtcnVsZT0iZXZlbm9kZCIgZmlsbD0ibm9uZSIgc3Ryb2tlLXdpZHRoPSIxIiBzdHJva2U9Im5vbmUiIGlkPSJJY29uLUFyY2hpdGVjdHVyZS8xNi9EZXZPcHNfR3VydV8xNiI+JiN4YTsgICAgICAgIDxnIGZpbGw9InVybCgjbGluZWFyR3JhZGllbnQtMSkiIGlkPSJJY29uLUFyY2hpdGVjdHVyZS1CRy8xNi9NYWNoaW5lLUxlYXJuaW5nIj4mI3hhOyAgICAgICAgICAgIDxyZWN0IGhlaWdodD0iMjQiIHdpZHRoPSIyNCIgeT0iMCIgeD0iMCIgaWQ9IlJlY3RhbmdsZSIvPiYjeGE7ICAgICAgICA8L2c+JiN4YTsgICAgICAgIDxnIGZpbGwtcnVsZT0ibm9uemVybyIgZmlsbD0iI0ZGRkZGRiIgdHJhbnNmb3JtPSJ0cmFuc2xhdGUoNC4wMDAwMDAsIDQuMDAwMDAwKSIgaWQ9IkFtYXpvbi1EZXZPcHMtR3VydV8xNl9XaGl0ZSI+JiN4YTsgICAgICAgICAgICA8cGF0aCBpZD0iRmlsbC03IiBkPSJNNy4wNzksMTQuMjg3IEM3LjA5MywxNC4wNDMgNi45MjksMTMuODI1IDYuNjksMTMuNzcxIEM2LjAzNiwxMy42MjIgNS40MTUsMTMuMzY1IDQuODQ3LDEzLjAwNSBDNC42MzksMTIuODc1IDQuMzY5LDEyLjkxMyA0LjIwNiwxMy4wOTYgTDMuNzMsMTMuNjI5IEwyLjM3LDEyLjI3IEwyLjkwNCwxMS43OTQgQzMuMDg3LDExLjYzMSAzLjEyNSwxMS4zNjEgMi45OTQsMTEuMTU0IEMyLjYzNiwxMC41ODYgMi4zNzksOS45NjUgMi4yMyw5LjMwOSBDMi4xNzcsOS4wNyAxLjk2LDguOTE1IDEuNzE1LDguOTIgTDEsOC45NjEgTDEsNy4wMzggTDEuNzE4LDcuMDc5IEMxLjk2LDcuMDk5IDIuMTgsNi45MyAyLjIzMyw2LjY5MSBDMi4zODIsNi4wMzcgMi42NCw1LjQxNyAyLjk5OCw0Ljg0OSBDMy4xMjksNC42NDMgMy4wOTEsNC4zNzIgMi45MDgsNC4yMDkgTDIuMzcsMy43MyBMMy43MywyLjM3IEw0LjIwOSwyLjkwNyBDNC4zNzEsMy4wOSA0LjY0MiwzLjEyOCA0Ljg0OSwyLjk5NyBDNS40MTgsMi42MzkgNi4wMzcsMi4zODMgNi42OSwyLjIzNSBDNi45MjksMi4xODIgNy4wOTMsMS45NjMgNy4wNzksMS43MTkgTDcuMDM5LDEgTDguOTYxLDEgTDguOTIxLDEuNzIgQzguOTA3LDEuOTY0IDkuMDcxLDIuMTgyIDkuMzA5LDIuMjM2IEM5Ljk2MywyLjM4NCAxMC41ODIsMi42NDEgMTEuMTQ5LDIuOTk5IEMxMS4zNTYsMy4xMyAxMS42MjcsMy4wOTEgMTEuNzg5LDIuOTA5IEwxMi4yNjksMi4zNyBMMTMuNjMsMy43MyBMMTMuMDkzLDQuMjA4IEMxMi45MSw0LjM3MSAxMi44NzIsNC42NDIgMTMuMDAzLDQuODQ5IEMxMy4zNjEsNS40MTUgMTMuNjE5LDYuMDM1IDEzLjc2Nyw2LjY5MSBDMTMuODIxLDYuOTMgMTQuMDQ1LDcuMDk5IDE0LjI4Myw3LjA3OSBMMTUsNy4wMzggTDE1LDguOTYxIEwxNC4yODQsOC45MiBDMTQuMDQ1LDguOTE1IDEzLjgyMSw5LjA3MSAxMy43NjgsOS4zMDkgQzEzLjYyMSw5Ljk2MiAxMy4zNjQsMTAuNTgyIDEzLjAwNSwxMS4xNTMgQzEyLjg3NSwxMS4zNiAxMi45MTMsMTEuNjMgMTMuMDk1LDExLjc5MyBMMTMuNjMsMTIuMjcgTDEyLjI2OSwxMy42MjkgTDExLjc5NSwxMy4wOTcgQzExLjYzMywxMi45MTQgMTEuMzYyLDEyLjg3NyAxMS4xNTQsMTMuMDA3IEMxMC41ODcsMTMuMzY2IDkuOTY2LDEzLjYyMyA5LjMwOSwxMy43NzEgQzkuMDcxLDEzLjgyNSA4LjkwNywxNC4wNDMgOC45MjEsMTQuMjg3IEw4Ljk2MSwxNSBMNy4wMzksMTUgTDcuMDc5LDE0LjI4NyBaIE05Ljg1MywxNS44NDMgQzkuOTQ4LDE1Ljc0NCA5Ljk5NywxNS42MDkgOS45ODksMTUuNDcyIEw5Ljk0MiwxNC42NDEgQzEwLjQyMywxNC41IDEwLjg4NCwxNC4zMDkgMTEuMzIyLDE0LjA2OSBMMTEuODc2LDE0LjY5IEMxMS45NjgsMTQuNzkzIDEyLjA5OCwxNC44NTMgMTIuMjM0LDE0Ljg1NyBDMTIuMzgsMTQuODY3IDEyLjUwNiwxNC44MDggMTIuNjAyLDE0LjcxMSBMMTQuNzExLDEyLjYwMyBDMTQuODA4LDEyLjUwNiAxNC44NjEsMTIuMzczIDE0Ljg1NywxMi4yMzUgQzE0Ljg1MywxMi4wOTggMTQuNzkzLDExLjk2OCAxNC42OSwxMS44NzYgTDE0LjA2NiwxMS4zMiBDMTQuMzA3LDEwLjg4MSAxNC40OTgsMTAuNDIgMTQuNjM3LDkuOTQyIEwxNS40NzIsOS45OSBDMTUuNjA4LDkuOTk3IDE1Ljc0Myw5Ljk0OSAxNS44NDQsOS44NTQgQzE1Ljk0Myw5Ljc2IDE2LDkuNjI4IDE2LDkuNDkxIEwxNiw2LjUwOSBDMTYsNi4zNzEgMTUuOTQzLDYuMjQgMTUuODQ0LDYuMTQ2IEMxNS43NDMsNi4wNTEgMTUuNjA4LDYuMDA1IDE1LjQ3Miw2LjAxIEwxNC42MzYsNi4wNTggQzE0LjQ5Niw1LjU3OSAxNC4zMDUsNS4xMTggMTQuMDY1LDQuNjgxIEwxNC42OSw0LjEyMyBDMTQuNzkzLDQuMDMyIDE0Ljg1MywzLjkwMiAxNC44NTcsMy43NjUgQzE0Ljg2MSwzLjYyNyAxNC44MDgsMy40OTQgMTQuNzExLDMuMzk3IEwxMi42MDIsMS4yODkgQzEyLjUwNiwxLjE5MiAxMi4zNzYsMS4xNDkgMTIuMjM0LDEuMTQyIEMxMi4wOTgsMS4xNDYgMTEuOTY4LDEuMjA3IDExLjg3NiwxLjMwOSBMMTEuMzE2LDEuOTM3IEMxMC44OCwxLjY5OCAxMC40MiwxLjUwNyA5Ljk0MiwxLjM2OCBMOS45ODksMC41MjggQzkuOTk3LDAuMzkxIDkuOTQ4LDAuMjU2IDkuODUzLDAuMTU3IEM5Ljc1OSwwLjA1NyA5LjYyOCwwIDkuNDksMCBMNi41MSwwIEM2LjM3MiwwIDYuMjQxLDAuMDU3IDYuMTQ2LDAuMTU3IEM2LjA1MiwwLjI1NiA2LjAwMywwLjM5MSA2LjAxMSwwLjUyOCBMNi4wNTgsMS4zNjYgQzUuNTgsMS41MDYgNS4xMiwxLjY5NiA0LjY4MywxLjkzNiBMNC4xMjQsMS4zMSBDNC4wMzIsMS4yMDcgMy45MDIsMS4xNDcgMy43NjYsMS4xNDIgQzMuNjIyLDEuMTUzIDMuNDk1LDEuMTkyIDMuMzk3LDEuMjg5IEwxLjI4OSwzLjM5NyBDMS4xOTEsMy40OTQgMS4xMzksMy42MjcgMS4xNDIsMy43NjUgQzEuMTQ2LDMuOTAyIDEuMjA3LDQuMDMyIDEuMzA5LDQuMTIzIEwxLjkzNiw0LjY4MyBDMS42OTYsNS4xMiAxLjUwNSw1LjU3OSAxLjM2NSw2LjA1OCBMMC41MjgsNi4wMSBDMC4zOTIsNi4wMDUgMC4yNTcsNi4wNTEgMC4xNTYsNi4xNDYgQzAuMDU3LDYuMjQgMCw2LjM3MSAwLDYuNTA5IEwwLDkuNDkxIEMwLDkuNjI4IDAuMDU3LDkuNzYgMC4xNTYsOS44NTQgQzAuMjU3LDkuOTQ5IDAuNDA1LDkuOTk3IDAuNTI4LDkuOTkgTDEuMzYyLDkuOTQyIEMxLjUwMiwxMC40MjIgMS42OTIsMTAuODgzIDEuOTMzLDExLjMyMSBMMS4zMDksMTEuODc2IEMxLjIwNywxMS45NjggMS4xNDYsMTIuMDk4IDEuMTQyLDEyLjIzNSBDMS4xMzksMTIuMzczIDEuMTkxLDEyLjUwNiAxLjI4OSwxMi42MDMgTDMuMzk3LDE0LjcxMSBDMy40OTUsMTQuODA4IDMuNjE4LDE0Ljg2NCAzLjc2NiwxNC44NTcgQzMuOTAzLDE0Ljg1MyA0LjAzMiwxNC43OTMgNC4xMjQsMTQuNjkgTDQuNjc5LDE0LjA2NyBDNS4xMTcsMTQuMzA4IDUuNTc4LDE0LjQ5OSA2LjA1OCwxNC42NCBMNi4wMTEsMTUuNDcyIEM2LjAwMywxNS42MDkgNi4wNTIsMTUuNzQ0IDYuMTQ2LDE1Ljg0MyBDNi4yNDEsMTUuOTQzIDYuMzcyLDE2IDYuNTEsMTYgTDkuNDksMTYgQzkuNjI4LDE2IDkuNzU5LDE1Ljk0MyA5Ljg1MywxNS44NDMgTDkuODUzLDE1Ljg0MyBaIE03Ljc3NSw5LjU4NiBMMTAuMjQxLDcuMTIgTDkuNTM0LDYuNDEzIEw3LjQyMiw4LjUyNiBMNi40NjYsNy41NjkgTDUuNzU5LDguMjc2IEw3LjA2OCw5LjU4NiBDNy4xNjIsOS42OCA3LjI4OSw5LjczMyA3LjQyMiw5LjczMyBDNy41NTUsOS43MzMgNy42ODIsOS42OCA3Ljc3NSw5LjU4NiBMNy43NzUsOS41ODYgWiBNMTMuMzg0LDcuNjQyIEwxMi42NzEsOC4wMjMgQzEyLjY2Miw2Ljk4NSAxMi4zMzcsNS45ODIgMTEuNjkyLDUuMTQ3IEMxMC45MTEsNC4xMzYgOS43ODMsMy40ODkgOC41MTUsMy4zMjYgQzYuNDY1LDMuMDYyIDQuNDk3LDQuMTMxIDMuNTk5LDUuOTgzIEw0LjQ5OSw2LjQyIEM1LjIwOSw0Ljk1NSA2Ljc2Miw0LjEwOSA4LjM4OCw0LjMxOCBDOS4zOTEsNC40NDcgMTAuMjgzLDQuOTU4IDEwLjksNS43NTggQzExLjM1LDYuMzM5IDExLjYwNyw3LjAyMiAxMS42NjksNy43MzYgTDExLjMxNCw3LjM4NiBMMTAuNjExLDguMDk4IEwxMi4wMzEsOS40OTcgTDEzLjg1NCw4LjUyNCBMMTMuMzg0LDcuNjQyIFogTTEyLjIxMiwxMC4xNTkgQzExLjQwNCwxMS44MjUgOS43MjUsMTIuODU2IDcuOTA5LDEyLjg1NiBDNy43MDYsMTIuODU2IDcuNTAxLDEyLjg0MyA3LjI5NSwxMi44MTcgQzQuOSwxMi41MDkgMy4xNjUsMTAuNDY3IDMuMTQxLDguMTE4IEwyLjQyNiw4LjUgTDEuOTU1LDcuNjE4IEwzLjc3OCw2LjY0NSBMNS4xOTgsOC4wNDUgTDQuNDk1LDguNzU3IEw0LjE0LDguNDA2IEM0LjI5MywxMC4xMzYgNS42MjksMTEuNTk0IDcuNDIyLDExLjgyNSBDOS4wNDEsMTIuMDM2IDEwLjYwMSwxMS4xODggMTEuMzExLDkuNzIyIEwxMi4yMTIsMTAuMTU5IFoiLz4mI3hhOyAgICAgICAgPC9nPiYjeGE7ICAgIDwvZz4mI3hhOzwvc3ZnPg==;" vertex="1" parent="Z4amRD8m1zhhW-L_DsDk-35">
          <mxGeometry x="1620.8413355297523" y="43.714285714285715" width="221.14186990236652" height="221.14186990236652" as="geometry" />
        </mxCell>
        <mxCell id="Z4amRD8m1zhhW-L_DsDk-2" value="" style="shape=image;verticalLabelPosition=bottom;labelBackgroundColor=default;verticalAlign=top;aspect=fixed;imageAspect=0;editableCssRules=.*;image=data:image/svg+xml,PHN2ZyB4bWxuczp4bGluaz0iaHR0cDovL3d3dy53My5vcmcvMTk5OS94bGluayIgeG1sbnM9Imh0dHA6Ly93d3cudzMub3JnLzIwMDAvc3ZnIiB2ZXJzaW9uPSIxLjEiIHZpZXdCb3g9Ii0wLjUgLTAuNSAyNSAyNSIgaGVpZ2h0PSIyNSIgd2lkdGg9IjI1Ij4mI3hhOyAgICAmI3hhOyAgICA8dGl0bGU+SWNvbi1BcmNoaXRlY3R1cmUvMTYvQXJjaF9BV1MtU2FnZU1ha2VyXzE2PC90aXRsZT4mI3hhOyAgICA8ZGVzYz5DcmVhdGVkIHdpdGggU2tldGNoLjwvZGVzYz4mI3hhOyAgICA8ZGVmcz4mI3hhOyAgICAgICAgPGxpbmVhckdyYWRpZW50IGlkPSJsaW5lYXJHcmFkaWVudC0xIiB5Mj0iMCUiIHgyPSIxMDAlIiB5MT0iMTAwJSIgeDE9IjAlIj4mI3hhOyAgICAgICAgICAgIDxzdG9wIG9mZnNldD0iMCUiIHN0b3AtY29sb3I9IiMwNTVGNEUiLz4mI3hhOyAgICAgICAgICAgIDxzdG9wIG9mZnNldD0iMTAwJSIgc3RvcC1jb2xvcj0iIzU2QzBBNyIvPiYjeGE7ICAgICAgICA8L2xpbmVhckdyYWRpZW50PiYjeGE7ICAgIDwvZGVmcz4mI3hhOyAgICA8ZyBmaWxsLXJ1bGU9ImV2ZW5vZGQiIGZpbGw9Im5vbmUiIHN0cm9rZS13aWR0aD0iMSIgc3Ryb2tlPSJub25lIiBpZD0iSWNvbi1BcmNoaXRlY3R1cmUvMTYvQXJjaF9BV1MtU2FnZU1ha2VyXzE2Ij4mI3hhOyAgICAgICAgPGcgZmlsbD0idXJsKCNsaW5lYXJHcmFkaWVudC0xKSIgaWQ9Ikljb24tQXJjaGl0ZWN0dXJlLUJHLzE2L01hY2hpbmUtTGVhcm5pbmciPiYjeGE7ICAgICAgICAgICAgPHJlY3QgaGVpZ2h0PSIyNCIgd2lkdGg9IjI0IiB5PSIwIiB4PSIwIiBpZD0iUmVjdGFuZ2xlIi8+JiN4YTsgICAgICAgIDwvZz4mI3hhOyAgICAgICAgPHBhdGggZmlsbD0iI0ZGRkZGRiIgaWQ9IkFXUy1TYWdlTWFrZXJfSWNvbl8xNl9TcXVpZCIgZD0iTTE5LjAwMDUzMywxMy42NjcyODc0IEwxNy4zMTA0MzQ0LDEyLjM1NzkzOTMgTDE2LjY4NTc2NzYsMTMuMTE1MjY5NCBMMTguNTc0NzYwMSwxNC41NzY2NjQ2IEwxNy4yNjA0NjExLDE1LjIwODA5NTggQzE3LjA4OTU1MjIsMTUuMjg5NDQ1OCAxNi45ODE2MDk4LDE1LjQ1Nzk1NjYgMTYuOTgxNjA5OCwxNS42NDE5NjI2IEwxNi45ODE2MDk4LDE3LjI5ODk4NTMgTDE0LjAxNjE5MTQsMTguOTQ4MjYwMyBMMTIuOTY4NzUsMTguMjg1ODM4NiBMMTIuOTY4NzUsMTUuNjU3NDU3OCBMMTQuOTk4NjY3NCwxNS42NTc0NTc4IEwxNC45OTg2Njc0LDE0LjY4OTAwNTEgTDEyLjk2ODc1LDE0LjY4OTAwNTEgTDEyLjk2ODc1LDEyLjczNjYwNDMgTDExLjk2OTI4MywxMi43MzY2MDQzIEwxMS45NjkyODMsMTguMjkwNjgwOSBMMTAuOTc4ODExMywxOC45NDUzNTQ5IEw5LjkxMDM4MTEzLDE4LjM1MDcyNSBMMTEuMzU0NjEwOSwxNi45NTMyNDc2IEwxMC42NDc5ODc3LDE2LjI2ODU1MTUgTDkuMDEyODU5ODEsMTcuODUxOTcxOCBMOC4wMTgzOTAxOSwxNy4yOTg5ODUzIEw4LjAxODM5MDE5LDE1LjY0MTk2MjYgQzguMDE4MzkwMTksMTUuNDU3OTU2NiA3LjkxMDQ0Nzc2LDE1LjI4OTQ0NTggNy43Mzk1Mzg5MSwxNS4yMDgwOTU4IEw1Ljk5OTQ2Njk1LDE0LjM3MzI4OTUgTDUuOTk5NDY2OTUsMTEuMDk0MTA4NCBMNy40MzM3MDIwMywxMC4zNzI2MTExIEw5LjAwMTg2NTY3LDExLjEwNDc2MTQgTDkuMDAxODY1NjcsMTIuNDc3MDU5IEw3LjcyNTU0NjM4LDEzLjMwMjE4MDcgTDguMjc5MjUxMDcsMTQuMTA3OTMzNCBMOS43Nzg0NTE0OSwxMy4xMzk0ODA3IEM5LjkxNzM3NzQsMTMuMDQ5NDE0NiAxMC4wMDEzMzI2LDEyLjg5ODMzNTkgMTAuMDAxMzMyNiwxMi43MzY2MDQzIEwxMC4wMDEzMzI2LDExLjA1OTI0NDIgTDExLjI3NzY1MTksMTAuMjM0MTIyNCBMMTAuNzIzOTQ3Miw5LjQyODM2OTcxIEw5LjQ2MTYyMDQ3LDEwLjI0MzgwNjkgTDcuOTI0NDQwMyw5LjUyNzE1MTg5IEw3LjkyNDQ0MDMsNy4yNDY0NDU2NSBMOS4wMDE4NjU2Nyw2LjgwMzg2Mjc0IEw5LjAwMTg2NTY3LDguODI3OTI5IEwxMC4wMDEzMzI2LDguODI3OTI5IEwxMC4wMDEzMzI2LDYuMzkzMjM4NzcgTDEwLjk1ODgyMiw2LjAwMDA0Njk1IEwxMS45NjkyODMsNi4zMTE4ODg3NCBMMTEuOTY5MjgzLDkuODMxMjQ2MDYgQzExLjk2OTI4Myw5Ljk3OTQxOTMzIDEyLjAzOTI0NTcsMTAuMTE4ODc2NSAxMi4xNTkxODE4LDEwLjIxMDg3OTUgTDE0LjY4OTgzMjEsMTIuMTQ3Nzg1IEwxNS4zMDg1MDIxLDExLjM4ODUxODEgTDEyLjk2ODc1LDkuNTk2ODgwNDkgTDEyLjk2ODc1LDYuMzA3MDQ2NDcgTDEzLjkxMzI0NjMsNi4wMDEwMTU0IEwxNi45OTc2MDEzLDcuMjQ4MzgyNTUgTDE2Ljk5NzYwMTMsNy45NTUzNTMwNyBMMTQuOTk4NjY3NCw3Ljk1NTM1MzA3IEwxNC45OTg2Njc0LDguOTIzODA1ODIgTDE2Ljk5NzYwMTMsOC45MjM4MDU4MiBMMTYuOTk3NjAxMyw5LjgzMTI0NjA2IEMxNi45OTc2MDEzLDEwLjAxNTI1MjEgMTcuMTA1NTQzNywxMC4xODI3OTQ0IDE3LjI3MzQ1NDIsMTAuMjY0MTQ0NCBMMTkuMDAwNTMzLDExLjA5ODk1MDcgTDE5LjAwMDUzMywxMy42NjcyODc0IFogTTE5LjcyNDE0NzEsMTAuMzY2ODAwNCBMMTcuOTk3MDY4Miw5LjUzMTk5NDE1IEwxNy45OTcwNjgyLDYuOTI1ODg3NzkgQzE3Ljk5NzA2ODIsNi43MzAyNjAzMyAxNy44NzYxMzI3LDYuNTU0MDAxOTMgMTcuNjg5MjMyNCw2LjQ3OTQzMTA2IEwxNC4xMjUxMzMzLDUuMDM3NDA0OTEgQzE0LjAxMzE5Myw0Ljk5MTg4NzYzIDEzLjg4OTI1OTEsNC45ODg5ODIyNyAxMy43NzQzMjA0LDUuMDI1NzgzNDggTDEyLjQ2NjAxODEsNS40NDg5OTczMyBMMTEuMDg1NzU0Myw1LjAyMjg3ODEyIEMxMC45NzI4MTQ1LDQuOTg4MDEzODIgMTAuODQ5ODgwMSw0Ljk5Mjg1NjA4IDEwLjczODkzOTIsNS4wMzgzNzMzNiBMNy4yMjk4MTA3Nyw2LjQ4MDM5OTUyIEM3LjA0NDkwOTM4LDYuNTU1OTM4ODMgNi45MjQ5NzMzNSw2LjczMTIyODc4IDYuOTI0OTczMzUsNi45MjU4ODc3OSBMNi45MjQ5NzMzNSw5LjUzNjgzNjQyIEw1LjI2OTg1NjA4LDEwLjM2OTcwNTggQzUuMTAzOTQ0NTYsMTAuNDUyOTkyNyA1LDEwLjYxOTU2NjYgNSwxMC43OTk2OTg4IEw1LDE0LjY3MzUwOTggQzUsMTQuODU3NTE1OSA1LjEwNzk0MjQzLDE1LjAyNjAyNjYgNS4yNzg4NTEyOCwxNS4xMDczNzY3IEw3LjAxODkyMzI0LDE1Ljk0MzE1MTQgTDcuMDE4OTIzMjQsMTcuNTc4ODY4MSBDNy4wMTg5MjMyNCwxNy43NTIyMjEyIDcuMTEzODcyNiwxNy45MTI5ODQzIDcuMjY5Nzg5NDUsMTcuOTk5MTc2NiBMMTAuNzUxOTMyMywxOS45MzYwODIxIEMxMC44Mjg4OTEzLDE5Ljk3ODY5NCAxMC45MTQ4NDU0LDIwIDExLjAwMDc5OTYsMjAgQzExLjA5OTc0NjgsMjAgMTEuMTk2Njk1MSwxOS45NzE5MTQ5IDExLjI4MTY0OTgsMTkuOTE1NzQ0NiBMMTIuNDc1MDEzMywxOS4xMjkzNjEgTDEzLjcyNjM0NTksMTkuOTIxNTU1MyBDMTMuODA5MzAxNywxOS45NzM4NTE4IDEzLjkwMzI1MTYsMjAgMTMuOTk5MjAwNCwyMCBDMTQuMDg1MTU0NiwyMCAxNC4xNzExMDg3LDE5Ljk3ODY5NCAxNC4yNDgwNjc3LDE5LjkzNjA4MjEgTDE3LjczMDIxMDYsMTcuOTk5MTc2NiBDMTcuODg2MTI3NCwxNy45MTI5ODQzIDE3Ljk4MTA3NjgsMTcuNzUyMjIxMiAxNy45ODEwNzY4LDE3LjU3ODg2ODEgTDE3Ljk4MTA3NjgsMTUuOTQzMTUxNCBMMTkuNzIyMTQ4MiwxNS4xMDczNzY3IEMxOS44OTMwNTcsMTUuMDI2MDI2NiAyMCwxNC44NTc1MTU5IDIwLDE0LjY3MzUwOTggTDIwLDEwLjc5OTY5ODggQzIwLDEwLjYxNjY2MTIgMTkuODkzMDU3LDEwLjQ0ODE1MDUgMTkuNzI0MTQ3MSwxMC4zNjY4MDA0IEwxOS43MjQxNDcxLDEwLjM2NjgwMDQgWiIvPiYjeGE7ICAgIDwvZz4mI3hhOzwvc3ZnPg==;" vertex="1" parent="Z4amRD8m1zhhW-L_DsDk-35">
          <mxGeometry x="335.13278958576086" y="815.1428571428572" width="221.14186990236652" height="221.14186990236652" as="geometry" />
        </mxCell>
        <mxCell id="Z4amRD8m1zhhW-L_DsDk-3" value="" style="shape=image;verticalLabelPosition=bottom;labelBackgroundColor=default;verticalAlign=top;aspect=fixed;imageAspect=0;editableCssRules=.*;image=data:image/svg+xml,PHN2ZyB4bWxuczp4bGluaz0iaHR0cDovL3d3dy53My5vcmcvMTk5OS94bGluayIgeG1sbnM9Imh0dHA6Ly93d3cudzMub3JnLzIwMDAvc3ZnIiB2ZXJzaW9uPSIxLjEiIHZpZXdCb3g9Ii0wLjUgLTAuNSAyNSAyNSIgaGVpZ2h0PSIyNSIgd2lkdGg9IjI1Ij4mI3hhOyAgICAmI3hhOyAgICA8dGl0bGU+SWNvbi1BcmNoaXRlY3R1cmUvMTYvQXJjaF9BbWF6b24tUkRTXzE2PC90aXRsZT4mI3hhOyAgICA8ZGVzYz5DcmVhdGVkIHdpdGggU2tldGNoLjwvZGVzYz4mI3hhOyAgICA8ZGVmcz4mI3hhOyAgICAgICAgPGxpbmVhckdyYWRpZW50IGlkPSJsaW5lYXJHcmFkaWVudC0xIiB5Mj0iMCUiIHgyPSIxMDAlIiB5MT0iMTAwJSIgeDE9IjAlIj4mI3hhOyAgICAgICAgICAgIDxzdG9wIG9mZnNldD0iMCUiIHN0b3AtY29sb3I9IiMyRTI3QUQiLz4mI3hhOyAgICAgICAgICAgIDxzdG9wIG9mZnNldD0iMTAwJSIgc3RvcC1jb2xvcj0iIzUyN0ZGRiIvPiYjeGE7ICAgICAgICA8L2xpbmVhckdyYWRpZW50PiYjeGE7ICAgIDwvZGVmcz4mI3hhOyAgICA8ZyBmaWxsLXJ1bGU9ImV2ZW5vZGQiIGZpbGw9Im5vbmUiIHN0cm9rZS13aWR0aD0iMSIgc3Ryb2tlPSJub25lIiBpZD0iSWNvbi1BcmNoaXRlY3R1cmUvMTYvQXJjaF9BbWF6b24tUkRTXzE2Ij4mI3hhOyAgICAgICAgPGcgZmlsbD0idXJsKCNsaW5lYXJHcmFkaWVudC0xKSIgaWQ9Ikljb24tQXJjaGl0ZWN0dXJlLUJHLzE2L0RhdGFiYXNlIj4mI3hhOyAgICAgICAgICAgIDxyZWN0IGhlaWdodD0iMjQiIHdpZHRoPSIyNCIgeT0iMCIgeD0iMCIgaWQ9IlJlY3RhbmdsZSIvPiYjeGE7ICAgICAgICA8L2c+JiN4YTsgICAgICAgIDxwYXRoIGZpbGw9IiNGRkZGRkYiIGlkPSJBbWF6b24tUkRTX0ljb25fMTZfU3F1aWQiIGQ9Ik01LjcwNyw1IEw3Ljg1Myw3LjE0NiBMNy4xNDYsNy44NTQgTDUsNS43MDcgTDUsNy41IEw0LDcuNSBMNCw0LjUgQzQsNC4yMjQgNC4yMjQsNCA0LjUsNCBMNy41LDQgTDcuNSw1IEw1LjcwNyw1IFogTTcuODUzLDE2Ljg1NCBMNS43MDcsMTkgTDcuNSwxOSBMNy41LDIwIEw0LjUsMjAgQzQuMjI0LDIwIDQsMTkuNzc2IDQsMTkuNSBMNCwxNi41IEw1LDE2LjUgTDUsMTguMjkzIEw3LjE0NiwxNi4xNDYgTDcuODUzLDE2Ljg1NCBaIE01LDEyIEM1LDEyLjc1IDUuOTY2LDEzLjU0MiA3LjUxOSwxNC4wNjkgTDcuMTk5LDE1LjAxNiBDNS4xNjYsMTQuMzI4IDQsMTMuMjI4IDQsMTIgQzQsMTAuNzcyIDUuMTY2LDkuNjcyIDcuMTk5LDguOTg0IEw3LjUxOSw5LjkzMSBDNS45NjYsMTAuNDU4IDUsMTEuMjUgNSwxMiBMNSwxMiBaIE0xOSwxNi41IEwyMCwxNi41IEwyMCwxOS41IEMyMCwxOS43NzYgMTkuNzc2LDIwIDE5LjUsMjAgTDE2LjUsMjAgTDE2LjUsMTkgTDE4LjI5MywxOSBMMTYuMTQ2LDE2Ljg1NCBMMTYuODUzLDE2LjE0NiBMMTksMTguMjkzIEwxOSwxNi41IFogTTIwLDQuNSBMMjAsNy41IEwxOSw3LjUgTDE5LDUuNzA3IEwxNi44NTMsNy44NTQgTDE2LjE0Niw3LjE0NiBMMTguMjkzLDUgTDE2LjUsNSBMMTYuNSw0IEwxOS41LDQgQzE5Ljc3Niw0IDIwLDQuMjI0IDIwLDQuNSBMMjAsNC41IFogTTIwLDEyIEMyMCwxMy4yMjggMTguODM0LDE0LjMyOCAxNi44MDEsMTUuMDE2IEwxNi40OCwxNC4wNjkgQzE4LjAzNCwxMy41NDIgMTksMTIuNzUgMTksMTIgQzE5LDExLjI1IDE4LjAzNCwxMC40NTggMTYuNDgsOS45MzEgTDE2LjgwMSw4Ljk4NCBDMTguODM0LDkuNjcyIDIwLDEwLjc3MiAyMCwxMiBMMjAsMTIgWiBNMTIsMTUuNDAyIEMxMC44MSwxNS40MDIgMTAuMDg3LDE1LjEwNCAxMCwxNS4wMzIgTDEwLDEwLjY1MSBDMTAuNTY0LDEwLjg4NiAxMS4yOTQsMTEgMTIsMTEgQzEyLjcwOCwxMSAxMy40MzksMTAuODg2IDE0LjAwNCwxMC42NSBMMTQuMDIsMTQuOTUyIEMxMy45MTMsMTUuMTA0IDEzLjE5LDE1LjQwMiAxMiwxNS40MDIgTDEyLDE1LjQwMiBaIE0xMiw5IEMxMy4xNzQsOSAxMy44NTgsOS4zMzYgMTMuOTg3LDkuNSBDMTMuODU4LDkuNjY0IDEzLjE3NCwxMCAxMiwxMCBDMTAuNzcxLDEwIDEwLjA4LDkuNjMyIDEwLDkuNTMxIEwxMCw5LjUyMSBDMTAuMDgsOS4zNjggMTAuNzcxLDkgMTIsOSBMMTIsOSBaIE0xMiw4IEMxMC41NTUsOCA5LDguNDY5IDksOS41IEw5LDE1LjAzMiBDOSwxNS45NzkgMTAuNTA3LDE2LjQwMiAxMiwxNi40MDIgQzEzLjQ5MywxNi40MDIgMTUsMTUuOTc5IDE1LDE1LjAzMiBMMTUsOS41IEMxNSw4LjQ2OSAxMy40NDUsOCAxMiw4IEwxMiw4IFoiLz4mI3hhOyAgICA8L2c+JiN4YTs8L3N2Zz4=;" vertex="1" parent="Z4amRD8m1zhhW-L_DsDk-35">
          <mxGeometry x="1106.5579171521556" y="815.1428571428572" width="221.14186990236652" height="221.14186990236652" as="geometry" />
        </mxCell>
        <mxCell id="Z4amRD8m1zhhW-L_DsDk-4" value="" style="shape=image;verticalLabelPosition=bottom;labelBackgroundColor=default;verticalAlign=top;aspect=fixed;imageAspect=0;editableCssRules=.*;image=data:image/svg+xml,PHN2ZyB4bWxuczp4bGluaz0iaHR0cDovL3d3dy53My5vcmcvMTk5OS94bGluayIgeG1sbnM9Imh0dHA6Ly93d3cudzMub3JnLzIwMDAvc3ZnIiB2ZXJzaW9uPSIxLjEiIHZpZXdCb3g9Ii0wLjUgLTAuNSAyNSAyNSIgaGVpZ2h0PSIyNSIgd2lkdGg9IjI1Ij4mI3hhOyAgICAmI3hhOyAgICA8dGl0bGU+SWNvbi1BcmNoaXRlY3R1cmUvMTYvQXJjaF9BV1MtQnVkZ2V0c18xNjwvdGl0bGU+JiN4YTsgICAgPGRlc2M+Q3JlYXRlZCB3aXRoIFNrZXRjaC48L2Rlc2M+JiN4YTsgICAgPGRlZnM+JiN4YTsgICAgICAgIDxsaW5lYXJHcmFkaWVudCBpZD0ibGluZWFyR3JhZGllbnQtMSIgeTI9IjAlIiB4Mj0iMTAwJSIgeTE9IjEwMCUiIHgxPSIwJSI+JiN4YTsgICAgICAgICAgICA8c3RvcCBvZmZzZXQ9IjAlIiBzdG9wLWNvbG9yPSIjMUI2NjBGIi8+JiN4YTsgICAgICAgICAgICA8c3RvcCBvZmZzZXQ9IjEwMCUiIHN0b3AtY29sb3I9IiM2Q0FFM0UiLz4mI3hhOyAgICAgICAgPC9saW5lYXJHcmFkaWVudD4mI3hhOyAgICA8L2RlZnM+JiN4YTsgICAgPGcgZmlsbC1ydWxlPSJldmVub2RkIiBmaWxsPSJub25lIiBzdHJva2Utd2lkdGg9IjEiIHN0cm9rZT0ibm9uZSIgaWQ9Ikljb24tQXJjaGl0ZWN0dXJlLzE2L0FyY2hfQVdTLUJ1ZGdldHNfMTYiPiYjeGE7ICAgICAgICA8ZyBmaWxsPSJ1cmwoI2xpbmVhckdyYWRpZW50LTEpIiBpZD0iSWNvbi1BcmNoaXRlY3R1cmUtQkcvMTYvQVdTLUNvc3QtTWFuYWdlbWVudCI+JiN4YTsgICAgICAgICAgICA8cmVjdCBoZWlnaHQ9IjI0IiB3aWR0aD0iMjQiIHk9IjAiIHg9IjAiIGlkPSJSZWN0YW5nbGUiLz4mI3hhOyAgICAgICAgPC9nPiYjeGE7ICAgICAgICA8cGF0aCBmaWxsPSIjRkZGRkZGIiBpZD0iQVdTLUJ1ZGdldHNfSWNvbl8xNl9TcXVpZCIgZD0iTTEzLjA3Mzk1MzQsOS45ODQ4NTUxMiBMMTMuMDczOTUzNCw4LjYyMDA2MzgzIEwxMC4zODA1NDY1LDExLjI5NDU3NDEgTDkuNjczNjAyNDEsMTAuNTg0NjQyMyBMMTIuMzU5OTksNy45MTcxNDEyNSBMMTEuMDA2MjY3Miw3LjkxNzE0MTI1IEwxMS4wMDYyNjcyLDYuOTE1ODI3MDIgTDEzLjU3NTMzMjIsNi45MTU4MjcwMiBDMTMuODUyMDkzMyw2LjkxNTgyNzAyIDE0LjA3NjcxMSw3LjE0MDEyMTQxIDE0LjA3NjcxMSw3LjQxNjQ4NDE0IEwxNC4wNzY3MTEsOS45ODQ4NTUxMiBMMTMuMDczOTUzNCw5Ljk4NDg1NTEyIFogTTguOTIyNTM2OTgsMTEuOTg3NDgzNiBMNy45MTk3NzkzOSwxMS45ODc0ODM2IEw3LjkxOTc3OTM5LDQuNTAwNjU3MTEgQzcuOTE5Nzc5MzksNC4yMjQyOTQzOSA4LjE0NDM5NzA5LDQgOC40MjExNTgxOSw0IEwxNS41MzQ3MjA1LDQgQzE1LjgxMTQ4MTYsNCAxNi4wMzYwOTkzLDQuMjI0Mjk0MzkgMTYuMDM2MDk5Myw0LjUwMDY1NzExIEwxNi4wMzYwOTkzLDExLjk4NzQ4MzYgTDE1LjAzMzM0MTcsMTEuOTg3NDgzNiBMMTUuMDMzMzQxNyw1LjAwMTMxNDIyIEw4LjkyMjUzNjk4LDUuMDAxMzE0MjIgTDguOTIyNTM2OTgsMTEuOTg3NDgzNiBaIE0xOC45OTcyNDI0LDE4LjI5MTc1NzkgTDE1LjY0MTAxMjgsMTQuOTQyMzYxOCBMMTguOTk3MjQyNCwxMi44Nzg2NTMyIEwxOC45OTcyNDI0LDE4LjI5MTc1NzkgWiBNNS43MDQ2ODc4OSwxOC45OTg2ODU4IEw5LjIxODM1MDQ2LDE1LjQ2MzA0NTIgTDExLjc0NzMwNTEsMTcuMDE0MDgxIEMxMS44Mjc1MjU3LDE3LjA2MzE0NTQgMTEuOTE4Nzc2NiwxNy4wODgxNzgyIDEyLjAwOTAyNDgsMTcuMDg4MTc4MiBDMTIuMTAwMjc1OCwxNy4wODgxNzgyIDEyLjE5MTUyNjcsMTcuMDYzMTQ1NCAxMi4yNzE3NDczLDE3LjAxNDA4MSBMMTQuNzYzNTk5OSwxNS40ODIwNzAyIEwxOC4yODcyOSwxOC45OTg2ODU4IEw1LjcwNDY4Nzg5LDE4Ljk5ODY4NTggWiBNNS4wMDI3NTc1OCwxMi44Nzg2NTMyIEw4LjM0MDkzNzU4LDE0LjkyNTMzOTUgTDUuMDAyNzU3NTgsMTguMjg0NzQ4NyBMNS4wMDI3NTc1OCwxMi44Nzg2NTMyIFogTTE5Ljc5NTQzNzUsMTEuNTc4OTQ3NCBMMTcuNzczODc4MiwxMC4xMDAwMDYzIEwxNy4xODEyNDg0LDEwLjkwNzA2NTUgTDE4LjYwMjE1NTksMTEuOTQ2NDI5NyBMMTIuMDA5MDI0OCwxNS45OTk3NDk3IEw1LjQwMDg1MjM0LDExLjk0NjQyOTcgTDYuODIxNzU5ODQsMTAuOTA3MDY1NSBMNi4yMzAxMzI4NywxMC4xMDAwMDYzIEw0LjIwNTU2NTMsMTEuNTc4OTQ3NCBDNC4wNzYyMDk1OCwxMS42NzQwNzIyIDQsMTEuODIzMjY4IDQsMTEuOTgzNDc4MyBMNCwxOS40OTkzNDI5IEM0LDE5Ljc3NTcwNTYgNC4yMjQ2MTc3LDIwIDQuNTAxMzc4NzksMjAgTDE5LjQ5ODYyMTIsMjAgQzE5Ljc3NjM4NTEsMjAgMjAsMTkuNzc1NzA1NiAyMCwxOS40OTkzNDI5IEwyMCwxMS45ODM0NzgzIEMyMCwxMS44MjMyNjggMTkuOTIzNzkwNCwxMS42NzQwNzIyIDE5Ljc5NTQzNzUsMTEuNTc4OTQ3NCBMMTkuNzk1NDM3NSwxMS41Nzg5NDc0IFoiLz4mI3hhOyAgICA8L2c+JiN4YTs8L3N2Zz4=;" vertex="1" parent="Z4amRD8m1zhhW-L_DsDk-35">
          <mxGeometry x="335.13278958576086" y="43.714285714285715" width="221.14186990236652" height="221.14186990236652" as="geometry" />
        </mxCell>
        <mxCell id="Z4amRD8m1zhhW-L_DsDk-5" value="" style="shape=image;verticalLabelPosition=bottom;labelBackgroundColor=default;verticalAlign=top;aspect=fixed;imageAspect=0;editableCssRules=.*;image=data:image/svg+xml,PHN2ZyB4bWxuczp4bGluaz0iaHR0cDovL3d3dy53My5vcmcvMTk5OS94bGluayIgeG1sbnM9Imh0dHA6Ly93d3cudzMub3JnLzIwMDAvc3ZnIiB2ZXJzaW9uPSIxLjEiIHZpZXdCb3g9Ii0wLjUgLTAuNSAyNSAyNSIgaGVpZ2h0PSIyNSIgd2lkdGg9IjI1Ij4mI3hhOyAgICAmI3hhOyAgICA8dGl0bGU+SWNvbi1BcmNoaXRlY3R1cmUvMTYvQXJjaF9BbWF6b24tUm91dGUtNTNfMTY8L3RpdGxlPiYjeGE7ICAgIDxkZXNjPkNyZWF0ZWQgd2l0aCBTa2V0Y2guPC9kZXNjPiYjeGE7ICAgIDxkZWZzPiYjeGE7ICAgICAgICA8bGluZWFyR3JhZGllbnQgaWQ9ImxpbmVhckdyYWRpZW50LTEiIHkyPSIwJSIgeDI9IjEwMCUiIHkxPSIxMDAlIiB4MT0iMCUiPiYjeGE7ICAgICAgICAgICAgPHN0b3Agb2Zmc2V0PSIwJSIgc3RvcC1jb2xvcj0iIzREMjdBOCIvPiYjeGE7ICAgICAgICAgICAgPHN0b3Agb2Zmc2V0PSIxMDAlIiBzdG9wLWNvbG9yPSIjQTE2NkZGIi8+JiN4YTsgICAgICAgIDwvbGluZWFyR3JhZGllbnQ+JiN4YTsgICAgPC9kZWZzPiYjeGE7ICAgIDxnIGZpbGwtcnVsZT0iZXZlbm9kZCIgZmlsbD0ibm9uZSIgc3Ryb2tlLXdpZHRoPSIxIiBzdHJva2U9Im5vbmUiIGlkPSJJY29uLUFyY2hpdGVjdHVyZS8xNi9BcmNoX0FtYXpvbi1Sb3V0ZS01M18xNiI+JiN4YTsgICAgICAgIDxnIGZpbGw9InVybCgjbGluZWFyR3JhZGllbnQtMSkiIGlkPSJJY29uLUFyY2hpdGVjdHVyZS1CRy8xNi9OZXR3b3JraW5nLUNvbnRlbnQtRGVsaXZlcnkiPiYjeGE7ICAgICAgICAgICAgPHJlY3QgaGVpZ2h0PSIyNCIgd2lkdGg9IjI0IiB5PSIwIiB4PSIwIiBpZD0iUmVjdGFuZ2xlIi8+JiN4YTsgICAgICAgIDwvZz4mI3hhOyAgICAgICAgPHBhdGggZmlsbD0iI0ZGRkZGRiIgaWQ9IkFtYXpvbi1Sb3V0ZS01My1JY29uXzE2X1NxdWlkIiBkPSJNMTQuMjQyNjE4OCwxMi4xMzMxNzE2IEMxNC40NDUwNzQsMTIuMzE5NjM3MSAxNC41NDc4MTI0LDEyLjU3MTYxNzYgMTQuNTQ3ODEyNCwxMi44ODIwNTc0IEMxNC41NDc4MTI0LDEzLjIxOTcxMTIgMTQuNDIzOTIxOSwxMy40OTM4NjU5IDE0LjE4MDE3LDEzLjY5NjQ1ODEgQzEzLjkzODQzMjUsMTMuODk2MDI2NiAxMy42MTUxMDg2LDEzLjk5NjgxODcgMTMuMjE2MjQxNywxMy45OTY4MTg3IEMxMi45MDUwMDQ3LDEzLjk5NjgxODcgMTIuNTkyNzYwNSwxMy45MjkyODggMTIuMjg4NTc0MSwxMy43OTYyNDIzIEwxMi4yNDMyNDgzLDEzLjc3NzA5MTggTDEyLjI0MzI0ODMsMTMuMjM2ODQ1OCBMMTIuMzQxOTU3OCwxMy4yNjkwOTkzIEMxMy4wMDY3MzU5LDEzLjQ4NzgxODMgMTMuNDkyMjI1NCwxMy40OTE4NSAxMy43MzI5NTU2LDEzLjI5MjI4MTUgQzEzLjg0Nzc4MDksMTMuMTk3NTM2OSAxMy45MDMxNzkxLDEzLjA2MjQ3NTQgMTMuOTAzMTc5MSwxMi44ODIwNTc0IEMxMy45MDMxNzkxLDEyLjY2MzMzODQgMTMuODM0Njg2OCwxMi4zNzMwNTcgMTMuMjQxNDIyNywxMi4zNzMwNTcgQzEzLjA4NjMwNzgsMTIuMzczMDU3IDEyLjkzODI0MzYsMTIuMzgxMTIwNCAxMi43OTAxNzk0LDEyLjM5NzI0NzEgTDEyLjcwNjU3ODUsMTIuNDA2MzE4NCBMMTIuNzA2NTc4NSwxMS45NzI5MTIxIEwxMy42MjQxNzM3LDEwLjk3MzA1MzggTDEyLjI5MTU5NTgsMTAuOTczMDUzOCBMMTIuMjkxNTk1OCwxMC40MjQ3NDQ1IEwxNC40MDc4MDYxLDEwLjQyNDc0NDUgTDE0LjQwNzgwNjEsMTAuOTEyNTc4NSBMMTMuNTE1MzkxOSwxMS44NTcwMDExIEMxMy44MTU1NDkzLDExLjg3MTExMiAxNC4wNTkzMDEyLDExLjk2Mzg0MDggMTQuMjQyNjE4OCwxMi4xMzMxNzE2IE0xMS40Mzk0NzEyLDEyLjA0OTUxNDIgQzExLjY0OTk4NDMsMTIuMjQ2MDU4OSAxMS43NTY3NTE3LDEyLjUxOTIwNTYgMTEuNzU2NzUxNywxMi44NjI5MDY5IEMxMS43NTY3NTE3LDEzLjE5OTU1MjcgMTEuNjMyODYxMiwxMy40NzY3MzEyIDExLjM4ODEwMiwxMy42ODYzNzg5IEMxMS4xNDczNzE3LDEzLjg5MTk5NDkgMTAuODI2MDYyMywxMy45OTY4MTg3IDEwLjQzNjI2MDYsMTMuOTk2ODE4NyBDMTAuMDk4ODM1NCwxMy45OTY4MTg3IDkuNzc3NTI1OTcsMTMuOTI5Mjg4IDkuNDgyNDA0NzgsMTMuNzk2MjQyMyBMOS40MzgwODYyNCwxMy43NzYwODM5IEw5LjQzODA4NjI0LDEzLjIzNjg0NTggTDkuNTM3ODAyOTYsMTMuMjY5MDk5MyBDMTAuMjA1NjAyOCwxMy40ODQ3OTQ2IDEwLjcwMzE3OTEsMTMuNDk1ODgxNyAxMC45NDQ5MTY2LDEzLjI5MDI2NTcgQzExLjA1ODczNDcsMTMuMTkzNTA1MiAxMS4xMTQxMzI4LDEzLjA1NTQxOTkgMTEuMTE0MTMyOCwxMi44Njc5NDY1IEMxMS4xMTQxMzI4LDEyLjY2MzMzODQgMTEuMDYxNzU2NCwxMi41MTUxNzM5IDEwLjk1NzAwMzUsMTIuNDI3NDg0OCBDMTAuNzY1NjI4LDEyLjI2NzIyNTIgMTAuMzYxNzI0OSwxMi4yNjMxOTM1IDkuNjY2NzI5NjIsMTIuMzM4Nzg3NyBMOS41ODMxMjg3NCwxMi4zNDc4NTkgTDkuNTgzMTI4NzQsMTEuOTQ0NjkwMyBMOS42ODA4MzA5NywxMC40MjQ3NDQ1IEwxMS41ODg1NDI3LDEwLjQyNDc0NDUgTDExLjU4ODU0MjcsMTAuOTczMDUzOCBMMTAuMjI3NzYyLDEwLjk3MzA1MzggTDEwLjE3NTM4NTYsMTEuNzg3NDU0NSBDMTAuMzE5NDIwOCwxMS43NjQyNzIzIDEwLjQ1MjM3NjUsMTEuNzUzMTg1MiAxMC41NzEyMzA3LDExLjc1MzE4NTIgQzEwLjkzNzg2NTksMTEuNzUzMTg1MiAxMS4yMjk5NjU0LDExLjg1Mjk2OTQgMTEuNDM5NDcxMiwxMi4wNDk1MTQyIE0xNC45OTQwMTk1LDE1LjQyMTAxMiBDMTMuNzk1NDA0NSwxNS42MzY3MDcyIDEyLjczODgxMDIsMTYuMTA4NDE0NiAxMS45OTk0OTY0LDE2LjUxNDYwNyBDMTEuMjYxMTg5OCwxNi4xMDg0MTQ2IDEwLjIwNDU5NTUsMTUuNjM2NzA3MiA5LjAwNDk3MzI1LDE1LjQyMTAxMiBDOC44MTM1OTc3MywxNS4zODY3NDI3IDcuMTMyNTE0OTUsMTUuMDYxMTg0IDcuMTMyNTE0OTUsMTQuMjQxNzQzNyBDNy4xMzI1MTQ5NSwxMy44NTg3MzM1IDcuMjU1Mzk4MTcsMTMuNjEwNzg0OCA3LjU4Mzc1ODI2LDEzLjA0ODM2NDUgQzcuOTU4NDUxMzcsMTIuNDAxMjc4OCA4LjQ3MjE0MzUzLDExLjUxNjMyMzYgOC40NzIxNDM1MywxMC4yNzA1MzI1IEM4LjQ3MjE0MzUzLDkuNDk5NDcyNDIgOC4yOTY4ODM4NSw4Ljc1NjYzNDE3IDcuOTUwMzkzNDUsOC4wNTcxMzY1NiBDOS4zMTMxODg1NCw4LjYxOTU1NjgzIDEwLjgxMjk2ODIsOC41MDM2NDU4NCAxMS45OTk0OTY0LDcuODA2MTY0MDcgQzEzLjE4NjAyNDYsOC41MDM2NDU4NCAxNC42ODQ3OTcsOC42MTk1NTY4MyAxNi4wNDk2MDY1LDguMDU3MTM2NTYgQzE1LjcwMzExNjEsOC43NTY2MzQxNyAxNS41Mjc4NTY1LDkuNDk5NDcyNDIgMTUuNTI3ODU2NSwxMC4yNzA1MzI1IEMxNS41Mjc4NTY1LDExLjUxNjMyMzYgMTYuMDQxNTQ4NiwxMi40MDEyNzg4IDE2LjQxNjI0MTcsMTMuMDQ4MzY0NSBDMTYuNzQzNTk0NiwxMy42MTA3ODQ4IDE2Ljg2NjQ3NzgsMTMuODU4NzMzNSAxNi44NjY0Nzc4LDE0LjI0MTc0MzcgQzE2Ljg2NjQ3NzgsMTUuMDYxMTg0IDE1LjE4NjQwMjMsMTUuMzg2NzQyNyAxNC45OTQwMTk1LDE1LjQyMTAxMiBNMTYuNTM1MDk2LDEwLjI3MDUzMjUgQzE2LjUzNTA5Niw5LjUxNDU5MTI0IDE2Ljc0ODYzMDgsOC43ODg4ODc2NiAxNy4xNjk2NTY5LDguMTE1NTk2MDEgQzE3LjI4NTQ4OTUsNy45MzIxNTQyOCAxNy4yNjkzNzM2LDcuNjk2MzAwNjEgMTcuMTMyMzg5LDcuNTI4OTg1NjIgTDE2LjczNTUzNjcsNy4wNDAxNDM2MyBDMTYuNTgxNDI5LDYuODQ5NjQ2NDQgMTYuMzEyNDk2MSw2Ljc5OTI1MDM2IDE2LjA5OTk2ODUsNi45MTYxNjkyNyBDMTQuODAyNjQ0LDcuNjMzODA5NDcgMTMuMzc1Mzg1Niw3LjU0ODEzNjEzIDEyLjI4NzU2NjksNi43OTQyMTA3NSBDMTIuMTE0MzIxNyw2LjY3NDI2ODA4IDExLjg4NTY3ODMsNi42NzQyNjgwOCAxMS43MTI0MzMxLDYuNzk0MjEwNzUgQzEwLjYyNDYxNDQsNy41NDgxMzYxMyA5LjE5NTM0MTUyLDcuNjMyODAxNTUgNy45MDAwMzE0OCw2LjkxNjE2OTI3IEM3LjY4ODUxMTE3LDYuNzk5MjUwMzYgNy40MTk1NzgyMiw2Ljg0OTY0NjQ0IDcuMjY0NDYzMzMsNy4wNDAxNDM2MyBMNi44Njc2MTA5NSw3LjUyODk4NTYyIEM2LjczMDYyNjM4LDcuNjk2MzAwNjEgNi43MTQ1MTA1NCw3LjkzMjE1NDI4IDYuODMwMzQzMDksOC4xMTU1OTYwMSBDNy4yNTEzNjkyMiw4Ljc4ODg4NzY2IDcuNDY0OTA0LDkuNTE0NTkxMjQgNy40NjQ5MDQsMTAuMjcwNTMyNSBDNy40NjQ5MDQsMTEuMjQ1MTkyNyA3LjA2NTAyOTksMTEuOTM0NjExMSA2LjcxMTQ4ODgzLDEyLjU0MTM3OTkgQzYuMzk3MjMwMDksMTMuMDgzNjQxNyA2LjEyNTI3NTQyLDEzLjU1MTMxNzQgNi4xMjUyNzU0MiwxNC4yNDE3NDM3IEM2LjEyNTI3NTQyLDE1LjI5ODA0NTYgNy4xMzU1MzY2NywxNi4xMDk0MjI1IDguODI2NjkxODUsMTYuNDEyODA2OSBDMTAuMDI2MzE0MSwxNi42Mjg1MDIxIDExLjA3Njg2NSwxNy4xMzg1MTA1IDExLjc0NjY3OTMsMTcuNTI4NTc2MiBDMTEuODI1MjQzOSwxNy41NzM5MzI2IDExLjkxMjg3MzgsMTcuNTk3MTE0OCAxMS45OTk0OTY0LDE3LjU5NzExNDggQzEyLjA4NzEyNjIsMTcuNTk3MTE0OCAxMi4xNzQ3NTYxLDE3LjU3MzkzMjYgMTIuMjUyMzEzNSwxNy41Mjg1NzYyIEMxMi45MjIxMjc4LDE3LjEzODUxMDUgMTMuOTcyNjc4NiwxNi42Mjg1MDIxIDE1LjE3MjMwMDksMTYuNDEyODA2OSBDMTYuODY0NDYzMywxNi4xMDk0MjI1IDE3Ljg3MzcxNzMsMTUuMjk4MDQ1NiAxNy44NzM3MTczLDE0LjI0MTc0MzcgQzE3Ljg3MzcxNzMsMTMuNTUxMzE3NCAxNy42MDI3Njk5LDEzLjA4MzY0MTcgMTcuMjg3NTAzOSwxMi41NDIzODc4IEMxNi45MzQ5NzAxLDExLjkzNDYxMTEgMTYuNTM1MDk2LDExLjI0NTE5MjcgMTYuNTM1MDk2LDEwLjI3MDUzMjUgTTE1LjU2ODE0NiwxNy4zNzMzNTYyIEMxMy45NTg1NzczLDE3LjY2MjYyOTcgMTIuNTg4NzMxNSwxOC40ODMwNzc5IDExLjk5OTQ5NjQsMTguODc5MTkxMSBDMTEuNDEwMjYxMywxOC40ODMwNzc5IDEwLjA0MTQyMjcsMTcuNjYyNjI5NyA4LjQzMTg1Mzk1LDE3LjM3MzM1NjIgQzcuNjI5MDg0MDQsMTcuMjI5MjIzNCA1LjAwNzIzOTUzLDE2LjU5MDIwMTEgNS4wMDcyMzk1MywxNC40MzUyNjQ3IEM1LjAwNzIzOTUzLDEzLjUyNjExOTMgNS4zNTY3NTE2NSwxMi45MjUzOTgxIDUuNzI1NDAxMzIsMTIuMjg4MzkxNiBDNi4wOTEwMjkyNywxMS42NTc0MzI2IDYuNDY5NzUxMzQsMTEuMDA1MzA3MyA2LjQ2OTc1MTM0LDEwLjA5NzE2OTkgQzYuNDY5NzUxMzQsOC44MzEyMjAzNyA1LjgxOTA3NDYsNy44OTU4NjkxIDUuMzg5OTkwNTYsNy40MTgxMTQyNCBDNS44MDE5NTE1Myw2LjkxNzE3NzE5IDYuNTUyMzQ0OTgsNS45OTk5Njg1IDcuMDMxNzkxLDUuMzkxMTgzODQgQzcuNzg5MjM1MTMsNi4wNDAyODUzNyA4LjY1MjQzOTQxLDYuMzkyMDUwMDIgOS41MDk2MDAyNSw2LjM5MjA1MDAyIEMxMC40NzA1MDY4LDYuMzkyMDUwMDIgMTEuMjc0MjgzOSw2LjAzMjIyMTk5IDExLjk5OTQ5NjQsNS4yNzAyMzMyNCBDMTIuNzI1NzE2MSw2LjAzMjIyMTk5IDEzLjUyOTQ5MzIsNi4zOTIwNTAwMiAxNC40OTAzOTk3LDYuMzkyMDUwMDIgQzE1LjM0NzU2MDYsNi4zOTIwNTAwMiAxNi4yMTA3NjQ5LDYuMDQwMjg1MzcgMTYuOTY4MjA5LDUuMzkxMTgzODQgQzE3LjQ0NzY1NSw1Ljk5OTk2ODUgMTguMTk4MDQ4NSw2LjkxNzE3NzE5IDE4LjYxMDAwOTQsNy40MTgxMTQyNCBDMTguMTgwOTI1NCw3Ljg5NTg2OTEgMTcuNTMwMjQ4Nyw4LjgzMTIyMDM3IDE3LjUzMDI0ODcsMTAuMDk3MTY5OSBDMTcuNTMwMjQ4NywxMS4wMDUzMDczIDE3LjkwODk3MDcsMTEuNjU3NDMyNiAxOC4yNzQ1OTg3LDEyLjI4ODM5MTYgQzE4LjY0MzI0ODMsMTIuOTI1Mzk4MSAxOC45OTI3NjA1LDEzLjUyNjExOTMgMTguOTkyNzYwNSwxNC40MzUyNjQ3IEMxOC45OTI3NjA1LDE2LjU5MDIwMTEgMTYuMzcwOTE2LDE3LjIyOTIyMzQgMTUuNTY4MTQ2LDE3LjM3MzM1NjIgTTE5LjE0NDg1MzYsMTEuNzgyNDE0OSBDMTguODE5NTE1MywxMS4yMTk5OTQ2IDE4LjUzNzQ4ODIsMTAuNzM0MTc2NCAxOC41Mzc0ODgyLDEwLjA5NzE2OTkgQzE4LjUzNzQ4ODIsOC43NDE1MTUzNSAxOS41OTgxMTE0LDcuODUyNTI4NDcgMTkuNjA3MTc2Niw3Ljg0NTQ3MzAxIEMxOS43MTE5Mjk1LDcuNzYwODA3NiAxOS43Nzg0MDczLDcuNjM3ODQxMTYgMTkuNzkxNTAxNCw3LjUwMzc4NzU4IEMxOS44MDQ1OTU1LDcuMzY5NzM0IDE5Ljc2NDMwNTksNy4yMzY2ODgzNSAxOS42Nzg2OTA2LDcuMTMyODcyNDIgQzE5LjY2MDU2MDMsNy4xMTA2OTgxNCAxNy44NDQ1MDc0LDQuOTA5Mzk3MjkgMTcuNDMyNTQ2NCw0LjM0Mjk0NTM0IEMxNy4zNDM5MDkzLDQuMjIwOTg2ODIgMTcuMjA1OTE3NSw0LjE0NTM5MjcgMTcuMDU1ODM4OCw0LjEzNjMyMTQgQzE2LjkxMzgxODEsNC4xMzAyNzM4NyAxNi43NTk3MTA0LDQuMTg1NzA5NTYgMTYuNjU2OTcyLDQuMjk0NTY1MSBDMTYuMDAwMjUxOCw0Ljk5NzA4NjQ4IDE1LjIzMDcyMDgsNS4zODQxMjgzOCAxNC40OTAzOTk3LDUuMzg0MTI4MzggQzEzLjY2NzQ4NSw1LjM4NDEyODM4IDEzLjA0MTk4OTMsNS4wMjYzMTYyIDEyLjM5OTM3MDUsNC4xODY3MTc0OCBDMTIuMjEwMDA5NCwzLjkzNzc2MDg0IDExLjc4ODk4MzMsMy45Mzc3NjA4NCAxMS42MDA2Mjk1LDQuMTg2NzE3NDggQzEwLjk1ODAxMDcsNS4wMjYzMTYyIDEwLjMzMjUxNSw1LjM4NDEyODM4IDkuNTA5NjAwMjUsNS4zODQxMjgzOCBDOC43NjgyNzE5NSw1LjM4NDEyODM4IDcuOTk5NzQ4MTksNC45OTcwODY0OCA3LjM0MjAyMDc3LDQuMjk0NTY1MSBDNy4yNDAyODk1OCw0LjE4NTcwOTU2IDcuMDk3MjYxNTcsNC4xMzEyODE3OSA2Ljk0NDE2MTE2LDQuMTM2MzIxNCBDNi43OTMwNzUyMyw0LjE0NTM5MjcgNi42NTYwOTA2NSw0LjIyMDk4NjgyIDYuNTY3NDUzNTcsNC4zNDI5NDUzNCBDNi4xNTU0OTI2LDQuOTA5Mzk3MjkgNC4zMzk0Mzk3Miw3LjExMDY5ODE0IDQuMzIwMzAyMTcsNy4xMzI4NzI0MiBDNC4yMzQ2ODY4MSw3LjIzNjY4ODM1IDQuMTk0Mzk3MjMsNy4zNjk3MzQgNC4yMDg0OTg1OCw3LjUwMzc4NzU4IEM0LjIyMTU5MjcsNy42Mzc4NDExNiA0LjI4ODA3MDUxLDcuNzYwODA3NiA0LjM5MjgyMzQyLDcuODQ1NDczMDEgQzQuNDAyODk1ODEsNy44NTM1MzYzOSA1LjQ2MjUxMTgsOC43MjYzOTY1MiA1LjQ2MjUxMTgsMTAuMDk3MTY5OSBDNS40NjI1MTE4LDEwLjczNDE3NjQgNS4xODA0ODQ3MywxMS4yMTk5OTQ2IDQuODU1MTQ2MzYsMTEuNzgyNDE0OSBDNC40NTMyNTc3OSwxMi40NzI4NDEyIDQsMTMuMjU0OTg4NCA0LDE0LjQzNTI2NDcgQzQsMTYuNDE2ODM4NiA1LjU5MDQzMTIyLDE3Ljg4NjM4ODMgOC4yNTQ1Nzk3OSwxOC4zNjYxNTkgQzEwLjExMzk0NCwxOC42OTk3ODExIDExLjY3ODE4NywxOS44ODQwODkgMTEuNjkzMjk1NiwxOS44OTYxODQxIEMxMS43ODM5NDcxLDE5Ljk2NTczMDcgMTEuODkxNzIxOCwyMCAxMS45OTk0OTY0LDIwIEMxMi4xMDgyNzgyLDIwIDEyLjIxNjA1MjksMTkuOTY1NzMwNyAxMi4zMDY3MDQ0LDE5Ljg5NjE4NDEgQzEyLjMyMjgyMDMsMTkuODg0MDg5IDEzLjg3Njk5MDksMTguNzAxNzk2OSAxNS43NDY0Mjc0LDE4LjM2NjE1OSBDMTguNDA5NTY4OCwxNy44ODYzODgzIDIwLDE2LjQxNjgzODYgMjAsMTQuNDM1MjY0NyBDMjAsMTMuMjU0OTg4NCAxOS41NDY3NDIyLDEyLjQ3Mjg0MTIgMTkuMTQ0ODUzNiwxMS43ODI0MTQ5Ii8+JiN4YTsgICAgPC9nPiYjeGE7PC9zdmc+;" vertex="1" parent="Z4amRD8m1zhhW-L_DsDk-35">
          <mxGeometry x="335.13278958576086" y="300.8571428571429" width="221.14186990236652" height="221.14186990236652" as="geometry" />
        </mxCell>
        <mxCell id="Z4amRD8m1zhhW-L_DsDk-6" value="" style="shape=image;verticalLabelPosition=bottom;labelBackgroundColor=default;verticalAlign=top;aspect=fixed;imageAspect=0;editableCssRules=.*;image=data:image/svg+xml,PHN2ZyB4bWxuczp4bGluaz0iaHR0cDovL3d3dy53My5vcmcvMTk5OS94bGluayIgeG1sbnM9Imh0dHA6Ly93d3cudzMub3JnLzIwMDAvc3ZnIiB2ZXJzaW9uPSIxLjEiIHZpZXdCb3g9Ii0wLjUgLTAuNSAyNSAyNSIgaGVpZ2h0PSIyNSIgd2lkdGg9IjI1Ij4mI3hhOyAgICAmI3hhOyAgICA8dGl0bGU+SWNvbi1BcmNoaXRlY3R1cmUvMTYvQXJjaF9BV1MtSWRlbnRpdHktYW5kLUFjY2Vzcy1NYW5hZ2VtZW50XzE2PC90aXRsZT4mI3hhOyAgICA8ZGVzYz5DcmVhdGVkIHdpdGggU2tldGNoLjwvZGVzYz4mI3hhOyAgICA8ZGVmcz4mI3hhOyAgICAgICAgPGxpbmVhckdyYWRpZW50IGlkPSJsaW5lYXJHcmFkaWVudC0xIiB5Mj0iMCUiIHgyPSIxMDAlIiB5MT0iMTAwJSIgeDE9IjAlIj4mI3hhOyAgICAgICAgICAgIDxzdG9wIG9mZnNldD0iMCUiIHN0b3AtY29sb3I9IiNCRDA4MTYiLz4mI3hhOyAgICAgICAgICAgIDxzdG9wIG9mZnNldD0iMTAwJSIgc3RvcC1jb2xvcj0iI0ZGNTI1MiIvPiYjeGE7ICAgICAgICA8L2xpbmVhckdyYWRpZW50PiYjeGE7ICAgIDwvZGVmcz4mI3hhOyAgICA8ZyBmaWxsLXJ1bGU9ImV2ZW5vZGQiIGZpbGw9Im5vbmUiIHN0cm9rZS13aWR0aD0iMSIgc3Ryb2tlPSJub25lIiBpZD0iSWNvbi1BcmNoaXRlY3R1cmUvMTYvQXJjaF9BV1MtSWRlbnRpdHktYW5kLUFjY2Vzcy1NYW5hZ2VtZW50XzE2Ij4mI3hhOyAgICAgICAgPGcgZmlsbD0idXJsKCNsaW5lYXJHcmFkaWVudC0xKSIgaWQ9Ikljb24tQXJjaGl0ZWN0dXJlLUJHLzE2L1NlY3VyaXR5LUlkZW50aXR5LUNvbXBsaWFuY2UiPiYjeGE7ICAgICAgICAgICAgPHJlY3QgaGVpZ2h0PSIyNCIgd2lkdGg9IjI0IiB5PSIwIiB4PSIwIiBpZD0iUmVjdGFuZ2xlIi8+JiN4YTsgICAgICAgIDwvZz4mI3hhOyAgICAgICAgPHBhdGggZmlsbD0iI0ZGRkZGRiIgaWQ9IkFXUy1JZGVudGl0eS1hbmQtQWNjZXNzLU1hbmFnZW1lbnRfSWNvbl8xNl9TcXVpZCIgZD0iTTUsMTggTDE5LDE4IEwxOSw3IEw1LDcgTDUsMTggWiBNMjAsNi41IEwyMCwxOC41IEMyMCwxOC43NzYgMTkuNzc2LDE5IDE5LjUsMTkgTDQuNSwxOSBDNC4yMjQsMTkgNCwxOC43NzYgNCwxOC41IEw0LDYuNSBDNCw2LjIyNCA0LjIyNCw2IDQuNSw2IEwxOS41LDYgQzE5Ljc3Niw2IDIwLDYuMjI0IDIwLDYuNSBMMjAsNi41IFogTTcsMTQuOTk4IEwxMC45OTgsMTUgTDExLDEyLjAwMiBMNy4wMDIsMTIgTDcsMTQuOTk4IFogTTgsMTEgTDEwLDExLjAwMSBMMTAsOS44NTQgQzEwLDkuMjY0IDkuNjQ1LDguOTM5IDksOC45MzkgTDguOTk5LDguOTM5IEM4LjY3LDguOTM5IDguNDA3LDkuMDI3IDguMjM5LDkuMTkzIEM4LjA0Miw5LjM4OCA4LjAwMSw5LjY1OSA4LjAwMSw5Ljg1MiBMOCwxMSBaIE02LjE0NiwxNS44NTIgQzYuMDUzLDE1Ljc1OCA2LDE1LjYzIDYsMTUuNDk4IEw2LjAwMiwxMS41IEM2LjAwMiwxMS4yMjQgNi4yMjYsMTEgNi41MDIsMTEgTDcsMTEgTDcuMDAxLDkuODUyIEM3LjAwMSw5LjMwMSA3LjE4Nyw4LjgyNyA3LjUzNyw4LjQ4MSBDNy44OTYsOC4xMjcgOC40MDEsNy45MzkgOC45OTksNy45MzkgTDksNy45MzkgQzEwLjE5Niw3LjkzOSAxMSw4LjcwOCAxMSw5Ljg1NCBMMTEsMTEuMDAyIEwxMS41LDExLjAwMiBDMTEuNjMzLDExLjAwMiAxMS43NiwxMS4wNTUgMTEuODU0LDExLjE0OCBDMTEuOTQ3LDExLjI0MiAxMiwxMS4zNyAxMiwxMS41MDIgTDExLjk5OCwxNS41IEMxMS45OTgsMTUuNzc2IDExLjc3NCwxNiAxMS40OTgsMTYgTDYuNSwxNS45OTggQzYuMzY3LDE1Ljk5OCA2LjI0LDE1Ljk0NSA2LjE0NiwxNS44NTIgTDYuMTQ2LDE1Ljg1MiBaIE0xNCwxNCBMMTYsMTQgTDE2LDEzIEwxNCwxMyBMMTQsMTQgWiBNMTQsMTEgTDE4LDExIEwxOCwxMCBMMTQsMTAgTDE0LDExIFoiLz4mI3hhOyAgICA8L2c+JiN4YTs8L3N2Zz4=;" vertex="1" parent="Z4amRD8m1zhhW-L_DsDk-35">
          <mxGeometry x="592.2744987745591" y="43.714285714285715" width="221.14186990236652" height="221.14186990236652" as="geometry" />
        </mxCell>
        <mxCell id="Z4amRD8m1zhhW-L_DsDk-7" value="" style="shape=image;verticalLabelPosition=bottom;labelBackgroundColor=default;verticalAlign=top;aspect=fixed;imageAspect=0;editableCssRules=.*;image=data:image/svg+xml,PHN2ZyB4bWxuczp4bGluaz0iaHR0cDovL3d3dy53My5vcmcvMTk5OS94bGluayIgeG1sbnM9Imh0dHA6Ly93d3cudzMub3JnLzIwMDAvc3ZnIiB2ZXJzaW9uPSIxLjEiIHZpZXdCb3g9Ii0wLjUgLTAuNSAyNSAyNSIgaGVpZ2h0PSIyNSIgd2lkdGg9IjI1Ij4mI3hhOyAgICAmI3hhOyAgICA8dGl0bGU+SWNvbi1BcmNoaXRlY3R1cmUvMTYvQXJjaF9BV1MtTGFtYmRhXzE2PC90aXRsZT4mI3hhOyAgICA8ZGVzYz5DcmVhdGVkIHdpdGggU2tldGNoLjwvZGVzYz4mI3hhOyAgICA8ZGVmcz4mI3hhOyAgICAgICAgPGxpbmVhckdyYWRpZW50IGlkPSJsaW5lYXJHcmFkaWVudC0xIiB5Mj0iMCUiIHgyPSIxMDAlIiB5MT0iMTAwJSIgeDE9IjAlIj4mI3hhOyAgICAgICAgICAgIDxzdG9wIG9mZnNldD0iMCUiIHN0b3AtY29sb3I9IiNDODUxMUIiLz4mI3hhOyAgICAgICAgICAgIDxzdG9wIG9mZnNldD0iMTAwJSIgc3RvcC1jb2xvcj0iI0ZGOTkwMCIvPiYjeGE7ICAgICAgICA8L2xpbmVhckdyYWRpZW50PiYjeGE7ICAgIDwvZGVmcz4mI3hhOyAgICA8ZyBmaWxsLXJ1bGU9ImV2ZW5vZGQiIGZpbGw9Im5vbmUiIHN0cm9rZS13aWR0aD0iMSIgc3Ryb2tlPSJub25lIiBpZD0iSWNvbi1BcmNoaXRlY3R1cmUvMTYvQXJjaF9BV1MtTGFtYmRhXzE2Ij4mI3hhOyAgICAgICAgPGcgZmlsbD0idXJsKCNsaW5lYXJHcmFkaWVudC0xKSIgaWQ9Ikljb24tQXJjaGl0ZWN0dXJlLUJHLzE2L0NvbXB1dGUiPiYjeGE7ICAgICAgICAgICAgPHJlY3QgaGVpZ2h0PSIyNCIgd2lkdGg9IjI0IiB5PSIwIiB4PSIwIiBpZD0iUmVjdGFuZ2xlIi8+JiN4YTsgICAgICAgIDwvZz4mI3hhOyAgICAgICAgPHBhdGggZmlsbD0iI0ZGRkZGRiIgaWQ9IkFXUy1MYW1iZGFfSWNvbl8xNl9TcXVpZCIgZD0iTTguMzU0NzE2OTgsMTkgTDUuMzMzNzczNTQsMTkgTDguODc2Nzc4OTMsMTEuODA2IEwxMC4zODkzMTQxLDE0LjgzMiBMOC4zNTQ3MTY5OCwxOSBaIE05LjMzNjkzNjMsMTAuNDM1IEM5LjI1MDI2OTg5LDEwLjI2MiA5LjA2OTcxNDg3LDEwLjE1MyA4Ljg3MjY1MTk2LDEwLjE1MyBMOC44NzA1ODg0NywxMC4xNTMgQzguNjczNTI1NTYsMTAuMTUzIDguNDkyOTcwNTQsMTAuMjY0IDguNDA3MzM1ODgsMTAuNDM3IEw0LjA1MDI4NTI3LDE5LjI4NSBDMy45NzM5MzYyOSwxOS40MzkgMy45ODUyODU0NiwxOS42MjIgNC4wNzkxNzQwNywxOS43NjcgQzQuMTc0MDk0NDMsMTkuOTEyIDQuMzM4MTQxNTYsMjAgNC41MTU2MDEzNSwyMCBMOC42ODA3NDc3NywyMCBDOC44ODA5MDU5LDIwIDkuMDYyNDkyNjcsMTkuODg5IDkuMTQ4MTI3MzQsMTkuNzE0IEwxMS40MjgyNzkzLDE1LjA0MyBDMTEuNDk0MzEwOSwxNC45MDcgMTEuNDkzMjc5MSwxNC43NDggMTEuNDI2MjE1OCwxNC42MTEgTDkuMzM2OTM2MywxMC40MzUgWiBNMTguOTY4MjU3LDE5IEwxNS43OTg3NDI2LDE5IEwxMC4xNzQ3MTE2LDcuMjg5IEMxMC4wOTAxMDg3LDcuMTEzIDkuOTA3NDkwMTcsNyA5LjcwNzMzMjAzLDcgTDcuNjE1OTg5MDEsNyBMNy42MTgwNTI1LDUgTDExLjc4ODM1NzYsNSBMMTcuMzg2NTk1LDE2LjcxIEMxNy40NzExOTgsMTYuODg3IDE3LjY1NDg0ODIsMTcgMTcuODU1MDA2MywxNyBMMTguOTY4MjU3LDE3IEwxOC45NjgyNTcsMTkgWiBNMTkuNDg0MTI4NSwxNiBMMTguMTg0MTMyNCwxNiBMMTIuNTg2OTI2Nyw0LjI5IEMxMi41MDIzMjM4LDQuMTEzIDEyLjMxODY3MzUsNCAxMi4xMTc0ODM2LDQgTDcuMTAzMjEyNzUsNCBDNi44MTg0NTE2OSw0IDYuNTg3MzQxMjYsNC4yMjQgNi41ODczNDEyNiw0LjUgTDYuNTg0MjQ2MDMsNy41IEM2LjU4NDI0NjAzLDcuNjMyIDYuNjM4OTI4NDEsNy43NTkgNi43MzU5MTIyNSw3Ljg1NCBDNi44MzE4NjQzNCw3Ljk0NyA2Ljk2Mjg5NTcsOCA3LjEwMDExNzUyLDggTDkuMzc4MjA2MDIsOCBMMTUuMDAyMjM3LDE5LjcxMSBDMTUuMDg2ODM5OSwxOS44ODcgMTUuMjY5NDU4NCwyMCAxNS40Njk2MTY2LDIwIEwxOS40ODQxMjg1LDIwIEMxOS43Njg4ODk2LDIwIDIwLDE5Ljc3NiAyMCwxOS41IEwyMCwxNi41IEMyMCwxNi4yMjQgMTkuNzY4ODg5NiwxNiAxOS40ODQxMjg1LDE2IEwxOS40ODQxMjg1LDE2IFoiLz4mI3hhOyAgICA8L2c+JiN4YTs8L3N2Zz4=;" vertex="1" parent="Z4amRD8m1zhhW-L_DsDk-35">
          <mxGeometry x="1620.8413355297523" y="300.8571428571429" width="221.14186990236652" height="221.14186990236652" as="geometry" />
        </mxCell>
        <mxCell id="Z4amRD8m1zhhW-L_DsDk-8" value="" style="shape=image;verticalLabelPosition=bottom;labelBackgroundColor=default;verticalAlign=top;aspect=fixed;imageAspect=0;editableCssRules=.*;image=data:image/svg+xml,PHN2ZyB4bWxuczp4bGluaz0iaHR0cDovL3d3dy53My5vcmcvMTk5OS94bGluayIgeG1sbnM9Imh0dHA6Ly93d3cudzMub3JnLzIwMDAvc3ZnIiB2ZXJzaW9uPSIxLjEiIHZpZXdCb3g9Ii0wLjUgLTAuNSAyNSAyNSIgaGVpZ2h0PSIyNSIgd2lkdGg9IjI1Ij4mI3hhOyAgICAmI3hhOyAgICA8dGl0bGU+SWNvbi1BcmNoaXRlY3R1cmUvMTYvQXJjaF9BbWF6b24tUzMtU3RhbmRhcmRfMTY8L3RpdGxlPiYjeGE7ICAgIDxkZXNjPkNyZWF0ZWQgd2l0aCBTa2V0Y2guPC9kZXNjPiYjeGE7ICAgIDxkZWZzPiYjeGE7ICAgICAgICA8bGluZWFyR3JhZGllbnQgaWQ9ImxpbmVhckdyYWRpZW50LTEiIHkyPSIwJSIgeDI9IjEwMCUiIHkxPSIxMDAlIiB4MT0iMCUiPiYjeGE7ICAgICAgICAgICAgPHN0b3Agb2Zmc2V0PSIwJSIgc3RvcC1jb2xvcj0iIzFCNjYwRiIvPiYjeGE7ICAgICAgICAgICAgPHN0b3Agb2Zmc2V0PSIxMDAlIiBzdG9wLWNvbG9yPSIjNkNBRTNFIi8+JiN4YTsgICAgICAgIDwvbGluZWFyR3JhZGllbnQ+JiN4YTsgICAgPC9kZWZzPiYjeGE7ICAgIDxnIGZpbGwtcnVsZT0iZXZlbm9kZCIgZmlsbD0ibm9uZSIgc3Ryb2tlLXdpZHRoPSIxIiBzdHJva2U9Im5vbmUiIGlkPSJJY29uLUFyY2hpdGVjdHVyZS8xNi9BcmNoX0FtYXpvbi1TMy1TdGFuZGFyZF8xNiI+JiN4YTsgICAgICAgIDxnIGZpbGw9InVybCgjbGluZWFyR3JhZGllbnQtMSkiIGlkPSJJY29uLUFyY2hpdGVjdHVyZS1CRy8xNi9TdG9yYWdlIj4mI3hhOyAgICAgICAgICAgIDxyZWN0IGhlaWdodD0iMjQiIHdpZHRoPSIyNCIgeT0iMCIgeD0iMCIgaWQ9IlJlY3RhbmdsZSIvPiYjeGE7ICAgICAgICA8L2c+JiN4YTsgICAgICAgIDxwYXRoIGZpbGw9IiNGRkZGRkYiIGlkPSJBbWF6b24tUzMtU3RhbmRhcmQtSWNvbl8xNl9TcXVpZCIgZD0iTTE4LjE1ODk0OTUsMTMuMzUzNTcxOSBMMTguMTg2MzY1NywxMy4xODc4OTU2IEMxOC4zNDg4MzIyLDEzLjI4MDkwNjkgMTguNDgxODUxNiwxMy4zNjQyMjk0IDE4LjU4NjQzOTMsMTMuNDMzOTg3OSBDMTguNDY3NjM1OCwxMy40MTU1Nzk0IDE4LjMyMDQwMDYsMTMuMzg3NDgyMiAxOC4xNTg5NDk1LDEzLjM1MzU3MTkgTDE4LjE1ODk0OTUsMTMuMzUzNTcxOSBaIE0xMS45MjAyMzg2LDExLjc5NTYzMzYgQzExLjkyMDIzODYsMTIuMDYyMDcyMSAxMS42OTI3ODU1LDEyLjI4MDA2NzIgMTEuNDEyNTMxLDEyLjI4MDA2NzIgQzExLjEzMzI5MTgsMTIuMjgwMDY3MiAxMC45MDQ4MjM0LDEyLjA2MjA3MjEgMTAuOTA0ODIzNCwxMS43OTU2MzM2IEMxMC45MDQ4MjM0LDExLjUyODIyNjMgMTEuMTMzMjkxOCwxMS4zMTEyMDAxIDExLjQxMjUzMSwxMS4zMTEyMDAxIEMxMS42OTI3ODU1LDExLjMxMTIwMDEgMTEuOTIwMjM4NiwxMS41MjgyMjYzIDExLjkyMDIzODYsMTEuNzk1NjMzNiBMMTEuOTIwMjM4NiwxMS43OTU2MzM2IFogTTE2LjMzODMxMDEsMTguMTY2OTAzNSBDMTYuMjUxOTk5OCwxOC4yMTQzNzggMTYuMDY0MTQ4LDE4LjI4MTIyOTggMTUuOTA2NzU4NiwxOC4zMzgzOTMgTDE1LjY0MTczNTMsMTguNDM1Mjc5NyBDMTUuMzcwNjE5NCwxOC41MzcwMTA3IDE1LjA0ODczMjgsMTguNjI5MDUzMSAxNC42ODExNTI1LDE4LjcwODUwMDIgQzEzLjc2MTE4NjMsMTguOTEwOTkzNCAxMi40ODc4NTU2LDE5LjAzMTEzMjkgMTEuMjc3NDgwNywxOS4wMzExMzI5IEM3LjQ3ODgxMjQ3LDE5LjAzMTEzMjkgNi41MTYxOTg4NiwxOC40MDMzMDcxIDYuNDgxNjc0NzUsMTguMTk4ODc2MSBMNS4yMTAzNzQ5Miw4LjgzNDc3NTg3IEM2LjYyNjg3OTEyLDkuNTI5NDUzNTYgOS4wNzUwNDUxNiw5Ljg1Nzg5OTUgMTEuNDEyNTMxLDkuODU3ODk5NSBDMTMuNTExMzk0Miw5Ljg1Nzg5OTUgMTYuMjk1NjYyNiw5LjU2MDQ1NzMxIDE3Ljg4Mzc3Miw4LjgxOTI3NCBMMTcuMTc2MDI3NiwxMy4xMDA2OTc2IEMxNS42OTI1MDYsMTIuNjY1Njc2MyAxMy45MjM2NTI3LDExLjg4MTg2MjggMTIuODcyNjk4LDExLjQwMjI3MzYgQzEyLjY5MDkzODcsMTAuNzkxODg3NCAxMi4xMDkxMDU4LDEwLjM0MjMzMyAxMS40MTI1MzEsMTAuMzQyMzMzIEMxMC41NzI3ODI2LDEwLjM0MjMzMyA5Ljg4OTQwODE1LDEwLjk5MzQxMTcgOS44ODk0MDgxNSwxMS43OTU2MzM2IEM5Ljg4OTQwODE1LDEyLjU5Njg4NjcgMTAuNTcyNzgyNiwxMy4yNDg5MzQyIDExLjQxMjUzMSwxMy4yNDg5MzQyIEMxMi4wMTI2NDEzLDEzLjI0ODkzNDIgMTIuNTI3NDU2OCwxMi45MTI3Mzc0IDEyLjc3NjIzMzYsMTIuNDMxMjEwNCBDMTMuOTA2MzkwNywxMi45NDA4MzQ1IDE1LjU4NjkwMjgsMTMuNjYzNjA5NCAxNy4wMTU1OTIsMTQuMDY3NjI2OSBMMTYuMzM4MzEwMSwxOC4xNjY5MDM1IFogTTExLjQxMjUzMSw1Ljk2ODg2NzA3IEMxNS43NDQyOTIyLDUuOTY4ODY3MDcgMTguMDg3ODcwNSw2Ljk5MTk5MDcgMTguMTE1Mjg2Nyw3LjQyMDIyOTk0IEwxOC4xMTEyMjUsNy40NDM0ODI3NSBDMTguMDYyNDg1MSw3Ljg3NTU5NzQ3IDE1LjcyNDk5OTMsOC44ODkwMzI0MiAxMS40MTI1MzEsOC44ODkwMzI0MiBDNy4zMDQxNjEwNiw4Ljg4OTAzMjQyIDUuMDU0MDAwOTgsNy45Mzk1NDI2OSA1LjAyMTUwNzY5LDcuNDQwNTc2MTUgTDUuMDE5NDc2ODYsNy40MjExOTg4MSBDNS4wMzc3NTQzMyw2LjkyNDE3IDcuMjkwOTYwNjYsNS45Njg4NjcwNyAxMS40MTI1MzEsNS45Njg4NjcwNyBMMTEuNDEyNTMxLDUuOTY4ODY3MDcgWiBNMTguMzU2OTU1NSwxMi4xNjA4OTY1IEwxOS4xMjk2ODY1LDcuNTA0NTIxMzggTDE5LjEyOTY4NjUsNy41MDM1NTI1MSBDMTkuMTMxNzE3Myw3LjQ3ODM2MTk3IDE5LjEzNTc3OSw3LjQ1NTEwOTE2IDE5LjEzNTc3OSw3LjQyODk0OTc1IEMxOS4xMzU3NzksNS42NDYyMzQzNCAxNC41MTc2NzA2LDUgMTEuNDEyNTMxLDUgQzcuODQyMzMxMTEsNSA0LDUuNzYwNTYwNjUgNCw3LjQyODk0OTc1IEM0LDcuNDUwMjY0ODIgNC4wMDMwNDYyNSw3LjQ3MDYxMTAzIDQuMDA0MDYxNjYsNy40OTA5NTcyNCBMNS40Nzc0MjkxMSwxOC4zMzkzNjE4IEM1LjU0NzQ5Mjc2LDE4Ljc1MDE2MTUgNS43NjA3Mjk5NSwyMCAxMS4yNzc0ODA3LDIwIEMxMi41NTk5NTAxLDIwIDEzLjkxNzU2MDIsMTkuODcxMTQwNyAxNC45MDg2MDU1LDE5LjY1MzE0NTYgQzE1LjMyMzkxMDMsMTkuNTYyMDcyMSAxNS42OTU1NTIzLDE5LjQ1NTQ5NjcgMTYuMDEzMzc3MiwxOS4zMzYzMjYxIEwxNi4yNjYyMTU2LDE5LjI0NDI4MzcgQzE2Ljc5MzIxNjEsMTkuMDU0Mzg1NyAxNy4zMzc0Nzg2LDE4Ljg1ODY3NDYgMTcuMzMyNDAxNiwxOC4zMzc0MjQxIEwxOC4wMDA1NDQ4LDE0LjMxMTc4MTQgQzE4LjQ1NDQzNTQsMTQuNDA1NzYxNSAxOC44MDE3MDc0LDE0LjQ0OTM2MDUgMTkuMDUyNTE0OSwxNC40NDkzNjA1IEMxOS41MjE2MzY3LDE0LjQ0OTM2MDUgMTkuNzAwMzQ5OCwxNC4zMTg1NjM1IDE5LjgyNDIzMDUsMTQuMTc4MDc3OCBDMTkuOTcyNDgxMSwxNC4wMDk0OTQ5IDIwLjAyOTM0NDMsMTMuNzk3MzEzIDE5Ljk4NTY4MTUsMTMuNTgwMjg2OCBDMTkuODk3MzQwNCwxMy4xNDgxNzIxIDE5LjQyODIxODUsMTIuNzM1NDM0NyAxOC4zNTY5NTU1LDEyLjE2MDg5NjUgTDE4LjM1Njk1NTUsMTIuMTYwODk2NSBaIi8+JiN4YTsgICAgPC9nPiYjeGE7PC9zdmc+;" vertex="1" parent="Z4amRD8m1zhhW-L_DsDk-35">
          <mxGeometry x="1620.8413355297523" y="558" width="221.14186990236652" height="221.14186990236652" as="geometry" />
        </mxCell>
        <mxCell id="Z4amRD8m1zhhW-L_DsDk-9" value="" style="shape=image;verticalLabelPosition=bottom;labelBackgroundColor=default;verticalAlign=top;aspect=fixed;imageAspect=0;editableCssRules=.*;image=data:image/svg+xml,PHN2ZyB4bWxuczp4bGluaz0iaHR0cDovL3d3dy53My5vcmcvMTk5OS94bGluayIgeG1sbnM9Imh0dHA6Ly93d3cudzMub3JnLzIwMDAvc3ZnIiB2ZXJzaW9uPSIxLjEiIHZpZXdCb3g9Ii0wLjUgLTAuNSAyNSAyNSIgaGVpZ2h0PSIyNSIgd2lkdGg9IjI1Ij4mI3hhOyAgICAmI3hhOyAgICA8dGl0bGU+SWNvbi1BcmNoaXRlY3R1cmUvMTYvQXJjaF9BbWF6b24tQ2xvdWRGcm9udF8xNjwvdGl0bGU+JiN4YTsgICAgPGRlc2M+Q3JlYXRlZCB3aXRoIFNrZXRjaC48L2Rlc2M+JiN4YTsgICAgPGRlZnM+JiN4YTsgICAgICAgIDxsaW5lYXJHcmFkaWVudCBpZD0ibGluZWFyR3JhZGllbnQtMSIgeTI9IjAlIiB4Mj0iMTAwJSIgeTE9IjEwMCUiIHgxPSIwJSI+JiN4YTsgICAgICAgICAgICA8c3RvcCBvZmZzZXQ9IjAlIiBzdG9wLWNvbG9yPSIjNEQyN0E4Ii8+JiN4YTsgICAgICAgICAgICA8c3RvcCBvZmZzZXQ9IjEwMCUiIHN0b3AtY29sb3I9IiNBMTY2RkYiLz4mI3hhOyAgICAgICAgPC9saW5lYXJHcmFkaWVudD4mI3hhOyAgICA8L2RlZnM+JiN4YTsgICAgPGcgZmlsbC1ydWxlPSJldmVub2RkIiBmaWxsPSJub25lIiBzdHJva2Utd2lkdGg9IjEiIHN0cm9rZT0ibm9uZSIgaWQ9Ikljb24tQXJjaGl0ZWN0dXJlLzE2L0FyY2hfQW1hem9uLUNsb3VkRnJvbnRfMTYiPiYjeGE7ICAgICAgICA8ZyBmaWxsPSJ1cmwoI2xpbmVhckdyYWRpZW50LTEpIiBpZD0iSWNvbi1BcmNoaXRlY3R1cmUtQkcvMTYvTmV0d29ya2luZy1Db250ZW50LURlbGl2ZXJ5Ij4mI3hhOyAgICAgICAgICAgIDxyZWN0IGhlaWdodD0iMjQiIHdpZHRoPSIyNCIgeT0iMCIgeD0iMCIgaWQ9IlJlY3RhbmdsZSIvPiYjeGE7ICAgICAgICA8L2c+JiN4YTsgICAgICAgIDxwYXRoIGZpbGw9IiNGRkZGRkYiIGlkPSJBbWF6b24tQ2xvdWRGcm9udF9JY29uXzE2X1NxdWlkIiBkPSJNMTYsMTUuNDk4MDczNyBDMTYsMTUuMjIxOTU1NiAxNS43NzUsMTQuOTk3ODU5NyAxNS41LDE0Ljk5Nzg1OTcgQzE1LjIyNSwxNC45OTc4NTk3IDE1LDE1LjIyMTk1NTYgMTUsMTUuNDk4MDczNyBDMTUsMTUuNzc0MTkxOSAxNS4yMjUsMTUuOTk4Mjg3NyAxNS41LDE1Ljk5ODI4NzcgQzE1Ljc3NSwxNS45OTgyODc3IDE2LDE1Ljc3NDE5MTkgMTYsMTUuNDk4MDczNyBNMTcsMTUuNDk4MDczNyBDMTcsMTYuMzI1NDI3NyAxNi4zMjcsMTYuOTk4NzE1OCAxNS41LDE2Ljk5ODcxNTggQzE0LjY3MywxNi45OTg3MTU4IDE0LDE2LjMyNTQyNzcgMTQsMTUuNDk4MDczNyBDMTQsMTQuNjcwNzE5NyAxNC42NzMsMTMuOTk3NDMxNiAxNS41LDEzLjk5NzQzMTYgQzE2LjMyNywxMy45OTc0MzE2IDE3LDE0LjY3MDcxOTcgMTcsMTUuNDk4MDczNyBNOSwxMS40OTYzNjE0IEM5LDExLjIyMDI0MzMgOC43NzUsMTAuOTk2MTQ3NCA4LjUsMTAuOTk2MTQ3NCBDOC4yMjUsMTAuOTk2MTQ3NCA4LDExLjIyMDI0MzMgOCwxMS40OTYzNjE0IEM4LDExLjc3MjQ3OTYgOC4yMjUsMTEuOTk2NTc1NSA4LjUsMTEuOTk2NTc1NSBDOC43NzUsMTEuOTk2NTc1NSA5LDExLjc3MjQ3OTYgOSwxMS40OTYzNjE0IE0xMCwxMS40OTYzNjE0IEMxMCwxMi4zMjM3MTU1IDkuMzI3LDEyLjk5NzAwMzUgOC41LDEyLjk5NzAwMzUgQzcuNjczLDEyLjk5NzAwMzUgNywxMi4zMjM3MTU1IDcsMTEuNDk2MzYxNCBDNywxMC42NjkwMDc0IDcuNjczLDkuOTk1NzE5MzQgOC41LDkuOTk1NzE5MzQgQzkuMzI3LDkuOTk1NzE5MzQgMTAsMTAuNjY5MDA3NCAxMCwxMS40OTYzNjE0IE0xMiw3LjQ5NDY0OTE4IEMxMiw3Ljc3MDc2NzMzIDEyLjIyNSw3Ljk5NDg2MzIxIDEyLjUsNy45OTQ4NjMyMSBDMTIuNzc1LDcuOTk0ODYzMjEgMTMsNy43NzA3NjczMyAxMyw3LjQ5NDY0OTE4IEMxMyw3LjIxODUzMTAzIDEyLjc3NSw2Ljk5NDQzNTE1IDEyLjUsNi45OTQ0MzUxNSBDMTIuMjI1LDYuOTk0NDM1MTUgMTIsNy4yMTg1MzEwMyAxMiw3LjQ5NDY0OTE4IE0xMSw3LjQ5NDY0OTE4IEMxMSw2LjY2NzI5NTE3IDExLjY3Myw1Ljk5NDAwNzA4IDEyLjUsNS45OTQwMDcwOCBDMTMuMzI3LDUuOTk0MDA3MDggMTQsNi42NjcyOTUxNyAxNCw3LjQ5NDY0OTE4IEMxNCw4LjMyMjAwMzE5IDEzLjMyNyw4Ljk5NTI5MTI4IDEyLjUsOC45OTUyOTEyOCBDMTEuNjczLDguOTk1MjkxMjggMTEsOC4zMjIwMDMxOSAxMSw3LjQ5NDY0OTE4IE0xOSwxMS45OTY1NzU1IEMxOSw5LjczOTYwOTc2IDE3LjkwMyw3LjYzOTcxMTI1IDE2LjEwMSw2LjMzMjE1MTc3IEMxNS45MTcsNi4yNzMxMjY1MSAxNS40MDcsNi40MjMxOTA3MiAxNC41NjYsNi43ODQzNDUyNSBDMTQuNDE1LDYuODQ4MzcyNjUgMTQuMjg3LDYuOTAyMzk1NzYgMTQuMTk3LDYuOTM1NDA5ODkgTDEzLjg1Nyw1Ljk5NDAwNzA4IEMxMy45MzUsNS45NjY5OTU1MiAxNC4wNDQsNS45MTg5NzQ5OCAxNC4xNzMsNS44NjM5NTE0MyBDMTQuMzk0LDUuNzY5OTExMTkgMTQuNjExLDUuNjc5ODcyNjcgMTQuODIzLDUuNTk5ODM4NDIgQzEzLjkzOSw1LjIwODY3MTA1IDEyLjk3OSw0Ljk5MzU3OTAxIDEyLDQuOTkzNTc5MDEgQzExLjMxMyw0Ljk5MzU3OTAxIDEwLjY0Miw1LjA5MTYyMDk3IDEwLjAwMiw1LjI4NDcwMzU4IEM5Ljk1Niw1LjI5NzcwOTE1IDkuOTE1LDUuMzIwNzE4OTkgOS44Nyw1LjMzNDcyNDk5IEMxMC4yMiw1LjQ2NTc4MTA2IDEwLjYzNyw1LjYzNDg1MzQgMTEuMTMyLDUuODU2OTQ4NDQgTDEwLjcyNCw2Ljc2OTMzODgzIEM5LjUxOCw2LjIyODEwNzI1IDguODI4LDYuMDI3MDIxMjEgOC41MDcsNS45NTE5ODkxIEM2LjY5Miw3LjAwNDQzOTQzIDUuNDI5LDguODI3MjE5MzYgNS4xMDQsMTAuOTI5MTE4NyBDNS40MjYsMTAuODg3MTAwNyA1Ljc1MSwxMC44NjIwOSA2LjA5NywxMC44NTMwODYyIEw2LjEyMiwxMS44NTM1MTQzIEM1LjcyNSwxMS44NjM1MTg1IDUuMzYzLDExLjkwNTUzNjUgNS4wMDEsMTEuOTY0NTYxOCBDNS4wMDEsMTEuOTc0NTY2MSA1LDExLjk4NTU3MDggNSwxMS45OTY1NzU1IEM1LDE0LjI5NzU2IDYuMTI1LDE2LjQxNzQ2NzEgNy45NzYsMTcuNzE4MDIzNiBDNy43NzUsMTcuMDE2NzIzNSA3LjYwNCwxNi4xNzczNjQ0IDcuNjA0LDE1LjMzMTAwMjIgQzcuNjA0LDE1LjE3NDkzNTQgNy41OTksMTUuMDA5ODY0OCA3LjU5NCwxNC44NDI3OTMzIEM3LjU3OCwxNC4zNjU1ODkxIDcuNTYyLDEzLjg3MjM3ODEgNy42NSwxMy40MjMxODU5IEw4LjYzMSwxMy42MTYyNjg1IEM4LjU2NCwxMy45NTM0MTI4IDguNTc5LDE0LjM4ODU5OSA4LjU5MywxNC44MDk3NzkyIEM4LjU5OSwxNC45ODg4NTU4IDguNjA0LDE1LjE2MzkzMDcgOC42MDQsMTUuMzMxMDAyMiBDOC42MDQsMTYuMjI5Mzg2NiA4Ljg1MywxNy4zNTQ4NjgyIDkuMjc3LDE4LjQ0MzMzMzkgQzEwLjUwNCwxOC45NTk1NTQ4IDExLjg1OSwxOS4xMDg2MTg2IDEzLjE1NCwxOC44OTM1MjY2IEMxMy4yNjYsMTguNjg3NDM4NCAxMy40MDIsMTguNDc4MzQ4OSAxMy41NDYsMTguMjY2MjU4MiBDMTMuNzYsMTcuOTUwMTIyOSAxMy45ODEsMTcuNjIzOTgzMyAxNC4wNjcsMTcuMzI3ODU2NiBMMTUuMDI4LDE3LjYwNjk3NjEgQzE0LjkzOCwxNy45MTkxMDk2IDE0Ljc3NCwxOC4yMDEyMzAzIDE0LjYwMSwxOC40NzQzNDcyIEMxNS4xOTksMTguMjM1MjQ0OSAxNS43NjgsMTcuOTM0MTE2IDE2LjI3OSwxNy41MzY5NDYxIEMxOC4wMDksMTYuMTk4MzczNCAxOSwxNC4xNzg1MDkxIDE5LDExLjk5NjU3NTUgTTIwLDExLjk5NjU3NTUgQzIwLDE0LjQ5MDY0MjYgMTguODY3LDE2Ljc5ODYzMDIgMTYuODkyLDE4LjMyNzI4NDMgQzE2LjE5MywxOC44Njk1MTYzIDE1LjQxNiwxOS4yODc2OTUyIDE0LjU4MiwxOS41Njg4MTU1IEMxMy43NiwxOS44NTM5Mzc1IDEyLjg5LDIwIDEyLDIwIEMxMC42ODYsMjAgOS4zODEsMTkuNjcxODU5NiA4LjIyNSwxOS4wNTI1OTQ2IEM1LjYxOSwxNy42NTY5OTc1IDQsMTQuOTUzODQwOCA0LDExLjk5NjU3NTUgQzQsMTEuODMxNTA0OCA0LjAwNCwxMS42Njc0MzQ2IDQuMDE4LDExLjUwNjM2NTcgQzQuMjEyLDguMTczOTM5ODQgNi41MDIsNS4yODI3MDI3MyA5LjcxNSw0LjMyNjI5MzQ5IEMxMS43MjksMy43MTkwMzM2NiAxNC4wNTIsMy45NjUxMzg5NiAxNS45MSw1LjAxNjU4ODg2IEMxOC40MzMsNi40MzAxOTM3MiAyMCw5LjEwNDMzNzk0IDIwLDExLjk5NjU3NTUgTTExLjA3NSw4LjkzNTI2NTU5IEwxMC40MTksOC4xODE5NDMyNiBDOS45MDMsOC42MzAxMzUwMyA5Ljc2NSw4Ljg2MDIzMzQ5IDkuNTM0LDkuMjQwMzk2MTUgQzkuNDY3LDkuMzUxNDQzNjcgOS4zODksOS40ODE0OTkzMiA5LjI4NSw5LjY0MDU2NzM4IEwxMC4xMjMsMTAuMTg1ODAwNyBDMTAuMjMzLDEwLjAxNTcyNzkgMTAuMzE3LDkuODc3NjY4ODMgMTAuMzksOS43NTg2MTc4OSBDMTAuNTk0LDkuNDIxNDczNjMgMTAuNjc4LDkuMjgyNDE0MTMgMTEuMDc1LDguOTM1MjY1NTkgTTEwLjY0OSwxMS4zNjYzMDU4IEwxMC4zMjUsMTIuMzExNzEwMyBDMTEuNDM4LDEyLjY5NDg3NDMgMTIuNDExLDEzLjMwNzEzNjIgMTMuMzg3LDE0LjIzNzUzNDMgTDE0LjA3NiwxMy41MTMyMjQ0IEMxMi45OTMsMTIuNDc5NzgyMiAxMS45MDQsMTEuNzk3NDkwMyAxMC42NDksMTEuMzY2MzA1OCBNMTMuMjg1LDkuMDc0MzI1MDkgTDE0LjEyMSw4LjUyNTA5MDA5IEMxNS4wODMsOS45OTI3MTgwNiAxNS42MjQsMTEuNjA0NDA3NyAxNS43MywxMy4zMTYxNDAxIEwxNC43MzIsMTMuMzc4MTY2NiBDMTQuNjM4LDExLjg0MjUwOTYgMTQuMTUsMTAuMzkzODg5NyAxMy4yODUsOS4wNzQzMjUwOSIvPiYjeGE7ICAgIDwvZz4mI3hhOzwvc3ZnPg==;" vertex="1" parent="Z4amRD8m1zhhW-L_DsDk-35">
          <mxGeometry x="849.4162079633574" y="43.714285714285715" width="221.14186990236652" height="221.14186990236652" as="geometry" />
        </mxCell>
        <mxCell id="Z4amRD8m1zhhW-L_DsDk-10" value="" style="shape=image;verticalLabelPosition=bottom;labelBackgroundColor=default;verticalAlign=top;aspect=fixed;imageAspect=0;editableCssRules=.*;image=data:image/svg+xml,PHN2ZyB4bWxuczp4bGluaz0iaHR0cDovL3d3dy53My5vcmcvMTk5OS94bGluayIgeG1sbnM9Imh0dHA6Ly93d3cudzMub3JnLzIwMDAvc3ZnIiB2ZXJzaW9uPSIxLjEiIHZpZXdCb3g9Ii0wLjUgLTAuNSAyNSAyNSIgaGVpZ2h0PSIyNSIgd2lkdGg9IjI1Ij4mI3hhOyAgICAmI3hhOyAgICA8dGl0bGU+SWNvbi1BcmNoaXRlY3R1cmUvMTYvQXJjaF9BbWF6b24tQVBJLUdhdGV3YXlfMTY8L3RpdGxlPiYjeGE7ICAgIDxkZXNjPkNyZWF0ZWQgd2l0aCBTa2V0Y2guPC9kZXNjPiYjeGE7ICAgIDxkZWZzPiYjeGE7ICAgICAgICA8bGluZWFyR3JhZGllbnQgaWQ9ImxpbmVhckdyYWRpZW50LTEiIHkyPSIwJSIgeDI9IjEwMCUiIHkxPSIxMDAlIiB4MT0iMCUiPiYjeGE7ICAgICAgICAgICAgPHN0b3Agb2Zmc2V0PSIwJSIgc3RvcC1jb2xvcj0iIzREMjdBOCIvPiYjeGE7ICAgICAgICAgICAgPHN0b3Agb2Zmc2V0PSIxMDAlIiBzdG9wLWNvbG9yPSIjQTE2NkZGIi8+JiN4YTsgICAgICAgIDwvbGluZWFyR3JhZGllbnQ+JiN4YTsgICAgPC9kZWZzPiYjeGE7ICAgIDxnIGZpbGwtcnVsZT0iZXZlbm9kZCIgZmlsbD0ibm9uZSIgc3Ryb2tlLXdpZHRoPSIxIiBzdHJva2U9Im5vbmUiIGlkPSJJY29uLUFyY2hpdGVjdHVyZS8xNi9BcmNoX0FtYXpvbi1BUEktR2F0ZXdheV8xNiI+JiN4YTsgICAgICAgIDxnIGZpbGw9InVybCgjbGluZWFyR3JhZGllbnQtMSkiIGlkPSJJY29uLUFyY2hpdGVjdHVyZS1CRy8xNi9OZXR3b3JraW5nLUNvbnRlbnQtRGVsaXZlcnkiPiYjeGE7ICAgICAgICAgICAgPHJlY3QgaGVpZ2h0PSIyNCIgd2lkdGg9IjI0IiB5PSIwIiB4PSIwIiBpZD0iUmVjdGFuZ2xlIi8+JiN4YTsgICAgICAgIDwvZz4mI3hhOyAgICAgICAgPHBhdGggZmlsbD0iI0ZGRkZGRiIgaWQ9IkFtYXpvbi1BUEktR2F0ZXdheV9JY29uXzE2X1NxdWlkIiBkPSJNNiw2Ljc2NzUxNjEzIEw4LDUuNDM0NDY3MzggTDgsMTguNTY1OTQ3NiBMNiwxNy4yMzI4OTg4IEw2LDYuNzY3NTE2MTMgWiBNNSw2LjQ5OTUwNjMzIEw1LDE3LjQ5OTkwODYgQzUsMTcuNjY2OTE0NyA1LjA4NCwxNy44MjM5MjA0IDUuMjIzLDE3LjkxNTkyMzggTDguMjIzLDE5LjkxNTk5NjkgQzguMzA3LDE5Ljk3MTk5OSA4LjQwMywyMCA4LjUsMjAgQzguNTgxLDIwIDguNjYyLDE5Ljk4MDk5OTMgOC43MzYsMTkuOTQwOTk3OCBDOC44OTgsMTkuODUzOTk0NyA5LDE5LjY4NDk4ODUgOSwxOS40OTk5ODE3IEw5LDE2Ljk5OTg5MDMgTDEwLDE2Ljk5OTg5MDMgTDEwLDE1Ljk5OTg1MzcgTDksMTUuOTk5ODUzNyBMOSw3Ljk5OTU2MTE4IEwxMCw3Ljk5OTU2MTE4IEwxMCw2Ljk5OTUyNDYxIEw5LDYuOTk5NTI0NjEgTDksNC40OTk0MzMxOSBDOSw0LjMxNTQyNjQ2IDguODk4LDQuMTQ1NDIwMjUgOC43MzYsNC4wNTk0MTcxIEM4LjU3NCwzLjk3MjQxMzkyIDguMzc3LDMuOTgxNDE0MjUgOC4yMjMsNC4wODM0MTc5OCBMNS4yMjMsNi4wODM0OTExMiBDNS4wODQsNi4xNzY0OTQ1MiA1LDYuMzMyNTAwMjIgNSw2LjQ5OTUwNjMzIEw1LDYuNDk5NTA2MzMgWiBNMTksMTcuMjMyODk4OCBMMTcsMTguNTY1OTQ3NiBMMTcsNS40MzQ0NjczOCBMMTksNi43Njc1MTYxMyBMMTksMTcuMjMyODk4OCBaIE0xOS43NzcsNi4wODM0OTExMiBMMTYuNzc3LDQuMDgzNDE3OTggQzE2LjYyMywzLjk4MTQxNDI1IDE2LjQyNiwzLjk3MjQxMzkyIDE2LjI2NCw0LjA1OTQxNzEgQzE2LjEwMiw0LjE0NTQyMDI1IDE2LDQuMzE1NDI2NDYgMTYsNC40OTk0MzMxOSBMMTYsNi45OTk1MjQ2MSBMMTUsNi45OTk1MjQ2MSBMMTUsNy45OTk1NjExOCBMMTYsNy45OTk1NjExOCBMMTYsMTUuOTk5ODUzNyBMMTUsMTUuOTk5ODUzNyBMMTUsMTYuOTk5ODkwMyBMMTYsMTYuOTk5ODkwMyBMMTYsMTkuNDk5OTgxNyBDMTYsMTkuNjg0OTg4NSAxNi4xMDIsMTkuODUzOTk0NyAxNi4yNjQsMTkuOTQwOTk3OCBDMTYuMzM4LDE5Ljk4MDk5OTMgMTYuNDE5LDIwIDE2LjUsMjAgQzE2LjU5NywyMCAxNi42OTMsMTkuOTcxOTk5IDE2Ljc3NywxOS45MTU5OTY5IEwxOS43NzcsMTcuOTE1OTIzOCBDMTkuOTE2LDE3LjgyMzkyMDQgMjAsMTcuNjY2OTE0NyAyMCwxNy40OTk5MDg2IEwyMCw2LjQ5OTUwNjMzIEMyMCw2LjMzMjUwMDIyIDE5LjkxNiw2LjE3NjQ5NDUyIDE5Ljc3Nyw2LjA4MzQ5MTEyIEwxOS43NzcsNi4wODM0OTExMiBaIE0xMyw3Ljk5OTU2MTE4IEwxNCw3Ljk5OTU2MTE4IEwxNCw2Ljk5OTUyNDYxIEwxMyw2Ljk5OTUyNDYxIEwxMyw3Ljk5OTU2MTE4IFogTTExLDcuOTk5NTYxMTggTDEyLDcuOTk5NTYxMTggTDEyLDYuOTk5NTI0NjEgTDExLDYuOTk5NTI0NjEgTDExLDcuOTk5NTYxMTggWiBNMTMsMTYuOTk5ODkwMyBMMTQsMTYuOTk5ODkwMyBMMTQsMTUuOTk5ODUzNyBMMTMsMTUuOTk5ODUzNyBMMTMsMTYuOTk5ODkwMyBaIE0xMSwxNi45OTk4OTAzIEwxMiwxNi45OTk4OTAzIEwxMiwxNS45OTk4NTM3IEwxMSwxNS45OTk4NTM3IEwxMSwxNi45OTk4OTAzIFogTTEzLjE4LDE0Ljg4NDgxMyBMMTAuMTgsMTIuMzg0NzIxNSBDMTAuMDY1LDEyLjI4ODcxOCAxMCwxMi4xNDg3MTI5IDEwLDExLjk5OTcwNzUgQzEwLDExLjg1MTcwMiAxMC4wNjUsMTEuNzEwNjk2OSAxMC4xOCwxMS42MTU2OTM0IEwxMy4xOCw5LjExNTYwMTk5IEwxMy44Miw5Ljg4NDYzMDExIEwxMS4yODEsMTEuOTk5NzA3NSBMMTMuODIsMTQuMTE1Nzg0OCBMMTMuMTgsMTQuODg0ODEzIFoiLz4mI3hhOyAgICA8L2c+JiN4YTs8L3N2Zz4=;" vertex="1" parent="Z4amRD8m1zhhW-L_DsDk-35">
          <mxGeometry x="1363.699626340954" y="815.1428571428572" width="221.14186990236652" height="221.14186990236652" as="geometry" />
        </mxCell>
        <mxCell id="Z4amRD8m1zhhW-L_DsDk-11" value="" style="shape=image;verticalLabelPosition=bottom;labelBackgroundColor=default;verticalAlign=top;aspect=fixed;imageAspect=0;editableCssRules=.*;image=data:image/svg+xml,PHN2ZyB4bWxuczp4bGluaz0iaHR0cDovL3d3dy53My5vcmcvMTk5OS94bGluayIgeG1sbnM9Imh0dHA6Ly93d3cudzMub3JnLzIwMDAvc3ZnIiB2ZXJzaW9uPSIxLjEiIHZpZXdCb3g9Ii0wLjUgLTAuNSAyNSAyNSIgaGVpZ2h0PSIyNSIgd2lkdGg9IjI1Ij4mI3hhOyAgICAmI3hhOyAgICA8dGl0bGU+SWNvbi1BcmNoaXRlY3R1cmUvMTYvQXJjaF9BbWF6b24tRHluYW1vREJfMTY8L3RpdGxlPiYjeGE7ICAgIDxkZXNjPkNyZWF0ZWQgd2l0aCBTa2V0Y2guPC9kZXNjPiYjeGE7ICAgIDxkZWZzPiYjeGE7ICAgICAgICA8bGluZWFyR3JhZGllbnQgaWQ9ImxpbmVhckdyYWRpZW50LTEiIHkyPSIwJSIgeDI9IjEwMCUiIHkxPSIxMDAlIiB4MT0iMCUiPiYjeGE7ICAgICAgICAgICAgPHN0b3Agb2Zmc2V0PSIwJSIgc3RvcC1jb2xvcj0iIzJFMjdBRCIvPiYjeGE7ICAgICAgICAgICAgPHN0b3Agb2Zmc2V0PSIxMDAlIiBzdG9wLWNvbG9yPSIjNTI3RkZGIi8+JiN4YTsgICAgICAgIDwvbGluZWFyR3JhZGllbnQ+JiN4YTsgICAgPC9kZWZzPiYjeGE7ICAgIDxnIGZpbGwtcnVsZT0iZXZlbm9kZCIgZmlsbD0ibm9uZSIgc3Ryb2tlLXdpZHRoPSIxIiBzdHJva2U9Im5vbmUiIGlkPSJJY29uLUFyY2hpdGVjdHVyZS8xNi9BcmNoX0FtYXpvbi1EeW5hbW9EQl8xNiI+JiN4YTsgICAgICAgIDxnIGZpbGw9InVybCgjbGluZWFyR3JhZGllbnQtMSkiIGlkPSJJY29uLUFyY2hpdGVjdHVyZS1CRy8xNi9EYXRhYmFzZSI+JiN4YTsgICAgICAgICAgICA8cmVjdCBoZWlnaHQ9IjI0IiB3aWR0aD0iMjQiIHk9IjAiIHg9IjAiIGlkPSJSZWN0YW5nbGUiLz4mI3hhOyAgICAgICAgPC9nPiYjeGE7ICAgICAgICA8cGF0aCBmaWxsPSIjRkZGRkZGIiBpZD0iQW1hem9uLUR5bmFtb0RCX0ljb25fMTZfU3F1aWQiIGQ9Ik0xNC4zODcxOTc5LDEzLjA2MzQzMTkgTDE1LjQyMTg5NTUsOS42MTczODY5MSBDMTUuNDY4NDY3LDkuNDY0NzQ2MDIgMTUuNDM5MTA2Nyw5LjI5ODk2Mzg2IDE1LjM0MzkzODgsOS4xNzA1ODM3OCBDMTUuMjQ4NzcwOSw5LjA0MjIwMzY5IDE1LjA5NzkxOTcsOC45NjczOTk1NSAxNC45Mzc5NTY3LDguOTY3Mzk5NTUgTDE0LjIzODM3MTUsOC45NjczOTk1NSBMMTUuMjUwNzk1OCw2Ljk0NTY2NTkxIEwxNy43Nzk4MzE2LDYuOTQ1NjY1OTEgTDE2Ljk4ODExNTksOS4zMTMxMTYgQzE2LjkzNzQ5NDYsOS40NjY3Njc3NSAxNi45NjI4MDUyLDkuNjM2NTkzMzggMTcuMDU4OTg1Niw5Ljc2ODAwNjA3IEMxNy4xNTMxNDEsOS45MDA0Mjk2MiAxNy4zMDYwMTcxLDkuOTc4MjY2MzYgMTcuNDY5MDE3NCw5Ljk3ODI2NjM2IEwxOC4wOTU3MDgsOS45NzgyNjYzNiBMMTQuMzg3MTk3OSwxMy4wNjM0MzE5IFogTTE5Ljk2OTcwNTMsOS4yOTk5NzQ3MyBDMTkuODk2ODEwOCw5LjEwMDgzMzk3IDE5LjcwNzQ4NzUsOC45NjczOTk1NSAxOS40OTM4NjU5LDguOTY3Mzk5NTUgTDE4LjE3MDYyNzQsOC45NjczOTk1NSBMMTguOTYyMzQzMiw2LjU5OTk0OTQ2IEMxOS4wMTI5NjQ0LDYuNDQ2Mjk3NyAxOC45ODc2NTM4LDYuMjc2NDcyMDcgMTguODkxNDczNSw2LjE0NDA0ODUyIEMxOC43OTYzMDU2LDYuMDEyNjM1ODQgMTguNjQ0NDQyLDUuOTM0Nzk5MDkgMTguNDgxNDQxNyw1LjkzNDc5OTA5IEwxNC45Mzc5NTY3LDUuOTM0Nzk5MDkgQzE0Ljc0NTU5NjEsNS45MzQ3OTkwOSAxNC41NzE0NTkxLDYuMDQyOTYxODQgMTQuNDg1NDAzLDYuMjEzNzk4MzMgTDEyLjk2Njc2NjYsOS4yNDYzOTg3OSBDMTIuODg4ODEsOS40MDMwODMxNCAxMi44OTU4OTY5LDkuNTg5MDgyNjQgMTIuOTg4MDI3NSw5LjczNzY4MDA2IEMxMy4wODExNzA2LDkuODg3Mjg4MzUgMTMuMjQ0MTcwOSw5Ljk3ODI2NjM2IDEzLjQxOTMyMDMsOS45NzgyNjYzNiBMMTQuMjU3NjA3Niw5Ljk3ODI2NjM2IEwxMi45MzQzNjkxLDE0LjM4MTYwMjIgQzEyLjg3MDU4NjMsMTQuNTk1OTA2IDEyLjk1MzYwNTEsMTQuODI1MzcyOCAxMy4xNDA5MDM2LDE0Ljk0ODY5ODUgQzEzLjIyNTk0NzIsMTUuMDA0Mjk2MiAxMy4zMjIxMjc1LDE1LjAzMjYwMDUgMTMuNDE5MzIwMywxNS4wMzI2MDA1IEMxMy41MzQ3MzY2LDE1LjAzMjYwMDUgMTMuNjQ5MTQwNiwxNC45OTMxNzY2IDEzLjc0MzI5NiwxNC45MTUzMzk5IEwxOS44MTc4NDE3LDkuODYxMDA1ODEgQzE5Ljk4MDg0Miw5LjcyNDUzODc5IDIwLjA0MjU5OTksOS41MDExMzcyMyAxOS45Njk3MDUzLDkuMjk5OTc0NzMgTDE5Ljk2OTcwNTMsOS4yOTk5NzQ3MyBaIE0xNC44MzQ2ODk0LDE3LjYyODUwNjQgQzE0LjgzNDY4OTQsMTguMDkwNDcyNiAxMy4yNzc1ODA5LDE4Ljk4OTEzMzIgMTAuNDIzNTU2OCwxOC45ODkxMzMyIEM3LjU2OTUzMjgxLDE4Ljk4OTEzMzIgNi4wMTI0MjQyOCwxOC4wOTA0NzI2IDYuMDEyNDI0MjgsMTcuNjI4NTA2NCBMNi4wMTI0MjQyOCwxNi41NjIwNDIgQzcuMDQ5MTQ2NzMsMTcuMTc4NjcwNyA4Ljc0MjkzMjU1LDE3LjQ5NTA3MiAxMC40MjM1NTY4LDE3LjQ5NTA3MiBDMTIuMTA0MTgxMSwxNy40OTUwNzIgMTMuNzk3OTY3LDE3LjE3ODY3MDcgMTQuODM0Njg5NCwxNi41NjIwNDIgTDE0LjgzNDY4OTQsMTcuNjI4NTA2NCBaIE0xNC44MzQ2ODk0LDE1LjEyMzU3ODUgQzE0LjgzNDY4OTQsMTUuNTg1NTQ0NiAxMy4yNzc1ODA5LDE2LjQ4NDIwNTIgMTAuNDIzNTU2OCwxNi40ODQyMDUyIEM3LjU2OTUzMjgxLDE2LjQ4NDIwNTIgNi4wMTI0MjQyOCwxNS41ODU1NDQ2IDYuMDEyNDI0MjgsMTUuMTIzNTc4NSBDNi4wMTI0MjQyOCwxNS4wMjc1NDYxIDYuMDg2MzMxMjUsMTQuOTEzMzE4MiA2LjIxMTg3MTg2LDE0Ljc5NTA0NjggQzcuMjEyMTQ3MDQsMTUuMzE2NjU0IDguNzQ2OTgyMjUsMTUuNjIzOTU3NSAxMC40MjM1NTY4LDE1LjYyMzk1NzUgQzEwLjQ0MzgwNTMsMTUuNjIzOTU3NSAxMS45OTQ4MzkzLDE1LjU5MTYwOTggMTEuOTk0ODM5MywxNS41OTE2MDk4IEwxMS45OTQ4MzkzLDE0LjU4MDc0MyBDMTEuOTc0NTkwOCwxNC41ODA3NDMgMTAuNDIzNTU2OCwxNC42MTMwOTA3IDEwLjQyMzU1NjgsMTQuNjEzMDkwNyBDOC43NzEyODA0MywxNC42MTMwOTA3IDcuMjQ2NTY5NDcsMTQuMjg4NjAyNSA2LjQ0NTc0MTg3LDEzLjc2ODAwNjEgQzYuMTc1NDI0NTgsMTMuNTkwMDkzNSA2LjAxMzQzNjcsMTMuMzk4MDI4OCA2LjAxMjQyNDI4LDEzLjI1MjQ2NCBMNi4wMTI0MjQyOCwxMi4xODU5OTk1IEM3LjA0OTE0NjczLDEyLjgwMjYyODMgOC43NDI5MzI1NSwxMy4xMjAwNDA0IDEwLjQyMzU1NjgsMTMuMTIwMDQwNCBDMTAuNjg5ODI0NCwxMy4xMjAwNDA0IDExLjgzNDg3NjMsMTMuMDM5MTcxMSAxMi4xOTIyNjIxLDEzLjAxMzg5OTQgTDEyLjIxMzUyMywxMi41MDU0MzM0IEwxMi4xMjAzNzk5LDEyLjAwNTA1NDMgQzExLjc3NjE1NTcsMTIuMDI5MzE1MSAxMC42Nzg2ODc4LDEyLjEwOTE3MzYgMTAuNDIzNTU2OCwxMi4xMDkxNzM2IEM3LjU2OTUzMjgxLDEyLjEwOTE3MzYgNi4wMTI0MjQyOCwxMS4yMDk1MDIxIDYuMDEyNDI0MjgsMTAuNzQ3NTM2IEM2LjAxMjQyNDI4LDEwLjY0NzQ2MDIgNi4wOTEzOTMzNywxMC41MjgxNzc5IDYuMjI1MDMzMzcsMTAuNDA1ODYzIEM3LjAxODc3NDAxLDEwLjc1NjYzMzggOC41NzE4MzI4NSwxMS4xNTA4NzE5IDEyLjMxNzgwMjcsMTEuMTk2MzYwOSBMMTIuMzI5OTUxOCwxMC4xODU0OTQxIEM5LjI3OTUxNzQxLDEwLjE0OTEwMjkgNy4zNDM3NjIyLDkuODgyMjM0MDIgNi40NDU3NDE4Nyw5LjM5MDk1Mjc0IEM2LjE3NTQyNDU4LDkuMjEzMDQwMTggNi4wMTM0MzY3LDkuMDIwOTc1NDkgNi4wMTI0MjQyOCw4Ljg3NTQxMDY2IEw2LjAxMjQyNDI4LDcuODA5OTU3MDQgQzcuMDQ5MTQ2NzMsOC40MjY1ODU4IDguNzQyOTMyNTUsOC43NDI5ODcxMSAxMC40MjM1NTY4LDguNzQyOTg3MTEgQzEwLjUwMTUxMzUsOC43NDI5ODcxMSAxMi40ODA4MDMsOC43MDY1OTU5MSAxMi41NTg3NTk2LDguNzAzNTYzMzEgTDEyLjUxNTIyNTQsNy42OTM3MDczNSBDMTIuNDA3OTA4NCw3LjY5Nzc1MDgyIDEwLjUxODcyNDcsNy43MzIxMjAyOSAxMC40MjM1NTY4LDcuNzMyMTIwMjkgQzcuNTY5NTMyODEsNy43MzIxMjAyOSA2LjAxMjQyNDI4LDYuODMzNDU5NjkgNi4wMTI0MjQyOCw2LjM3MTQ5MzU2IEM2LjAxMjQyNDI4LDUuOTA5NTI3NDIgNy41Njk1MzI4MSw1LjAxMDg2NjgyIDEwLjQyMzU1NjgsNS4wMTA4NjY4MiBDMTEuNzQ0NzcwNSw1LjAxMDg2NjgyIDEzLjAwMDE3NjYsNS4yMTgwOTQ1MiAxMy44NjY4MTE4LDUuNTgwOTk1NyBMMTQuMjU4NjIsNC42NDc5NjU2MyBDMTMuMjU3MzMyNCw0LjIzMDQ3NzYzIDExLjg5NTYyMTcsNCAxMC40MjM1NTY4LDQgQzcuNzI5NDk1ODUsNCA1LjAwMTAxMjQyLDQuODEzNzQ3NzkgNSw2LjM2OTQ3MTgyIEw1LDguODgxNDc1ODcgQzUsOC44ODE0NzU4NyA1LjA5MjEzMDYxLDkuNDYwNzAyNTUgNS40MDA5MjAwMSw5LjgwNzQyOTg3IEM1LjA4ODA4MDkxLDEwLjE1NTE2ODEgNSwxMC40OTM4MDg0IDUsMTAuNzQ2NTI1MSBMNSwxMy4yNjI1NzI3IEM1LjAwMTAxMjQyLDEzLjUxMDIzNSA1LjA5MjEzMDYxLDEzLjg0MzgyMTEgNS4zOTc4ODI3NCwxNC4xODc1MTU4IEM1LjA4ODA4MDkxLDE0LjUzNDI0MzEgNSwxNC44NzE4NzI2IDUsMTUuMTIzNTc4NSBMNSwxNy42MzM1NjA4IEM1LjAwNTA2MjEyLDE5LjE4NzI2MzEgNy43MzE1MjA3LDIwIDEwLjQyMzU1NjgsMjAgQzEzLjExODYzMDMsMjAgMTUuODQ3MTEzNywxOS4xODYyNTIyIDE1Ljg0NzExMzcsMTcuNjMwNTI4MiBMMTUuODQ3MTEzNywxNS4xMjM1Nzg1IEwxNC44MzQ2ODk0LDE1LjEyMzU3ODUgWiIvPiYjeGE7ICAgIDwvZz4mI3hhOzwvc3ZnPg==;" vertex="1" parent="Z4amRD8m1zhhW-L_DsDk-35">
          <mxGeometry x="1106.5579171521556" y="43.714285714285715" width="221.14186990236652" height="221.14186990236652" as="geometry" />
        </mxCell>
        <mxCell id="Z4amRD8m1zhhW-L_DsDk-12" value="" style="shape=image;verticalLabelPosition=bottom;labelBackgroundColor=default;verticalAlign=top;aspect=fixed;imageAspect=0;editableCssRules=.*;image=data:image/svg+xml,PHN2ZyB4bWxuczp4bGluaz0iaHR0cDovL3d3dy53My5vcmcvMTk5OS94bGluayIgeG1sbnM9Imh0dHA6Ly93d3cudzMub3JnLzIwMDAvc3ZnIiB2ZXJzaW9uPSIxLjEiIHZpZXdCb3g9Ii0wLjUgLTAuNSAyNSAyNSIgaGVpZ2h0PSIyNSIgd2lkdGg9IjI1Ij4mI3hhOyAgICAmI3hhOyAgICA8dGl0bGU+SWNvbi1BcmNoaXRlY3R1cmUvMTYvQXJjaF9BV1MtQ2VydGlmaWNhdGUtTWFuYWdlcl8xNjwvdGl0bGU+JiN4YTsgICAgPGRlc2M+Q3JlYXRlZCB3aXRoIFNrZXRjaC48L2Rlc2M+JiN4YTsgICAgPGRlZnM+JiN4YTsgICAgICAgIDxsaW5lYXJHcmFkaWVudCBpZD0ibGluZWFyR3JhZGllbnQtMSIgeTI9IjAlIiB4Mj0iMTAwJSIgeTE9IjEwMCUiIHgxPSIwJSI+JiN4YTsgICAgICAgICAgICA8c3RvcCBvZmZzZXQ9IjAlIiBzdG9wLWNvbG9yPSIjQkQwODE2Ii8+JiN4YTsgICAgICAgICAgICA8c3RvcCBvZmZzZXQ9IjEwMCUiIHN0b3AtY29sb3I9IiNGRjUyNTIiLz4mI3hhOyAgICAgICAgPC9saW5lYXJHcmFkaWVudD4mI3hhOyAgICA8L2RlZnM+JiN4YTsgICAgPGcgZmlsbC1ydWxlPSJldmVub2RkIiBmaWxsPSJub25lIiBzdHJva2Utd2lkdGg9IjEiIHN0cm9rZT0ibm9uZSIgaWQ9Ikljb24tQXJjaGl0ZWN0dXJlLzE2L0FyY2hfQVdTLUNlcnRpZmljYXRlLU1hbmFnZXJfMTYiPiYjeGE7ICAgICAgICA8ZyBmaWxsPSJ1cmwoI2xpbmVhckdyYWRpZW50LTEpIiBpZD0iSWNvbi1BcmNoaXRlY3R1cmUtQkcvMTYvU2VjdXJpdHktSWRlbnRpdHktQ29tcGxpYW5jZSI+JiN4YTsgICAgICAgICAgICA8cmVjdCBoZWlnaHQ9IjI0IiB3aWR0aD0iMjQiIHk9IjAiIHg9IjAiIGlkPSJSZWN0YW5nbGUiLz4mI3hhOyAgICAgICAgPC9nPiYjeGE7ICAgICAgICA8cGF0aCBmaWxsPSIjRkZGRkZGIiBpZD0iQVdTLUNlcnRpZmljYXRlLU1hbmFnZXJfSWNvbl8xNl9TcXVpZCIgZD0iTTEwLjA1NTE2MjksMTAuODEwMTA3NiBMMTAuOTAxNzQ0OSwxMS42NDQ3MzM2IEMxMS4wMjU4MzAzLDExLjc2NjgyNTEgMTEuMDc2ODY1MywxMS45NDI5NTcyIDExLjAzNzgzODUsMTIuMTEyMDg0MSBMMTAuODcyNzI1LDEyLjgzMzYyNTIgTDExLjc0NTMyNDksMTIuMzE2MjM3MiBDMTEuOTA4NDM3MSwxMi4yMjAxNjUxIDEyLjExMTU3NjcsMTIuMjI0MTY4MSAxMi4yNjk2ODU0LDEyLjMyNDI0MzIgTDEyLjk5NzE4NTYsMTIuNzg4NTkxNCBMMTIuODQ3MDgyNCwxMi4xMDcwODAzIEMxMi44MDkwNTYyLDExLjkzMjk0OTcgMTIuODY2MDk1NCwxMS43NTA4MTMxIDEyLjk5NzE4NTYsMTEuNjI5NzIyMyBMMTMuOTAzODA4OSwxMC44MDExMDA4IEwxMi43NTgwMjExLDEwLjYxNDk2MTIgQzEyLjU5MjkwNzYsMTAuNTg3OTQxIDEyLjQ1MjgxMTMsMTAuNDc5ODU5OSAxMi4zODI3NjMxLDEwLjMyODc0NjYgTDExLjk5NjQ5NzYsOS40ODIxMTE1OCBMMTEuNjAxMjI1OCwxMC4zMzI3NDk2IEMxMS41MzIxNzg0LDEwLjQ4Mjg2MjEgMTEuMzkyMDgyMSwxMC41ODg5NDE3IDExLjIyOTk3MDYsMTAuNjE1OTYyIEwxMC4wNTUxNjI5LDEwLjgxMDEwNzYgWiBNOS42Mzc4NzYwNCwxMy43NDkzMTIgTDEwLjAwMDEyNTEsMTIuMTYxMTIwOCBMOC42NTQxOTk3NiwxMC44MzMxMjQ4IEM4LjUxOTEwNjg5LDEwLjcwMTAyNTggOC40NzEwNzM4NiwxMC41MDQ4Nzg3IDguNTI4MTEzMDgsMTAuMzI1NzQ0MyBDOC41ODQxNTE2LDEwLjE0NTYwOTIgOC43MzcyNTY4NiwxMC4wMTQ1MTA5IDguOTIyMzg0MTQsOS45ODM0ODc2MiBMMTAuODA1Njc4OSw5LjY3MTI1MzQ0IEwxMS41NDcxODg3LDguMDc2MDU3MDQgQzExLjYyOTI0NTEsNy44OTg5MjQxOSAxMS44MjIzNzc5LDcuNzc1ODMxODcgMTIuMDAyNTAxNyw3Ljc4Njg0MDEzIEMxMi4xOTg2MzY2LDcuNzg2ODQwMTMgMTIuMzc0NzU3Niw3LjkwMTkyNjQ0IDEyLjQ1NTgxMzQsOC4wNzkwNTkyOSBMMTMuMTgyMzEyOCw5LjY2OTI1MTk0IEwxNS4wODI2MTkzLDkuOTc4NDgzODYgQzE1LjI3Mjc1LDEwLjAwOTUwNzEgMTUuNDI2ODU2LDEwLjE0NTYwOTIgMTUuNDgyODk0NSwxMC4zMjk3NDczIEMxNS41Mzc5MzIzLDEwLjUxMjg4NDcgMTUuNDgxODkzOCwxMC43MTIwMzQgMTUuMzQwNzk2OCwxMC44NDExMzA4IEwxMy44ODY3OTcyLDEyLjE3MzEyOTggTDE0LjIzNTAzNjYsMTMuNzUwMzEyNyBDMTQuMjc5MDY2OSwxMy45NDc0NjA2IDE0LjE5OTAxMTgsMTQuMTUxNjEzNyAxNC4wMzM4OTgzLDE0LjI2NzcwMDggQzEzLjg2ODc4NDgsMTQuMzgyNzg3MSAxMy42NDg2MzM0LDE0LjM4ODc5MTYgMTMuNDc3NTE1OCwxNC4yNzk3MDk4IEwxMS45OTI0OTQ4LDEzLjMzNDAwMDUgTDEwLjM4MDM4NjUsMTQuMjkwNzE4IEMxMC4zMDIzMzI5LDE0LjMzNjc1MjYgMTAuMjEzMjcxNiwxNC4zNjA3NzA2IDEwLjEyNTIxMTEsMTQuMzYwNzcwNiBDMTAuMDIyMTQwMiwxNC4zNjA3NzA2IDkuOTE4MDY4NjcsMTQuMzI4NzQ2NiA5LjgzMDAwODEzLDE0LjI2NDY5ODUgQzkuNjY4ODk3MzcsMTQuMTQ2NjEgOS41OTI4NDUwOCwxMy45NDM0NTc2IDkuNjM3ODc2MDQsMTMuNzQ5MzEyIEw5LjYzNzg3NjA0LDEzLjc0OTMxMiBaIE0xOC45ODMzMDEsNi4wNzI1NTQ0MiBMMTguOTgyMzAwMyw1LjAwMDc1MDU2IEw1LjAwMDY4Nzk3LDUuMDAwNzUwNTYgTDUuMDAwNjg3OTcsNi4wNzI1NTQ0MiBMMTguOTgzMzAxLDYuMDcyNTU0NDIgWiBNMjAsMTkuNDk3NjIzMiBDMjAsMTkuNjI5NzIyMyAxOS45NDY5NjM1LDE5Ljc1NjgxNzYgMTkuODUyODk4OSwxOS44NTE4ODg5IEMxOS43NTg4MzQyLDE5Ljk0NDk1ODcgMTkuNjMxNzQ2OCwxOS45OTc5OTg1IDE5LjQ5OTY1NiwxOS45OTc5OTg1IEwxNy4wMDM5NDAyLDE5Ljk5Nzk5ODUgTDE3LjAwMzk0MDIsMTguOTk3MjQ3OSBMMTguOTk4MzExMywxOC45OTcyNDc5IEwxOC45ODQzMDE3LDcuMDczMzA0OTggTDUuMDAwNjg3OTcsNy4wNzMzMDQ5OCBMNS4wMDA2ODc5NywxOC45OTkyNDk0IEwxNC4wMDE4NzYzLDE4Ljk5OTI0OTQgTDE0LjAwMTg3NjMsMjAgTDQuNTAwMzQzOTksMjAgQzQuMjI0MTU0MTEsMjAgNCwxOS43NzU4MzE5IDQsMTkuNDk5NjI0NyBMNCw0LjUwMDM3NTI4IEM0LDQuMjIzMTY3MzggNC4yMjQxNTQxMSw0IDQuNTAwMzQzOTksNCBMMTkuNDgxNjQzNiw0IEMxOS43NTc4MzM1LDQgMTkuOTgxOTg3Niw0LjIyMzE2NzM4IDE5Ljk4MTk4NzYsNC40OTkzNzQ1MyBMMjAsMTkuNDk3NjIzMiBaIE02Ljk5NzA2MDQ4LDE4LjAxNjUxMjQgTDguOTk4NDM2NDMsMTguMDE2NTEyNCBMOC45OTg0MzY0MywxNy4wMTU3NjE4IEw2Ljk5NzA2MDQ4LDE3LjAxNTc2MTggTDYuOTk3MDYwNDgsMTguMDE2NTEyNCBaIE0xMC45OTk4MTI0LDE4LjAyODUyMTQgTDE1LjAwMjU2NDMsMTguMDI4NTIxNCBMMTUuMDAyNTY0MywxNy4wMjc3NzA4IEwxMC45OTk4MTI0LDE3LjAyNzc3MDggTDEwLjk5OTgxMjQsMTguMDI4NTIxNCBaIE02Ljk5NzA2MDQ4LDE2LjAyMDAxNSBMOC45OTg0MzY0MywxNi4wMjAwMTUgTDguOTk4NDM2NDMsMTUuMDE5MjY0NCBMNi45OTcwNjA0OCwxNS4wMTkyNjQ0IEw2Ljk5NzA2MDQ4LDE2LjAyMDAxNSBaIE0xMC45OTk4MTI0LDE2LjAyMDAxNSBMMTcuMDAzOTQwMiwxNi4wMjAwMTUgTDE3LjAwMzk0MDIsMTUuMDE5MjY0NCBMMTAuOTk5ODEyNCwxNS4wMTkyNjQ0IEwxMC45OTk4MTI0LDE2LjAyMDAxNSBaIi8+JiN4YTsgICAgPC9nPiYjeGE7PC9zdmc+;" vertex="1" parent="Z4amRD8m1zhhW-L_DsDk-35">
          <mxGeometry x="1363.699626340954" y="43.714285714285715" width="221.14186990236652" height="221.14186990236652" as="geometry" />
        </mxCell>
        <mxCell id="Z4amRD8m1zhhW-L_DsDk-16" value="" style="shape=image;verticalLabelPosition=bottom;labelBackgroundColor=default;verticalAlign=top;aspect=fixed;imageAspect=0;editableCssRules=.*;image=data:image/svg+xml,PHN2ZyB4bWxuczp4bGluaz0iaHR0cDovL3d3dy53My5vcmcvMTk5OS94bGluayIgeG1sbnM9Imh0dHA6Ly93d3cudzMub3JnLzIwMDAvc3ZnIiB2ZXJzaW9uPSIxLjEiIHZpZXdCb3g9Ii0wLjUgLTAuNSAyNSAyNSIgaGVpZ2h0PSIyNSIgd2lkdGg9IjI1Ij4mI3hhOyAgICAmI3hhOyAgICA8dGl0bGU+SWNvbi1BcmNoaXRlY3R1cmUvMTYvQXJjaF9BbWF6b24tRUMyXzE2PC90aXRsZT4mI3hhOyAgICA8ZGVzYz5DcmVhdGVkIHdpdGggU2tldGNoLjwvZGVzYz4mI3hhOyAgICA8ZGVmcz4mI3hhOyAgICAgICAgPGxpbmVhckdyYWRpZW50IGlkPSJsaW5lYXJHcmFkaWVudC0xIiB5Mj0iMCUiIHgyPSIxMDAlIiB5MT0iMTAwJSIgeDE9IjAlIj4mI3hhOyAgICAgICAgICAgIDxzdG9wIG9mZnNldD0iMCUiIHN0b3AtY29sb3I9IiNDODUxMUIiLz4mI3hhOyAgICAgICAgICAgIDxzdG9wIG9mZnNldD0iMTAwJSIgc3RvcC1jb2xvcj0iI0ZGOTkwMCIvPiYjeGE7ICAgICAgICA8L2xpbmVhckdyYWRpZW50PiYjeGE7ICAgIDwvZGVmcz4mI3hhOyAgICA8ZyBmaWxsLXJ1bGU9ImV2ZW5vZGQiIGZpbGw9Im5vbmUiIHN0cm9rZS13aWR0aD0iMSIgc3Ryb2tlPSJub25lIiBpZD0iSWNvbi1BcmNoaXRlY3R1cmUvMTYvQXJjaF9BbWF6b24tRUMyXzE2Ij4mI3hhOyAgICAgICAgPGcgZmlsbD0idXJsKCNsaW5lYXJHcmFkaWVudC0xKSIgaWQ9Ikljb24tQXJjaGl0ZWN0dXJlLUJHLzE2L0NvbXB1dGUiPiYjeGE7ICAgICAgICAgICAgPHJlY3QgaGVpZ2h0PSIyNCIgd2lkdGg9IjI0IiB5PSIwIiB4PSIwIiBpZD0iUmVjdGFuZ2xlIi8+JiN4YTsgICAgICAgIDwvZz4mI3hhOyAgICAgICAgPHBhdGggZmlsbD0iI0ZGRkZGRiIgaWQ9IkFtYXpvbi1FQzJfSWNvbl8xNl9TcXVpZCIgZD0iTTE1LDkgTDE0LDkgTDEzLDkgTDEyLDkgTDExLDkgTDEwLDkgTDEwLDEwIEwxMCwxMSBMMTAsMTIgTDEwLDEzIEwxMCwxNCBMMTEsMTQgTDEyLDE0IEwxMywxNCBMMTQsMTQgTDE1LDE0IEwxNSwxMyBMMTUsMTIgTDE1LDExIEwxNSwxMCBMMTUsOSBaIE0xNiw5IEwxNyw5IEwxNywxMCBMMTYsMTAgTDE2LDExIEwxNywxMSBMMTcsMTIgTDE2LDEyIEwxNiwxMyBMMTcsMTMgTDE3LDE0IEwxNiwxNCBMMTYsMTQuMzA4IEMxNiwxNC42ODkgMTUuNjg5LDE1IDE1LjMwOCwxNSBMMTUsMTUgTDE1LDE2IEwxNCwxNiBMMTQsMTUgTDEzLDE1IEwxMywxNiBMMTIsMTYgTDEyLDE1IEwxMSwxNSBMMTEsMTYgTDEwLDE2IEwxMCwxNSBMOS42OTIsMTUgQzkuMzExLDE1IDksMTQuNjg5IDksMTQuMzA4IEw5LDE0IEw4LDE0IEw4LDEzIEw5LDEzIEw5LDEyIEw4LDEyIEw4LDExIEw5LDExIEw5LDEwIEw4LDEwIEw4LDkgTDksOSBMOSw4LjY5MiBDOSw4LjMxMSA5LjMxMSw4IDkuNjkyLDggTDEwLDggTDEwLDcgTDExLDcgTDExLDggTDEyLDggTDEyLDcgTDEzLDcgTDEzLDggTDE0LDggTDE0LDcgTDE1LDcgTDE1LDggTDE1LjMwOCw4IEMxNS42ODksOCAxNiw4LjMxMSAxNiw4LjY5MiBMMTYsOSBaIE0xMiwxOSBMNSwxOSBMNSwxMyBMNywxMyBMNywxMiBMNC44LDEyIEM0LjM1OCwxMiA0LDEyLjM0MiA0LDEyLjc2MiBMNCwxOS4yMTkgQzQsMTkuNjUgNC4zNTEsMjAgNC43ODEsMjAgTDEyLjIsMjAgQzEyLjY0MiwyMCAxMywxOS42NTggMTMsMTkuMjM4IEwxMywxNyBMMTIsMTcgTDEyLDE5IFogTTIwLDQuNzgxIEwyMCwxMi4yMTkgQzIwLDEyLjY1IDE5LjY0OSwxMyAxOS4yMTksMTMgTDE4LDEzIEwxOCwxMiBMMTksMTIgTDE5LDUgTDEyLDUgTDEyLDYgTDExLDYgTDExLDQuNzgxIEMxMSw0LjM1IDExLjM1MSw0IDExLjc4MSw0IEwxOS4yMTksNCBDMTkuNjQ5LDQgMjAsNC4zNSAyMCw0Ljc4MSBMMjAsNC43ODEgWiIvPiYjeGE7ICAgIDwvZz4mI3hhOzwvc3ZnPg==;" vertex="1" parent="Z4amRD8m1zhhW-L_DsDk-35">
          <mxGeometry x="592.2744987745591" y="815.1428571428572" width="221.14186990236652" height="221.14186990236652" as="geometry" />
        </mxCell>
        <mxCell id="Z4amRD8m1zhhW-L_DsDk-17" value="" style="shape=image;verticalLabelPosition=bottom;labelBackgroundColor=default;verticalAlign=top;aspect=fixed;imageAspect=0;editableCssRules=.*;image=data:image/svg+xml,PHN2ZyB4bWxuczp4bGluaz0iaHR0cDovL3d3dy53My5vcmcvMTk5OS94bGluayIgeG1sbnM9Imh0dHA6Ly93d3cudzMub3JnLzIwMDAvc3ZnIiB2ZXJzaW9uPSIxLjEiIHZpZXdCb3g9Ii0wLjUgLTAuNSAyNSAyNSIgaGVpZ2h0PSIyNSIgd2lkdGg9IjI1Ij4mI3hhOyAgICAmI3hhOyAgICA8dGl0bGU+SWNvbi1BcmNoaXRlY3R1cmUvMTYvQXJjaF9BV1MtQnJha2V0XzE2PC90aXRsZT4mI3hhOyAgICA8ZGVzYz5DcmVhdGVkIHdpdGggU2tldGNoLjwvZGVzYz4mI3hhOyAgICA8ZGVmcz4mI3hhOyAgICAgICAgPGxpbmVhckdyYWRpZW50IGlkPSJsaW5lYXJHcmFkaWVudC0xIiB5Mj0iMCUiIHgyPSIxMDAlIiB5MT0iMTAwJSIgeDE9IjAlIj4mI3hhOyAgICAgICAgICAgIDxzdG9wIG9mZnNldD0iMCUiIHN0b3AtY29sb3I9IiNDODUxMUIiLz4mI3hhOyAgICAgICAgICAgIDxzdG9wIG9mZnNldD0iMTAwJSIgc3RvcC1jb2xvcj0iI0ZGOTkwMCIvPiYjeGE7ICAgICAgICA8L2xpbmVhckdyYWRpZW50PiYjeGE7ICAgIDwvZGVmcz4mI3hhOyAgICA8ZyBmaWxsLXJ1bGU9ImV2ZW5vZGQiIGZpbGw9Im5vbmUiIHN0cm9rZS13aWR0aD0iMSIgc3Ryb2tlPSJub25lIiBpZD0iSWNvbi1BcmNoaXRlY3R1cmUvMTYvQXJjaF9BV1MtQnJha2V0XzE2Ij4mI3hhOyAgICAgICAgPGcgZmlsbD0idXJsKCNsaW5lYXJHcmFkaWVudC0xKSIgaWQ9Ikljb24tQXJjaGl0ZWN0dXJlLUJHLzE2L0NvbXB1dGUiPiYjeGE7ICAgICAgICAgICAgPHJlY3QgaGVpZ2h0PSIyNCIgd2lkdGg9IjI0IiB5PSIwIiB4PSIwIiBpZD0iUmVjdGFuZ2xlIi8+JiN4YTsgICAgICAgIDwvZz4mI3hhOyAgICAgICAgPHBhdGggZmlsbD0iI0ZGRkZGRiIgaWQ9IkFXUy1CcmFrZXRfSWNvbl8xNl9TcXVpZCIgZD0iTTE5LjEwMDI4OTUsNC40MDcgQzE4LjUxNDI4OTUsMy44MjEgMTcuNDcxMjg5NSwzLjg4OCAxNi4wMDYyODk1LDQuNTgyIEwxNi4wMDYyODk1LDUuNjk2IEMxNy41MTYyODk1LDQuODk1IDE4LjIyMzI4OTUsNC45NDYgMTguMzkzMjg5NSw1LjExNCBDMTguOTI3Mjg5NSw1LjY0OCAxNy42NDEyODk1LDguOTI4IDEzLjI3ODI4OTUsMTMuMjkyIEM4LjkxNDI4OTUzLDE3LjY1NSA1LjYzNTI4OTUzLDE4Ljk0MyA1LjEwMDI4OTUzLDE4LjQwNyBDNC45MjkyODk1MywxOC4yMzYgNC44NzkyODk1MywxNy41MjQgNS42OTIyODk1MywxNiBMNC41NzcyODk1MywxNiBDNC4wMTAyODk1MywxNy4xOTYgMy43MTEyODk1MywxOC40MzIgNC4zOTMyODk1MywxOS4xMTQgQzQuNjU5Mjg5NTMsMTkuMzc5IDUuMDIxMjg5NTMsMTkuNTAxIDUuNDYwMjg5NTMsMTkuNTAxIEM3LjQ1MDI4OTUzLDE5LjUwMSAxMC45OTEyODk1LDE2Ljk5MyAxMy45ODUyODk1LDEzLjk5OSBDMTcuNjM5Mjg5NSwxMC4zNDQgMjAuNTcwMjg5NSw1Ljg3NiAxOS4xMDAyODk1LDQuNDA3IEwxOS4xMDAyODk1LDQuNDA3IFogTTE3LjAwNjI4OTUsMTEuNzUxIEMxNi42NjAyODk1LDEyLjE3OCAxNi4zMjAyODk1LDEyLjU3OCAxNi4wMDYyODk1LDEyLjkzMyBMMTYuMDA2Mjg5NSwxNiBMMTIuOTQwMjg5NSwxNiBDMTIuNTg1Mjg5NSwxNi4zMTQgMTIuMTg5Mjg5NSwxNi42NTIgMTEuNzYwMjg5NSwxNyBMMTMuMDA2Mjg5NSwxNyBMMTMuMDA2Mjg5NSwyMCBMMTQuMDA2Mjg5NSwyMCBMMTQuMDA2Mjg5NSwxNyBMMTYuMDA2Mjg5NSwxNyBMMTYuMDA2Mjg5NSwyMCBMMTcuMDA2Mjg5NSwyMCBMMTcuMDA2Mjg5NSwxNyBMMjAuMDA2Mjg5NSwxNyBMMjAuMDA2Mjg5NSwxNiBMMTcuMDA2Mjg5NSwxNiBMMTcuMDA2Mjg5NSwxNCBMMjAuMDA2Mjg5NSwxNCBMMjAuMDA2Mjg5NSwxMyBMMTcuMDA2Mjg5NSwxMyBMMTcuMDA2Mjg5NSwxMS43NTEgWiBNMTguMzIyMjg5NSwxMCBDMTguMDg3Mjg5NSwxMC4zNDEgMTcuODQzMjg5NSwxMC42NzYgMTcuNTk2Mjg5NSwxMSBMMjAuMDA2Mjg5NSwxMSBMMjAuMDA2Mjg5NSwxMCBMMTguMzIyMjg5NSwxMCBaIE03LjAwNjI4OTUzLDE2LjUgQzcuMDA2Mjg5NTMsMTYuNzU3IDcuMjA0Mjg5NTMsMTYuOTYxIDcuNDU0Mjg5NTMsMTYuOTg5IEM3LjkwMzI4OTUzLDE2LjczMiA4LjQxNDI4OTUzLDE2LjM5OSA4Ljk3MzI4OTUzLDE2IEw4LjAwNjI4OTUzLDE2IEw4LjAwNjI4OTUzLDggTDE2LjAwNjI4OTUsOCBMMTYuMDA2Mjg5NSw4Ljk1OSBDMTYuNDA3Mjg5NSw4LjM5NyAxNi43MzgyODk1LDcuODg1IDE2Ljk5MzI4OTUsNy40MzQgQzE2Ljk1OTI4OTUsNy4xOTEgMTYuNzU5Mjg5NSw3IDE2LjUwNjI4OTUsNyBMMTQuMDA2Mjg5NSw3IEwxNC4wMDYyODk1LDQgTDEzLjAwNjI4OTUsNCBMMTMuMDA2Mjg5NSw3IEwxMS4wMDYyODk1LDcgTDExLjAwNjI4OTUsNCBMMTAuMDA2Mjg5NSw0IEwxMC4wMDYyODk1LDcgTDguMDA2Mjg5NTMsNyBMOC4wMDYyODk1Myw0IEw3LjAwNjI4OTUzLDQgTDcuMDA2Mjg5NTMsNyBMNC4wMDYyODk1Myw3IEw0LjAwNjI4OTUzLDggTDcuMDA2Mjg5NTMsOCBMNy4wMDYyODk1MywxMCBMNC4wMDYyODk1MywxMCBMNC4wMDYyODk1MywxMSBMNy4wMDYyODk1MywxMSBMNy4wMDYyODk1MywxMyBMNC4wMDYyODk1MywxMyBMNC4wMDYyODk1MywxNCBMNy4wMDYyODk1MywxNCBMNy4wMDYyODk1MywxNi41IFogTTEwLjAwNjI4OTUsMTguMzE4IEMxMC4zNDcyODk1LDE4LjA4MyAxMC42ODIyODk1LDE3Ljg0MSAxMS4wMDYyODk1LDE3LjU5NCBMMTEuMDA2Mjg5NSwyMCBMMTAuMDA2Mjg5NSwyMCBMMTAuMDA2Mjg5NSwxOC4zMTggWiIvPiYjeGE7ICAgIDwvZz4mI3hhOzwvc3ZnPg==;" vertex="1" parent="Z4amRD8m1zhhW-L_DsDk-35">
          <mxGeometry x="1363.699626340954" y="558" width="221.14186990236652" height="221.14186990236652" as="geometry" />
        </mxCell>
        <mxCell id="Z4amRD8m1zhhW-L_DsDk-18" value="" style="shape=image;verticalLabelPosition=bottom;labelBackgroundColor=default;verticalAlign=top;aspect=fixed;imageAspect=0;editableCssRules=.*;image=data:image/svg+xml,PHN2ZyB4bWxuczp4bGluaz0iaHR0cDovL3d3dy53My5vcmcvMTk5OS94bGluayIgeG1sbnM9Imh0dHA6Ly93d3cudzMub3JnLzIwMDAvc3ZnIiB2ZXJzaW9uPSIxLjEiIHZpZXdCb3g9Ii0wLjUgLTAuNSAyNSAyNSIgaGVpZ2h0PSIyNSIgd2lkdGg9IjI1Ij4mI3hhOyAgICAmI3hhOyAgICA8dGl0bGU+SWNvbi1BcmNoaXRlY3R1cmUvMTYvQXJjaF9BV1MtR3JvdW5kLVN0YXRpb25fMTY8L3RpdGxlPiYjeGE7ICAgIDxkZXNjPkNyZWF0ZWQgd2l0aCBTa2V0Y2guPC9kZXNjPiYjeGE7ICAgIDxkZWZzPiYjeGE7ICAgICAgICA8bGluZWFyR3JhZGllbnQgaWQ9ImxpbmVhckdyYWRpZW50LTEiIHkyPSIwJSIgeDI9IjEwMCUiIHkxPSIxMDAlIiB4MT0iMCUiPiYjeGE7ICAgICAgICAgICAgPHN0b3Agb2Zmc2V0PSIwJSIgc3RvcC1jb2xvcj0iIzJFMjdBRCIvPiYjeGE7ICAgICAgICAgICAgPHN0b3Agb2Zmc2V0PSIxMDAlIiBzdG9wLWNvbG9yPSIjNTI3RkZGIi8+JiN4YTsgICAgICAgIDwvbGluZWFyR3JhZGllbnQ+JiN4YTsgICAgPC9kZWZzPiYjeGE7ICAgIDxnIGZpbGwtcnVsZT0iZXZlbm9kZCIgZmlsbD0ibm9uZSIgc3Ryb2tlLXdpZHRoPSIxIiBzdHJva2U9Im5vbmUiIGlkPSJJY29uLUFyY2hpdGVjdHVyZS8xNi9BcmNoX0FXUy1Hcm91bmQtU3RhdGlvbl8xNiI+JiN4YTsgICAgICAgIDxnIGZpbGw9InVybCgjbGluZWFyR3JhZGllbnQtMSkiIGlkPSJJY29uLUFyY2hpdGVjdHVyZS1CRy8xNi9TYXRlbGxpdGUiPiYjeGE7ICAgICAgICAgICAgPHJlY3QgaGVpZ2h0PSIyNCIgd2lkdGg9IjI0IiB5PSIwIiB4PSIwIiBpZD0iUmVjdGFuZ2xlIi8+JiN4YTsgICAgICAgIDwvZz4mI3hhOyAgICAgICAgPHBhdGggZmlsbD0iI0ZGRkZGRiIgaWQ9IkFXUy1Hcm91bmQtU3RhdGlvbl9JY29uXzE2X1NxdWlkIiBkPSJNMTAuMDAyMzA1NiwxOC45OTExNzI4IEwxMS4wMDEzODMzLDE4Ljk5MTE3MjggTDExLjAwMTM4MzMsMTIuOTM4MjA5MyBMMTAuMDAyMzA1NiwxMi45MzgyMDkzIEwxMC4wMDIzMDU2LDE4Ljk5MTE3MjggWiBNNy4wODIwMDEyMyw5LjkxMTcyNzYyIEw3Ljk2MzE4NzgzLDkuOTExNzI3NjIgQzcuOTYwMTkwNTksMTAuNDQwMzUzMSA4LjAzOTExNzc0LDEwLjg5MzMxNjUgOC4xNjc5OTg3NywxMS4yNzM2NDQ0IEM3LjY2MzQ2NDQ5LDEwLjkwNDQxMzYgNy4yNTA4NDUzNywxMC40MjgyNDcyIDcuMDgyMDAxMjMsOS45MTE3Mjc2MiBMNy4wODIwMDEyMyw5LjkxMTcyNzYyIFogTTEyLjgyMDcwNCwxMS4yOTE4MDMzIEMxMi45NTI1ODIyLDEwLjkwNzQ0MDEgMTMuMDMyNTA4NSwxMC40NDg0MjM3IDEzLjAyOTUxMTIsOS45MTE3Mjc2MiBMMTMuOTYzNjQ4OSw5LjkxMTcyNzYyIEMxMy43ODU4MTMxLDEwLjQ1NTQ4NTUgMTMuMzM5MjI1MywxMC45MzA2NDMxIDEyLjgyMDcwNCwxMS4yOTE4MDMzIEwxMi44MjA3MDQsMTEuMjkxODAzMyBaIE0xMS4zMDgxMDAyLDExLjkyOTM4MjEgTDExLjAwMTM4MzMsMTEuOTI5MzgyMSBMMTEuMDAxMzgzMyw5LjkxMTcyNzYyIEwxMi4wMzU0Mjg4LDkuOTExNzI3NjIgQzEyLjA0NDQyMDUsMTEuMDU2NzQ2NSAxMS41MzU4ODk5LDExLjcwMjM5NiAxMS4zMDgxMDAyLDExLjkyOTM4MjEgTDExLjMwODEwMDIsMTEuOTI5MzgyMSBaIE04Ljk1NjI3MTEzLDkuOTExNzI3NjIgTDEwLjAwMjMwNTYsOS45MTE3Mjc2MiBMMTAuMDAyMzA1NiwxMS45MjkzODIxIEw5LjY5MjU5MTQ1LDExLjkyOTM4MjEgQzkuNDYzODAyNjQsMTEuNzA0NDEzNiA4Ljk0ODI3ODUxLDExLjA1ODc2NDIgOC45NTYyNzExMyw5LjkxMTcyNzYyIEw4Ljk1NjI3MTEzLDkuOTExNzI3NjIgWiBNMTUuMDQ0NjUxMSw5LjQwNzMxNCBDMTUuMDQ0NjUxMSw5LjEyODg3NzY4IDE0LjgyMDg1NzcsOC45MDI5MDAzOCAxNC41NDUxMTIyLDguOTAyOTAwMzggTDYuNDk5NTM4ODksOC45MDI5MDAzOCBDNi4yMjM3OTM0Miw4LjkwMjkwMDM4IDYsOS4xMjg4Nzc2OCA2LDkuNDA3MzE0IEM2LDEwLjk5NTIwODEgNy40OTI2MjIxOSwxMi4zMzI5MTMgOS4wMDMyMjc3OSwxMi44MTEwOTcxIEw5LjAwMzIyNzc5LDE5LjQ5NTU4NjQgQzkuMDAzMjI3NzksMTkuNzc0MDIyNyA5LjIyNjAyMjEzLDIwIDkuNTAyNzY2NjgsMjAgTDExLjUwMDkyMjIsMjAgQzExLjc3NjY2NzcsMjAgMTIuMDAwNDYxMSwxOS43NzQwMjI3IDEyLjAwMDQ2MTEsMTkuNDk1NTg2NCBMMTIuMDAwNDYxMSwxMi44MTIxMDU5IEMxMy41MzEwNDgzLDEyLjMzMTkwNDIgMTUuMDQ0NjUxMSwxMC45OTExNzI4IDE1LjA0NDY1MTEsOS40MDczMTQgTDE1LjA0NDY1MTEsOS40MDczMTQgWiBNMTAuNDc3ODY2Niw1Ljc1NjM2ODIyIEMxMS40MTc5OTg4LDUuNzU2MzY4MjIgMTIuMjYxMjIwNCw2LjI4Mzk4NDg3IDEyLjY3OTgzNCw3LjEzMzQxNzQgTDExLjc4NDY2MDMsNy41ODIzNDU1MiBDMTEuNTM1ODg5OSw3LjA3NzkzMTkgMTEuMDM1MzUyLDYuNzY1MTk1NDYgMTAuNDc3ODY2Niw2Ljc2NTE5NTQ2IEM5LjkyMTM4MDI2LDYuNzY1MTk1NDYgOS40MjE4NDEzOCw3LjA3NzkzMTkgOS4xNzQwNzAwOSw3LjU4MjM0NTUyIEw4LjI3ODg5NjQsNy4xMzM0MTc0IEM4LjY5NjUxMDkxLDYuMjgzOTg0ODcgOS41Mzk3MzI1NSw1Ljc1NjM2ODIyIDEwLjQ3Nzg2NjYsNS43NTYzNjgyMiBMMTAuNDc3ODY2Niw1Ljc1NjM2ODIyIFogTTcuNjEzNTEwNjEsNi44MDI1MjIwNyBMNi43MjAzMzUwOCw2LjM1MzU5Mzk1IEM3LjQzNDY3NTY4LDQuOTAxODkxNTUgOC44NzQzNDY3Niw0IDEwLjQ3Nzg2NjYsNCBDMTIuMDc3MzkwMSw0IDEzLjUxNTA2Myw0Ljg5Nzg1NjI0IDE0LjIzMjQwMDksNi4zNDM1MDU2NyBMMTMuMzM5MjI1Myw2Ljc5NDQ1MTQ1IEMxMi43OTI3Mjk4LDUuNjkyODEyMTEgMTEuNjk2NzQxNSw1LjAwODgyNzI0IDEwLjQ3Nzg2NjYsNS4wMDg4MjcyNCBDOS4yNTY5OTM1NCw1LjAwODgyNzI0IDguMTU5MDA3MDcsNS42OTU4Mzg1OSA3LjYxMzUxMDYxLDYuODAyNTIyMDcgTDcuNjEzNTEwNjEsNi44MDI1MjIwNyBaIE0xNC4wMTM2MDI4LDE4Ljk5MTE3MjggTDE1LjAxMjY4MDYsMTguOTkxMTcyOCBMMTUuMDEyNjgwNiwxNC45NTU4NjM4IEwxNC4wMTM2MDI4LDE0Ljk1NTg2MzggTDE0LjAxMzYwMjgsMTguOTkxMTcyOCBaIE0xOSwxMS40MjQ5Njg1IEMxOSwxMS4xNDY1MzIyIDE4Ljc3NjIwNjYsMTAuOTIwNTU0OSAxOC41MDA0NjExLDEwLjkyMDU1NDkgTDE1LjUxMjIxOTUsMTAuOTIwNTU0OSBMMTUuNTEyMjE5NSwxMS45MjkzODIxIEwxNy44ODUwMjkyLDExLjkyOTM4MjEgQzE3LjU4NzMwNCwxMi42MDEyNjEgMTYuNzE5MTA1NCwxMy4zMTE0NzU0IDE1LjQwMDMyMjgsMTMuOTQ3MDM2NiBMMTQuMDEzNjAyOCwxMy45NDcwMzY2IEwxNC4wMTM2MDI4LDEyLjkzODIwOTMgTDEzLjAxNDUyNTEsMTIuOTM4MjA5MyBMMTMuMDE0NTI1MSwxOS40OTU1ODY0IEMxMy4wMTQ1MjUxLDE5Ljc3NDAyMjcgMTMuMjM4MzE4NSwyMCAxMy41MTQwNjM5LDIwIEwxNS41MTIyMTk1LDIwIEMxNS43ODg5NjQsMjAgMTYuMDExNzU4NCwxOS43NzQwMjI3IDE2LjAxMTc1ODQsMTkuNDk1NTg2NCBMMTYuMDExNzU4NCwxNC43NjQxODY2IEMxNy40Mzc0NDI0LDE0LjA0ODkyODEgMTksMTIuOTI2MTAzNCAxOSwxMS40MjQ5Njg1IEwxOSwxMS40MjQ5Njg1IFoiLz4mI3hhOyAgICA8L2c+JiN4YTs8L3N2Zz4=;" vertex="1" parent="Z4amRD8m1zhhW-L_DsDk-35">
          <mxGeometry x="1620.8413355297523" y="815.1428571428572" width="221.14186990236652" height="221.14186990236652" as="geometry" />
        </mxCell>
        <mxCell id="Z4amRD8m1zhhW-L_DsDk-19" value="" style="shape=image;verticalLabelPosition=bottom;labelBackgroundColor=default;verticalAlign=top;aspect=fixed;imageAspect=0;editableCssRules=.*;image=data:image/svg+xml,PHN2ZyB4bWxuczp4bGluaz0iaHR0cDovL3d3dy53My5vcmcvMTk5OS94bGluayIgeG1sbnM9Imh0dHA6Ly93d3cudzMub3JnLzIwMDAvc3ZnIiB2ZXJzaW9uPSIxLjEiIHZpZXdCb3g9Ii0wLjUgLTAuNSAyNSAyNSIgaGVpZ2h0PSIyNSIgd2lkdGg9IjI1Ij4mI3hhOyAgICAmI3hhOyAgICA8dGl0bGU+SWNvbi1BcmNoaXRlY3R1cmUvMTYvQXJjaF9BbWF6b24tQ2xvdWRXYXRjaF8xNjwvdGl0bGU+JiN4YTsgICAgPGRlc2M+Q3JlYXRlZCB3aXRoIFNrZXRjaC48L2Rlc2M+JiN4YTsgICAgPGRlZnM+JiN4YTsgICAgICAgIDxsaW5lYXJHcmFkaWVudCBpZD0ibGluZWFyR3JhZGllbnQtMSIgeTI9IjAlIiB4Mj0iMTAwJSIgeTE9IjEwMCUiIHgxPSIwJSI+JiN4YTsgICAgICAgICAgICA8c3RvcCBvZmZzZXQ9IjAlIiBzdG9wLWNvbG9yPSIjQjAwODREIi8+JiN4YTsgICAgICAgICAgICA8c3RvcCBvZmZzZXQ9IjEwMCUiIHN0b3AtY29sb3I9IiNGRjRGOEIiLz4mI3hhOyAgICAgICAgPC9saW5lYXJHcmFkaWVudD4mI3hhOyAgICA8L2RlZnM+JiN4YTsgICAgPGcgZmlsbC1ydWxlPSJldmVub2RkIiBmaWxsPSJub25lIiBzdHJva2Utd2lkdGg9IjEiIHN0cm9rZT0ibm9uZSIgaWQ9Ikljb24tQXJjaGl0ZWN0dXJlLzE2L0FyY2hfQW1hem9uLUNsb3VkV2F0Y2hfMTYiPiYjeGE7ICAgICAgICA8ZyBmaWxsPSJ1cmwoI2xpbmVhckdyYWRpZW50LTEpIiBpZD0iSWNvbi1BcmNoaXRlY3R1cmUtQkcvMTYvTWFuYWdlbWVudC1Hb3Zlcm5hbmNlIj4mI3hhOyAgICAgICAgICAgIDxyZWN0IGhlaWdodD0iMjQiIHdpZHRoPSIyNCIgeT0iMCIgeD0iMCIgaWQ9IlJlY3RhbmdsZSIvPiYjeGE7ICAgICAgICA8L2c+JiN4YTsgICAgICAgIDxwYXRoIGZpbGw9IiNGRkZGRkYiIGlkPSJBbWF6b24tQ2xvdWRXYXRjaF9JY29uXzE2X1NxdWlkIiBkPSJNMTguOTA3NDM2OCwxOC41MjIzNjkgTDE2Ljk1Mjc4ODYsMTYuNzg3OTcyNiBDMTYuODIxMDE0NSwxNi45Mjc2Njg4IDE2LjY3ODI1OTMsMTcuMDUyNjA4MyAxNi41Mjg1MTYxLDE3LjE3MjYyODkgTDE4LjUyMjA5NzUsMTguOTQ1MzkyNSBDMTguNjM4ODk3MiwxOS4wNDg2ODkgMTguODIzNTgwNiwxOS4wNDA4MTg4IDE4LjkzMDM5NzQsMTguOTIyNzY1NyBDMTkuMDM1MjE3NiwxOC44MDg2NDc3IDE5LjAyNTIzNDgsMTguNjI3NjMzIDE4LjkwNzQzNjgsMTguNTIyMzY5IE0xNC4wMjQ4MDk1LDE3LjA4MzEwNTMgQzE1LjY3Njk3NjMsMTcuMDgzMTA1MyAxNy4wMTk2NzM5LDE1Ljc1ODk0MzMgMTcuMDE5NjczOSwxNC4xMzE3Nzg1IEMxNy4wMTk2NzM5LDEyLjUwNDYxMzYgMTUuNjc2OTc2MywxMS4xODA0NTE2IDE0LjAyNDgwOTUsMTEuMTgwNDUxNiBDMTIuMzczNjQwOSwxMS4xODA0NTE2IDExLjAyOTk0NTEsMTIuNTA0NjEzNiAxMS4wMjk5NDUxLDE0LjEzMTc3ODUgQzExLjAyOTk0NTEsMTUuNzU4OTQzMyAxMi4zNzM2NDA5LDE3LjA4MzEwNTMgMTQuMDI0ODA5NSwxNy4wODMxMDUzIE0xOS42NzIxMjU1LDE5LjU4MTg5NTQgQzE5LjQxNzU2MiwxOS44NTkzMjAxIDE5LjA2NTE2NjMsMjAgMTguNzEzNzY4OSwyMCBDMTguNDA2Mjk2MSwyMCAxOC4wOTg4MjM0LDE5Ljg5Mzc1MjIgMTcuODU0MjQyOCwxOS42NzYzMzc4IEwxNS42NTEwMjA5LDE3LjcxODYyNDMgQzE1LjE1Mjg3NTEsMTcuOTM4MDA2MyAxNC42MDQ4MTQ5LDE4LjA2Njg4MDkgMTQuMDI0ODA5NSwxOC4wNjY4ODA5IEMxMS44MjI1ODU4LDE4LjA2Njg4MDkgMTAuMDMxNjU2OSwxNi4zMDE5ODc1IDEwLjAzMTY1NjksMTQuMTMxNzc4NSBDMTAuMDMxNjU2OSwxMS45NjI1NTMyIDExLjgyMjU4NTgsMTAuMTk2Njc2IDE0LjAyNDgwOTUsMTAuMTk2Njc2IEMxNi4yMjcwMzMxLDEwLjE5NjY3NiAxOC4wMTc5NjIsMTEuOTYyNTUzMiAxOC4wMTc5NjIsMTQuMTMxNzc4NSBDMTguMDE3OTYyLDE0LjgwMTcyOTcgMTcuODMxMjgyMSwxNS40MjM0NzU4IDE3LjUzMDc5NzQsMTUuOTc2MzU3NyBMMTkuNTc2Mjg5OCwxNy43OTI0MDc1IEMyMC4xMDEzODk0LDE4LjI2MDY4NDcgMjAuMTQ0MzE1OCwxOS4wNjM0NDU2IDE5LjY3MjEyNTUsMTkuNTgxODk1NCBNNi41Mzc2NDg0NSwxNC4xMzE3Nzg1IEw5LjAzMzM2ODc5LDE0LjEzMTc3ODUgTDkuMDMzMzY4NzksMTUuMTE1NTU0MSBMNi41Mzc2NDg0NSwxNS4xMTU1NTQxIEM1LjMxMjc0ODksMTUuMTE1NTU0MSA0LDEzLjk1OTYxNzcgNCwxMi4yMzg5OTQyIEM0LDEwLjg0NTk2NzkgNC43NTE3MTA5Nyw5Ljc3NjYwMzgxIDYuMDMyNTE0NjUsOS4zMDgzMjY2MiBDNi4wMzE1MTYzNiw5LjI3Mzg5NDQ3IDYuMDMxNTE2MzYsOS4yMzg0Nzg1NSA2LjAzMTUxNjM2LDkuMjA0MDQ2NCBDNi4wMzE1MTYzNiw3LjYwOTM0NjEzIDcuMTI5NjMzMzEsNS45NTQ2MzU1NSA4LjU4NzEzMzk5LDUuMzU1NTE2MiBDMTAuMjgzMjI1NSw0LjY1NTA2Nzk2IDEyLjA4NzEzMjIsNS4wMDIzNDA3NSAxMy40MDA4Nzk0LDYuMjg1MTg0MTUgQzEzLjc0OTI4MTksNi42MjQ1ODY3NCAxNC4wNDM3NzY5LDcuMDI0OTgzNDIgMTQuMjgxMzY5NSw3LjQ4MTQ1NTMgQzE0LjYwMjgxODMsNy4yODI3MzI2MyAxNC45NzMxODMyLDcuMTc0NTE3MzEgMTUuMzU4NTIyNCw3LjE3NDUxNzMxIEMxNi4yNjE5NzMyLDcuMTc0NTE3MzEgMTcuMjcyMjQwOCw3LjgxNTkzOTAxIDE3LjUwNDg0MTksOS4yMTM4ODQxNiBDMTguNzU5NjkwMSw5LjU0MjQ2NTIxIDE5Ljk3MjYxMDIsMTAuNDgyOTU0NyAxOS45NzI2MTAyLDEyLjI2MDYzNzIgQzE5Ljk3MjYxMDIsMTIuNjMzNDg4MiAxOS45MjA2OTkyLDEyLjk4NzY0NzQgMTkuODE1ODc5LDEzLjMxMTMwOTYgTDE4Ljg2NDUxMDQsMTMuMDE0MjA5NCBDMTguOTM3Mzg1NCwxMi43ODU5NzM0IDE4Ljk3NDMyMjEsMTIuNTMzMTQzMSAxOC45NzQzMjIxLDEyLjI2MDYzNzIgQzE4Ljk3NDMyMjEsMTAuNjE0NzgwNiAxNy41NjM3NDA5LDEwLjIwMzU2MjQgMTYuOTU3NzgsMTAuMTAzMjE3MyBDMTYuODI1MDA3NywxMC4wODA1OTA1IDE2LjcwNzIwOTcsMTAuMDA3NzkxMSAxNi42MzEzMzk4LDkuODk4NTkxOTkgQzE2LjU1NDQ3MTYsOS43OTAzNzY2NyAxNi41MjQ1MjMsOS42NTU1OTk0MSAxNi41NTA0Nzg1LDkuNTI1NzQxMDMgQzE2LjQ3MzYxMDMsOC41NDE5NjU0MSAxNS44NTk2NjMxLDguMTU4MjkyOTIgMTUuMzU4NTIyNCw4LjE1ODI5MjkyIEMxNS4wMjcwOTA4LDguMTU4MjkyOTIgMTQuNzE0NjI2Niw4LjMxOTYzMjEzIDE0LjUwMDk5MjksOC42MDA5OTE5NSBDMTQuMzkxMTgxMiw4Ljc0NTYwNjk3IDE0LjIxNTQ4MjUsOC44MTU0NTUwNCAxNC4wMjY4MDYxLDguNzkyODI4MiBDMTMuODQ2MTE1OSw4Ljc2NjI2NjI1IDEzLjY5MzM3NzgsOC42NDMyOTQzIDEzLjYzMTQ4MzksOC40NzMxMDExMiBDMTMuNDEyODU4OCw3Ljg3NTk0OTMyIDEzLjA5OTM5NjQsNy4zNzQyMjM3NiAxMi42OTkwODI4LDYuOTgzNjY0ODQgQzEyLjIwOTkyMTYsNi41MDc1MTc0NCAxMC44NjUyMjc1LDUuNDgwNDU1NyA4Ljk3MjQ3MzIxLDYuMjYzNTQxMDkgQzcuODgyMzQyNTcsNi43MTExNTg5OSA3LjAyOTgwNDUsOC4wMDI4NTYzOCA3LjAyOTgwNDUsOS4yMDQwNDY0IEM3LjAyOTgwNDUsOS4zMzg4MjM2NiA3LjAzNjc5MjUxLDkuNDcxNjMzMzcgNy4wNTM3NjM0MSw5LjYwMDUwNzk4IEM3LjA3MjczMDg5LDkuNzQxMTg3ODkgNy4wMjg4MDYyMSw5Ljg4MTg2NzggNi45MzM5Njg4NCw5Ljk4ODExNTU3IEM2Ljg2MDA5NTUxLDEwLjA3MDc1MjcgNi43NjAyNjY3LDEwLjEyNTg0NDIgNi42NTI0NTE1OCwxMC4xNDY1MDM0IEM2LjAyMzUzMDA1LDEwLjMwODgyNjQgNC45OTgyODgxNCwxMC43OTU3OTUzIDQuOTk4Mjg4MTQsMTIuMjM4OTk0MiBDNC45OTgyODgxNCwxMy4zNTQ1OTU3IDUuODA5ODk2MzksMTQuMTMxNzc4NSA2LjUzNzY0ODQ1LDE0LjEzMTc3ODUiLz4mI3hhOyAgICA8L2c+JiN4YTs8L3N2Zz4=;" vertex="1" parent="Z4amRD8m1zhhW-L_DsDk-35">
          <mxGeometry x="1363.699626340954" y="300.8571428571429" width="221.14186990236652" height="221.14186990236652" as="geometry" />
        </mxCell>
        <mxCell id="Z4amRD8m1zhhW-L_DsDk-20" value="" style="shape=image;verticalLabelPosition=bottom;labelBackgroundColor=default;verticalAlign=top;aspect=fixed;imageAspect=0;editableCssRules=.*;image=data:image/svg+xml,PHN2ZyB4bWxuczp4bGluaz0iaHR0cDovL3d3dy53My5vcmcvMTk5OS94bGluayIgeG1sbnM9Imh0dHA6Ly93d3cudzMub3JnLzIwMDAvc3ZnIiB2ZXJzaW9uPSIxLjEiIHZpZXdCb3g9Ii0wLjUgLTAuNSAyNSAyNSIgaGVpZ2h0PSIyNSIgd2lkdGg9IjI1Ij4mI3hhOyAgICAmI3hhOyAgICA8dGl0bGU+SWNvbi1BcmNoaXRlY3R1cmUvMTYvQXJjaF9BV1MtWC1SYXlfMTY8L3RpdGxlPiYjeGE7ICAgIDxkZXNjPkNyZWF0ZWQgd2l0aCBTa2V0Y2guPC9kZXNjPiYjeGE7ICAgIDxkZWZzPiYjeGE7ICAgICAgICA8bGluZWFyR3JhZGllbnQgaWQ9ImxpbmVhckdyYWRpZW50LTEiIHkyPSIwJSIgeDI9IjEwMCUiIHkxPSIxMDAlIiB4MT0iMCUiPiYjeGE7ICAgICAgICAgICAgPHN0b3Agb2Zmc2V0PSIwJSIgc3RvcC1jb2xvcj0iIzJFMjdBRCIvPiYjeGE7ICAgICAgICAgICAgPHN0b3Agb2Zmc2V0PSIxMDAlIiBzdG9wLWNvbG9yPSIjNTI3RkZGIi8+JiN4YTsgICAgICAgIDwvbGluZWFyR3JhZGllbnQ+JiN4YTsgICAgPC9kZWZzPiYjeGE7ICAgIDxnIGZpbGwtcnVsZT0iZXZlbm9kZCIgZmlsbD0ibm9uZSIgc3Ryb2tlLXdpZHRoPSIxIiBzdHJva2U9Im5vbmUiIGlkPSJJY29uLUFyY2hpdGVjdHVyZS8xNi9BcmNoX0FXUy1YLVJheV8xNiI+JiN4YTsgICAgICAgIDxnIGZpbGw9InVybCgjbGluZWFyR3JhZGllbnQtMSkiIGlkPSJJY29uLUFyY2hpdGVjdHVyZS1CRy8xNi9EZXZlbG9wZXItVG9vbHMiPiYjeGE7ICAgICAgICAgICAgPHJlY3QgaGVpZ2h0PSIyNCIgd2lkdGg9IjI0IiB5PSIwIiB4PSIwIiBpZD0iUmVjdGFuZ2xlIi8+JiN4YTsgICAgICAgIDwvZz4mI3hhOyAgICAgICAgPHBhdGggZmlsbD0iI0ZGRkZGRiIgaWQ9IkFXUy1YLVJheV9JY29uXzE2X1NxdWlkIiBkPSJNMTMuMzYxOTI4MSwxNS4wMjAxMjM2IEwxMi4zNDA2ODYzLDE1LjAyMDEyMzYgTDEyLjM0MDY4NjMsMTQuMDI1MTU0NSBMMTEuMzE5NDQ0NCwxNC4wMjUxNTQ1IEwxMS4zMTk0NDQ0LDE1LjAyMDEyMzYgTDExLjMxOTQ0NDQsMTYuMDE1MDkyNyBMMTIuMzQwNjg2MywxNi4wMTUwOTI3IEwxMy4zNjE5MjgxLDE2LjAxNTA5MjcgTDE0LjM4MzE2OTksMTYuMDE1MDkyNyBMMTQuMzgzMTY5OSwxNS4wMjAxMjM2IEwxNC4zODMxNjk5LDEzLjAzMDE4NTQgTDEzLjM2MTkyODEsMTMuMDMwMTg1NCBMMTMuMzYxOTI4MSwxNS4wMjAxMjM2IFogTTE2LjQyNTY1MzYsMTQuNTIyNjM5MSBDMTYuNDI1NjUzNiwxMi42MDIzNDg3IDE0LjgyMjMwMzksMTEuMDQwMjQ3MyAxMi44NTEzMDcyLDExLjA0MDI0NzMgQzEwLjg4MDMxMDUsMTEuMDQwMjQ3MyA5LjI3Njk2MDc4LDEyLjYwMjM0ODcgOS4yNzY5NjA3OCwxNC41MjI2MzkxIEM5LjI3Njk2MDc4LDE2LjQ0MjkyOTQgMTAuODgwMzEwNSwxOC4wMDUwMzA5IDEyLjg1MTMwNzIsMTguMDA1MDMwOSBDMTQuODIyMzAzOSwxOC4wMDUwMzA5IDE2LjQyNTY1MzYsMTYuNDQyOTI5NCAxNi40MjU2NTM2LDE0LjUyMjYzOTEgTDE2LjQyNTY1MzYsMTQuNTIyNjM5MSBaIE0xNy40NDY4OTU0LDE0LjUyMjYzOTEgQzE3LjQ0Njg5NTQsMTYuOTkxMTU3NCAxNS4zODUwMDgyLDE5IDEyLjg1MTMwNzIsMTkgQzEwLjMxNzYwNjIsMTkgOC4yNTU3MTg5NSwxNi45OTExNTc0IDguMjU1NzE4OTUsMTQuNTIyNjM5MSBDOC4yNTU3MTg5NSwxMi4wNTQxMjA4IDEwLjMxNzYwNjIsMTAuMDQ1Mjc4MiAxMi44NTEzMDcyLDEwLjA0NTI3ODIgQzE1LjM4NTAwODIsMTAuMDQ1Mjc4MiAxNy40NDY4OTU0LDEyLjA1NDEyMDggMTcuNDQ2ODk1NCwxNC41MjI2MzkxIEwxNy40NDY4OTU0LDE0LjUyMjYzOTEgWiBNMjAsMTEuNjQyMjAzNiBDMjAsMTMuMjQxMTE4OSAxOS4wOTYyMDEsMTQuMjgwODYxNiAxNy41MjE0NDYxLDE0LjQ5NTc3NDkgTDE3LjM4MDUxNDcsMTMuNTEwNzU1NSBDMTguNDQxNTg1LDEzLjM2NTQ5IDE4Ljk3ODc1ODIsMTIuNzM3NjY0NSAxOC45Nzg3NTgyLDExLjY0MjIwMzYgQzE4Ljk3ODc1ODIsMTAuNjE1Mzk1NSAxOC4zNTI3MzY5LDkuOTcxNjUwNDYgMTcuMTE3MDM0Myw5LjcyOTg3Mjk3IEMxNi44ODkyOTc0LDkuNjg1MDk5MzYgMTYuNzIwNzkyNSw5LjQ5NjA1NTIzIDE2LjcwNzUxNjMsOS4yNzAxOTcyNSBDMTYuNjUyMzY5Myw4LjMxMDA1MjA3IDE2LjEwNjAwNDksNy45Njk3NzI2NCAxNS42NTM1OTQ4LDcuOTY5NzcyNjQgQzE1LjM1MjMyODQsNy45Njk3NzI2NCAxNS4wNzE0ODY5LDguMTA5MDY4MzIgMTQuODgwNTE0Nyw4LjM1MTg0MDc4IEMxNC43NjgxNzgxLDguNDk2MTExMjkgMTQuNTg4NDM5NSw4LjU2NDc2NDE2IDE0LjM5OTUwOTgsOC41NDI4NzQ4NCBDMTQuMjE1Njg2Myw4LjUxNTAxNTcxIDE0LjA2MTQ3ODgsOC4zOTM2Mjk0OCAxMy45OTYxMTkzLDguMjIyNDk0NzkgQzEzLjc5NTk1NTksNy42OTQxNjYyMSAxMy40OTk3OTU4LDcuMjM1NDg1NDUgMTMuMTQwMzE4Niw2Ljg5NTIwNjAzIEMxMi42ODk5NTEsNi40NjYzNzQzNSAxMS40NTUyNjk2LDUuNTQ0MDM4IDkuNzAwNzc2MTQsNi4yNDY0ODYxOCBDOC43MTczMjAyNiw2LjYzOTQ5ODk3IDcuOTE3Njg3OTEsNy44MTU1NTI0NCA3LjkxNzY4NzkxLDguODY3MjM0NzcgQzcuOTE3Njg3OTEsOC45ODg2MjEgNy45MjU4NTc4NCw5LjEwOTAxMjI2IDcuOTM5MTMzOTksOS4yMjU0MjM2NCBDNy45NzA3OTI0OCw5LjQ3NDE2NTkxIDcuODA2MzcyNTUsOS43MDc5ODM2NSA3LjU1NTE0NzA2LDkuNzY3NjgxNzkgQzYuODU1NTk2NDEsOS45MzY4MjY1NCA2LjAyMjI2MzA3LDEwLjM5NTUwNzMgNi4wMjIyNjMwNywxMS42MjIzMDQyIEw2LjAyNjM0ODA0LDExLjc2MDYwNDkgQzYuMDY5MjQwMiwxMi41MTU3ODY0IDYuNzQ5Mzg3MjUsMTMuMjA5Mjc5OSA3LjY4MTc4MTA1LDEzLjQ1MjA1MjMgTDcuNDE4MzAwNjUsMTQuNDEzMTkyNSBDNi4wNjQxMzM5OSwxNC4wNjE5Njg0IDUuMDczNTI5NDEsMTIuOTk1MzYxNSA1LjAwNzE0ODY5LDExLjgyMDMwMyBMNSwxMS42MjIzMDQyIEM1LDEwLjM0Njc1MzggNS43MDA1NzE5LDkuMzYzNzI0MzQgNi44OTY0NDYwOCw4LjkyNTkzNzk0IEw2Ljg5NjQ0NjA4LDguODY3MjM0NzcgQzYuODk2NDQ2MDgsNy4zOTk2NTUzNiA3LjkzNjA3MDI2LDUuODc3MzUyNjQgOS4zMTI3MDQyNSw1LjMyNjEzOTc3IEMxMC45MTUwMzI3LDQuNjgyMzk0NzYgMTIuNjE0Mzc5MSw1LjAwMzc2OTc4IDEzLjg1MzE0NTQsNi4xODI4MDgxNiBDMTQuMTYzNjAyOSw2LjQ3NzMxOTAxIDE0LjQzNjI3NDUsNi44MzQ1MTI5MSAxNC42NTg5MDUyLDcuMjM3NDc1MzkgQzE1LjY3NjA2MjEsNi42NTY0MTM0NCAxNy4zNjgyNTk4LDcuMDI5NTI2ODUgMTcuNjgzODIzNSw4Ljg0MDM3MDYgQzE5LjE2MjU4MTcsOS4yNDYzMTc5OSAyMCwxMC4yNTIyMzE3IDIwLDExLjY0MjIwMzYgTDIwLDExLjY0MjIwMzYgWiIvPiYjeGE7ICAgIDwvZz4mI3hhOzwvc3ZnPg==;" vertex="1" parent="Z4amRD8m1zhhW-L_DsDk-35">
          <mxGeometry x="77.99108039696253" y="300.8571428571429" width="221.14186990236652" height="221.14186990236652" as="geometry" />
        </mxCell>
        <mxCell id="Z4amRD8m1zhhW-L_DsDk-21" value="" style="shape=image;verticalLabelPosition=bottom;labelBackgroundColor=default;verticalAlign=top;aspect=fixed;imageAspect=0;editableCssRules=.*;image=data:image/svg+xml,PHN2ZyB4bWxuczp4bGluaz0iaHR0cDovL3d3dy53My5vcmcvMTk5OS94bGluayIgeG1sbnM9Imh0dHA6Ly93d3cudzMub3JnLzIwMDAvc3ZnIiB2ZXJzaW9uPSIxLjEiIHZpZXdCb3g9Ii0wLjUgLTAuNSAyNSAyNSIgaGVpZ2h0PSIyNSIgd2lkdGg9IjI1Ij4mI3hhOyAgICAmI3hhOyAgICA8dGl0bGU+SWNvbi1BcmNoaXRlY3R1cmUvMTYvQXJjaF9BbWF6b24tRWxhc3RpYy1Db250YWluZXItU2VydmljZV8xNjwvdGl0bGU+JiN4YTsgICAgPGRlc2M+Q3JlYXRlZCB3aXRoIFNrZXRjaC48L2Rlc2M+JiN4YTsgICAgPGRlZnM+JiN4YTsgICAgICAgIDxsaW5lYXJHcmFkaWVudCBpZD0ibGluZWFyR3JhZGllbnQtMSIgeTI9IjAlIiB4Mj0iMTAwJSIgeTE9IjEwMCUiIHgxPSIwJSI+JiN4YTsgICAgICAgICAgICA8c3RvcCBvZmZzZXQ9IjAlIiBzdG9wLWNvbG9yPSIjQzg1MTFCIi8+JiN4YTsgICAgICAgICAgICA8c3RvcCBvZmZzZXQ9IjEwMCUiIHN0b3AtY29sb3I9IiNGRjk5MDAiLz4mI3hhOyAgICAgICAgPC9saW5lYXJHcmFkaWVudD4mI3hhOyAgICA8L2RlZnM+JiN4YTsgICAgPGcgZmlsbC1ydWxlPSJldmVub2RkIiBmaWxsPSJub25lIiBzdHJva2Utd2lkdGg9IjEiIHN0cm9rZT0ibm9uZSIgaWQ9Ikljb24tQXJjaGl0ZWN0dXJlLzE2L0FyY2hfQW1hem9uLUVsYXN0aWMtQ29udGFpbmVyLVNlcnZpY2VfMTYiPiYjeGE7ICAgICAgICA8ZyBmaWxsPSJ1cmwoI2xpbmVhckdyYWRpZW50LTEpIiBpZD0iSWNvbi1BcmNoaXRlY3R1cmUtQkcvMTYvQ29udGFpbmVycyI+JiN4YTsgICAgICAgICAgICA8cmVjdCBoZWlnaHQ9IjI0IiB3aWR0aD0iMjQiIHk9IjAiIHg9IjAiIGlkPSJSZWN0YW5nbGUiLz4mI3hhOyAgICAgICAgPC9nPiYjeGE7ICAgICAgICA8cGF0aCBmaWxsPSIjRkZGRkZGIiBpZD0iQW1hem9uLUVsYXN0aWMtQ29udGFpbmVyLVNlcnZpY2VfSWNvbl8xNl9TcXVpZCIgZD0iTTE4Ljk5NTEwOTUsMTQuMDU2OTkxNCBMMTcuMDM2NTc4LDEyLjUzNjIyNDkgTDE3LjAzNjU3OCw5LjcwNzI2MTQ0IEMxNy4wMzY1NzgsOS41MzU0MTc4IDE2Ljk0NzE0MjgsOS4zNzU0OTM5NSAxNi43OTk0MjM5LDkuMjg1MTAyMjEgTDEzLjk5NTc3OTUsNy41Njc2NTkxNiBMMTMuOTk1Nzc5NSw1LjM4NDM1MDk4IEwxOC45OTUxMDk1LDguMzEwNjU5MzkgTDE4Ljk5NTEwOTUsMTQuMDU2OTkxNCBaIE0xOS43NTM4MDE4LDcuNjAwNDM4NTggTDEzLjc0OTU4MTMsNC4wODUwOTM4OCBDMTMuNTk0ODI4MiwzLjk5NDcwMjE0IDEzLjQwMDg4NDMsMy45OTI3MTU1MSAxMy4yNDQxMjE0LDQuMDgxMTIwNjIgQzEzLjA4ODM2MzQsNC4xNjk1MjU3MyAxMi45OTA4ODksNC4zMzM0MjI4NCAxMi45OTA4ODksNC41MTIyMTk2OCBMMTIuOTkwODg5LDcuODQzODAwOTYgQzEyLjk5MDg4OSw4LjAxNTY0NDU5IDEzLjA4MTMyOTEsOC4xNzU1Njg0NCAxMy4yMjgwNDMxLDguMjY1OTYwMTggTDE2LjAzMTY4NzUsOS45ODM0MDMyNCBMMTYuMDMxNjg3NSwxMi43Nzc2MDA2IEMxNi4wMzE2ODc1LDEyLjkyOTU3OCAxNi4xMDMwMzQ4LDEzLjA3MzYwODggMTYuMjI0NjI2NSwxMy4xNjc5NzM4IEwxOS4xODcwNDM2LDE1LjQ3MDQ3OTggQzE5LjI3NzQ4MzgsMTUuNTQxMDA1MyAxOS4zODYwMTE5LDE1LjU3Njc2NDYgMTkuNDk3NTU0OCwxNS41NzY3NjQ2IEMxOS41NzE5MTY3LDE1LjU3Njc2NDYgMTkuNjQ3MjgzNCwxNS41NTk4NzgzIDE5LjcxNjYyMDksMTUuNTI2MTA1NSBDMTkuODg5NDYyLDE1LjQ0MzY2MDMgMjAsMTUuMjY5ODMgMjAsMTUuMDgwMTA2NyBMMjAsOC4wMjc1NjQzOCBDMjAsNy44NTE3NDc0OCAxOS45MDY1NDUyLDcuNjg4ODQzNjkgMTkuNzUzODAxOCw3LjYwMDQzODU4IEwxOS43NTM4MDE4LDcuNjAwNDM4NTggWiBNMTIuNTM0NjY4NywxOC45NTkwMDUgTDYuMDA0ODkwNDcsMTUuNjcwMTM2MyBMNi4wMDQ4OTA0Nyw4LjMwOTY2NjA4IEwxMC45ODcxMzc0LDUuMzcxNDM3ODcgTDEwLjk4NzEzNzQsNy41NTU3MzkzNyBMOC4yNDc4MDU5OSw5LjI3MDIwMjQ4IEM4LjEwMzEwMTc2LDkuMzYxNTg3NTMgOC4wMTQ2NzE0LDkuNTE5NTI0NzUgOC4wMTQ2NzE0LDkuNjkwMzc1MDcgTDguMDE0NjcxNCwxNC4yNTY2NDc5IEM4LjAxNDY3MTQsMTQuNDQ1Mzc3OSA4LjEyMjE5NDY4LDE0LjYxNzIyMTYgOC4yOTQwMzA5NSwxNC43MDE2NTM0IEwxMi4yNTYzMTQxLDE2LjY0MjU5MjUgQzEyLjM5Njk5ODcsMTYuNzEyMTI0NiAxMi41NjQ4MTU0LDE2LjcxMDEzOCAxMi43MDY1MDUsMTYuNjM5NjEyNiBMMTUuODE2NjQxLDE1LjA3NTE0MDEgTDE3LjkwNTgwODMsMTYuODE1NDI5NSBMMTIuNTM0NjY4NywxOC45NTkwMDUgWiBNMTYuMjA4NTQ4MywxNC4xMDM2NzczIEMxNi4wNTU4MDQ5LDEzLjk3NTUzOTUgMTUuODM1NzMzOSwxMy45NTE3IDE1LjY1Njg2MzQsMTQuMDQxMDk4NCBMMTIuNDc1MzgwMiwxNS42NDEzMzAyIEw5LjAxOTU2MTg3LDEzLjk0ODcyIEw5LjAxOTU2MTg3LDkuOTYyNTQzNjEgTDExLjc1Nzg4ODQsOC4yNDgwODA1IEMxMS45MDM1OTc1LDguMTU2Njk1NDQgMTEuOTkyMDI3OSw3Ljk5ODc1ODIyIDExLjk5MjAyNzksNy44Mjc5MDc5IEwxMS45OTIwMjc5LDQuNDk3MzE5OTUgQzExLjk5MjAyNzksNC4zMTg1MjMxIDExLjg5NDU1MzUsNC4xNTM2MzI2NyAxMS43Mzc3OTA2LDQuMDY1MjI3NTYgQzExLjU3OTAxNzksMy45NzU4MjkxNCAxMS4zODUwNzQsMy45Nzg4MDkwOSAxMS4yMzIzMzA3LDQuMDcxMTg3NDYgTDUuMjQ1MTkzMjcsNy42MDA0Mzg1OCBDNS4wOTM0NTQ4MSw3LjY4OTgzNyA1LDcuODUxNzQ3NDggNSw4LjAyNzU2NDM4IEw1LDE1Ljk3NDA5MSBDNSwxNi4xNjA4MzQzIDUuMTA1NTEzNSwxNi4zMzE2ODQ3IDUuMjc0MzM1MSwxNi40MTYxMTY1IEwxMi4yODI0NDEyLDE5Ljk0NjM2MDkgQzEyLjM1Mjc4MzUsMTkuOTgyMTIwMyAxMi40MzExNjUsMjAgMTIuNTEwNTUxMywyMCBDMTIuNTczODU5NCwyMCAxMi42MzcxNjc1LDE5Ljk4ODA4MDIgMTIuNjk4NDY1OSwxOS45NjQyNDA2IEwxOS4wNTY0MDc5LDE3LjQyODMwNTMgQzE5LjIxOTIwMDEsMTcuMzYyNzQ2NSAxOS4zMzY3NzIzLDE3LjIxNzcyMjQgMTkuMzY0OTA5MiwxNy4wNDQ4ODU0IEMxOS4zOTIwNDEzLDE2Ljg3MzA0MTggMTkuMzI2NzIzNCwxNi42OTkyMTE1IDE5LjE5MjA2ODEsMTYuNTg2OTY2OCBMMTYuMjA4NTQ4MywxNC4xMDM2NzczIFoiLz4mI3hhOyAgICA8L2c+JiN4YTs8L3N2Zz4=;" vertex="1" parent="Z4amRD8m1zhhW-L_DsDk-35">
          <mxGeometry x="77.99108039696253" y="43.714285714285715" width="221.14186990236652" height="221.14186990236652" as="geometry" />
        </mxCell>
        <mxCell id="Z4amRD8m1zhhW-L_DsDk-22" value="" style="shape=image;verticalLabelPosition=bottom;labelBackgroundColor=default;verticalAlign=top;aspect=fixed;imageAspect=0;editableCssRules=.*;image=data:image/svg+xml,PHN2ZyB4bWxuczp4bGluaz0iaHR0cDovL3d3dy53My5vcmcvMTk5OS94bGluayIgeG1sbnM9Imh0dHA6Ly93d3cudzMub3JnLzIwMDAvc3ZnIiB2ZXJzaW9uPSIxLjEiIHZpZXdCb3g9Ii0wLjUgLTAuNSAyNSAyNSIgaGVpZ2h0PSIyNSIgd2lkdGg9IjI1Ij4mI3hhOyAgICAmI3hhOyAgICA8dGl0bGU+SWNvbi1BcmNoaXRlY3R1cmUvMTYvQXJjaF9BbWF6b24tTGlnaHRzYWlsXzE2PC90aXRsZT4mI3hhOyAgICA8ZGVzYz5DcmVhdGVkIHdpdGggU2tldGNoLjwvZGVzYz4mI3hhOyAgICA8ZGVmcz4mI3hhOyAgICAgICAgPGxpbmVhckdyYWRpZW50IGlkPSJsaW5lYXJHcmFkaWVudC0xIiB5Mj0iMCUiIHgyPSIxMDAlIiB5MT0iMTAwJSIgeDE9IjAlIj4mI3hhOyAgICAgICAgICAgIDxzdG9wIG9mZnNldD0iMCUiIHN0b3AtY29sb3I9IiNDODUxMUIiLz4mI3hhOyAgICAgICAgICAgIDxzdG9wIG9mZnNldD0iMTAwJSIgc3RvcC1jb2xvcj0iI0ZGOTkwMCIvPiYjeGE7ICAgICAgICA8L2xpbmVhckdyYWRpZW50PiYjeGE7ICAgIDwvZGVmcz4mI3hhOyAgICA8ZyBmaWxsLXJ1bGU9ImV2ZW5vZGQiIGZpbGw9Im5vbmUiIHN0cm9rZS13aWR0aD0iMSIgc3Ryb2tlPSJub25lIiBpZD0iSWNvbi1BcmNoaXRlY3R1cmUvMTYvQXJjaF9BbWF6b24tTGlnaHRzYWlsXzE2Ij4mI3hhOyAgICAgICAgPGcgZmlsbD0idXJsKCNsaW5lYXJHcmFkaWVudC0xKSIgaWQ9Ikljb24tQXJjaGl0ZWN0dXJlLUJHLzE2L0NvbXB1dGUiPiYjeGE7ICAgICAgICAgICAgPHJlY3QgaGVpZ2h0PSIyNCIgd2lkdGg9IjI0IiB5PSIwIiB4PSIwIiBpZD0iUmVjdGFuZ2xlIi8+JiN4YTsgICAgICAgIDwvZz4mI3hhOyAgICAgICAgPHBhdGggZmlsbD0iI0ZGRkZGRiIgaWQ9IkFtYXpvbi1MaWdodHNhaWwtSWNvbl8xNl9TcXVpZCIgZD0iTTIwLDEyLjUgQzIwLDE2LjYzNiAxNi42MzYsMjAgMTIuNSwyMCBDOS40NTgsMjAgNi43MzgsMTguMTg1IDUuNTcxLDE1LjM3NiBMNi40OTUsMTQuOTkyIEM3LjUwNiwxNy40MjcgOS44NjMsMTkgMTIuNSwxOSBDMTYuMDg0LDE5IDE5LDE2LjA4NCAxOSwxMi41IEMxOSw4LjkxNiAxNi4wODQsNiAxMi41LDYgQzkuODI2LDYgNy4zODYsNy42NzcgNi40MjksMTAuMTczIEw1LjQ5NSw5LjgxNSBDNi42LDYuOTM1IDkuNDE1LDUgMTIuNSw1IEMxNi42MzYsNSAyMCw4LjM2NCAyMCwxMi41IEwyMCwxMi41IFogTTcsMTMgTDEwLDEzIEwxMCwxMiBMNywxMiBMNywxMyBaIE00LDEzIEw2LDEzIEw2LDEyIEw0LDEyIEw0LDEzIFogTTE0LjE5Myw5LjE2MyBDMTQuNzkyLDEwLjAxNCAxNS4zOTIsMTEuMTkyIDE1LjM5MiwxMi41MDEgQzE1LjM5MiwxMy43OTQgMTQuNzM3LDE1LjAyIDE0LjE4OCwxNS44MiBDMTMuODU2LDE0LjM0MyAxMy4yMTMsMTMuMTkyIDEyLjMzMSwxMi41MDEgQzEzLjIxNywxMS44MDcgMTMuODYyLDEwLjY1IDE0LjE5Myw5LjE2MyBMMTQuMTkzLDkuMTYzIFogTTEzLjM4MiwxNy4wODEgQzEzLjQwMiwxNy4yNzcgMTMuNTM3LDE3LjQ0MyAxMy43MjUsMTcuNTA0IEMxMy43NzUsMTcuNTIxIDEzLjgyNywxNy41MjggMTMuODc5LDE3LjUyOCBDMTQuMDE4LDE3LjUyOCAxNC4xNTMsMTcuNDcgMTQuMjUsMTcuMzYzIEMxNC43NTMsMTYuODA2IDE2LjM5MiwxNC44MSAxNi4zOTIsMTIuNTAxIEMxNi4zOTIsMTAuMzMgMTUuMDUxLDguNTIxIDE0LjI1MSw3LjYzNiBDMTQuMTE4LDcuNDkgMTMuOTEzLDcuNDM0IDEzLjcyNSw3LjQ5NiBDMTMuNTM3LDcuNTU3IDEzLjQwMyw3LjcyMyAxMy4zODMsNy45MTkgQzEzLjE2MywxMCAxMi4zMzQsMTEuNTQxIDExLjE2NSwxMi4wNDIgQzEwLjk4MSwxMi4xMiAxMC44NjIsMTIuMzAxIDEwLjg2MiwxMi41MDEgQzEwLjg2MiwxMi43MDEgMTAuOTgxLDEyLjg4MiAxMS4xNjUsMTIuOTYgQzEyLjMzNCwxMy40NjIgMTMuMTYyLDE1LjAwMiAxMy4zODIsMTcuMDgxIEwxMy4zODIsMTcuMDgxIFoiLz4mI3hhOyAgICA8L2c+JiN4YTs8L3N2Zz4=;" vertex="1" parent="Z4amRD8m1zhhW-L_DsDk-35">
          <mxGeometry x="77.99108039696253" y="558" width="221.14186990236652" height="221.14186990236652" as="geometry" />
        </mxCell>
        <mxCell id="Z4amRD8m1zhhW-L_DsDk-23" value="" style="shape=image;verticalLabelPosition=bottom;labelBackgroundColor=default;verticalAlign=top;aspect=fixed;imageAspect=0;editableCssRules=.*;image=data:image/svg+xml,PHN2ZyB4bWxuczp4bGluaz0iaHR0cDovL3d3dy53My5vcmcvMTk5OS94bGluayIgeG1sbnM9Imh0dHA6Ly93d3cudzMub3JnLzIwMDAvc3ZnIiB2ZXJzaW9uPSIxLjEiIHZpZXdCb3g9Ii0wLjUgLTAuNSAyNSAyNSIgaGVpZ2h0PSIyNSIgd2lkdGg9IjI1Ij4mI3hhOyAgICA8dGl0bGU+SWNvbi1BcmNoaXRlY3R1cmUvMTYvQXJjaF9BV1MtQ2xvdWRFbmR1cmUtRGlzYXN0ZXItUmVjb3ZlcnlfMTY8L3RpdGxlPiYjeGE7ICAgIDxkZWZzPiYjeGE7ICAgICAgICA8bGluZWFyR3JhZGllbnQgaWQ9ImxpbmVhckdyYWRpZW50LTEiIHkyPSIwJSIgeDI9IjEwMCUiIHkxPSIxMDAlIiB4MT0iMCUiPiYjeGE7ICAgICAgICAgICAgPHN0b3Agb2Zmc2V0PSIwJSIgc3RvcC1jb2xvcj0iIzFCNjYwRiIvPiYjeGE7ICAgICAgICAgICAgPHN0b3Agb2Zmc2V0PSIxMDAlIiBzdG9wLWNvbG9yPSIjNkNBRTNFIi8+JiN4YTsgICAgICAgIDwvbGluZWFyR3JhZGllbnQ+JiN4YTsgICAgPC9kZWZzPiYjeGE7ICAgIDxnIGZpbGwtcnVsZT0iZXZlbm9kZCIgZmlsbD0ibm9uZSIgc3Ryb2tlLXdpZHRoPSIxIiBzdHJva2U9Im5vbmUiIGlkPSJJY29uLUFyY2hpdGVjdHVyZS8xNi9BcmNoX0FXUy1DbG91ZEVuZHVyZS1EaXNhc3Rlci1SZWNvdmVyeV8xNiI+JiN4YTsgICAgICAgIDxnIGZpbGw9InVybCgjbGluZWFyR3JhZGllbnQtMSkiIGlkPSJSZWN0YW5nbGUiPiYjeGE7ICAgICAgICAgICAgPHJlY3QgaGVpZ2h0PSIyNCIgd2lkdGg9IjI0IiB5PSIwIiB4PSIwIi8+JiN4YTsgICAgICAgIDwvZz4mI3hhOyAgICAgICAgPHBhdGggZmlsbD0iI0ZGRkZGRiIgaWQ9IkFXUy1DbG91ZEVuZHVyZS1EaXNhc3Rlci1SZWNvdmVyeV9JY29uXzE2X1NxdWlkIiBkPSJNMTEuMzExMjQ5NSwxMS42MzczNzggTDEzLjE5NDI0OTUsMTEuNjM3Mzc4IEwxMi4wNTUyNDk1LDEzLjkxMzM3OCBDMTEuOTc4MjQ5NSwxNC4wNjgzNzggMTEuOTg2MjQ5NSwxNC4yNTIzNzggMTIuMDc3MjQ5NSwxNC40MDAzNzggQzEyLjE2ODI0OTUsMTQuNTQ3Mzc4IDEyLjMzMDI0OTUsMTQuNjM3Mzc4IDEyLjUwMjI0OTUsMTQuNjM3Mzc4IEwxMy4wNDIyNDk1LDE0LjYzNzM3OCBMMTEuNjQzMjQ5NSwxNi42MzYzNzggTDExLjk4ODI0OTUsMTUuMjU4Mzc4IEMxMi4wMjUyNDk1LDE1LjEwOTM3OCAxMS45OTIyNDk1LDE0Ljk1MDM3OCAxMS44OTcyNDk1LDE0LjgyOTM3OCBDMTEuODAyMjQ5NSwxNC43MDgzNzggMTEuNjU3MjQ5NSwxNC42MzczNzggMTEuNTAyMjQ5NSwxNC42MzczNzggTDkuODExMjQ5NTEsMTQuNjM3Mzc4IEwxMS4zMTEyNDk1LDExLjYzNzM3OCBaIE0xMC45MTIyNDk1LDE5LjQyNDM3OCBMMTQuNDEyMjQ5NSwxNC40MjQzNzggQzE0LjUxOTI0OTUsMTQuMjcxMzc4IDE0LjUzMjI0OTUsMTQuMDcyMzc4IDE0LjQ0NjI0OTUsMTMuOTA2Mzc4IEMxNC4zNjAyNDk1LDEzLjc0MTM3OCAxNC4xODkyNDk1LDEzLjYzNzM3OCAxNC4wMDIyNDk1LDEzLjYzNzM3OCBMMTMuMzExMjQ5NSwxMy42MzczNzggTDE0LjQ1MDI0OTUsMTEuMzYxMzc4IEMxNC41MjcyNDk1LDExLjIwNjM3OCAxNC41MTkyNDk1LDExLjAyMjM3OCAxNC40MjgyNDk1LDEwLjg3NDM3OCBDMTQuMzM2MjQ5NSwxMC43MjczNzggMTQuMTc1MjQ5NSwxMC42MzczNzggMTQuMDAyMjQ5NSwxMC42MzczNzggTDExLjAwMjI0OTUsMTAuNjM3Mzc4IEMxMC44MTMyNDk1LDEwLjYzNzM3OCAxMC42NDAyNDk1LDEwLjc0NDM3OCAxMC41NTUyNDk1LDEwLjkxMzM3OCBMOC41NTUyNDk1MSwxNC45MTMzNzggQzguNDc4MjQ5NTEsMTUuMDY4Mzc4IDguNDg2MjQ5NTEsMTUuMjUyMzc4IDguNTc3MjQ5NTEsMTUuNDAwMzc4IEM4LjY2ODI0OTUxLDE1LjU0NzM3OCA4LjgzMDI0OTUxLDE1LjYzNzM3OCA5LjAwMjI0OTUxLDE1LjYzNzM3OCBMMTAuODYyMjQ5NSwxNS42MzczNzggTDEwLjAxNzI0OTUsMTkuMDE2Mzc4IEM5Ljk1ODI0OTUxLDE5LjI1MDM3OCAxMC4wNzYyNDk1LDE5LjQ5MjM3OCAxMC4yOTUyNDk1LDE5LjU5MjM3OCBDMTAuMzYyMjQ5NSwxOS42MjIzNzggMTAuNDMyMjQ5NSwxOS42MzczNzggMTAuNTAyMjQ5NSwxOS42MzczNzggQzEwLjY2MjI0OTUsMTkuNjM3Mzc4IDEwLjgxNjI0OTUsMTkuNTYxMzc4IDEwLjkxMjI0OTUsMTkuNDI0Mzc4IEwxMC45MTIyNDk1LDE5LjQyNDM3OCBaIE0xNy4yMDcyNDk1LDE1LjYzNTM3OCBMMTUuMDAxMjQ5NSwxNS42MzQzNzggTDE1LjAwMzI0OTUsMTQuNjM3Mzc4IEwxNy4xNjUyNDk1LDE0LjYzNzM3OCBDMTcuMzExMjQ5NSwxNC42MjAzNzggMTkuMDAyMjQ5NSwxNC4zOTkzNzggMTkuMDAyMjQ5NSwxMi40MzAzNzggQzE5LjAwMjI0OTUsMTAuNzgxMzc4IDE3LjgzOTI0OTUsMTAuMzM1Mzc4IDE3LjE0NjI0OTUsMTAuMjE2Mzc4IEMxNi44NzYyNDk1LDEwLjE2OTM3OCAxNi42OTQyNDk1LDkuOTE0Mzc3OTkgMTYuNzM4MjQ5NSw5LjY0MzM3Nzk5IEMxNi42ODUyNDk1LDguOTYzMzc3OTkgMTYuMzQ3MjQ5NSw4LjQxNzM3Nzk5IDE1LjgzMjI0OTUsOC4yNjYzNzc5OSBDMTUuNDIyMjQ5NSw4LjE0NjM3Nzk5IDE0Ljk4MzI0OTUsOC4zMDgzNzc5OSAxNC43MDgyNDk1LDguNjc5Mzc3OTkgQzE0LjU5NzI0OTUsOC44MjczNzc5OSAxNC40MTIyNDk1LDguODk5Mzc3OTkgMTQuMjMzMjQ5NSw4Ljg3NjM3Nzk5IEMxNC4wNDkyNDk1LDguODQ5Mzc3OTkgMTMuODk3MjQ5NSw4LjcyMzM3Nzk5IDEzLjgzNDI0OTUsOC41NDkzNzc5OSBDMTMuNjE4MjQ5NSw3LjkzNjM3Nzk5IDEzLjMwNjI0OTUsNy40MjMzNzc5OSAxMi45MDgyNDk1LDcuMDI0Mzc3OTkgQzEyLjQyMjI0OTUsNi41MzYzNzc5OSAxMS4wODYyNDk1LDUuNDg4Mzc3OTkgOS4yMDYyNDk1MSw2LjI4NDM3Nzk5IEM4LjE0MDI0OTUxLDYuNzM2Mzc3OTkgNy4yNzMyNDk1MSw4LjA4OTM3Nzk5IDcuMjczMjQ5NTEsOS4zMDEzNzc5OSBDNy4yNzMyNDk1MSw5LjQ0MDM3Nzk5IDcuMjgyMjQ5NTEsOS41NzczNzc5OSA3LjI5NzI0OTUxLDkuNzEyMzc3OTkgQzcuMzI4MjQ5NTEsOS45NjEzNzc5OSA3LjE2ODI0OTUxLDEwLjE5NDM3OCA2LjkyNTI0OTUxLDEwLjI1NjM3OCBDNi4zNDcyNDk1MSwxMC40MDQzNzggNS4wMDIyNDk1MSwxMC45MDgzNzggNS4wMDIyNDk1MSwxMi40MDczNzggQzUuMDAyMjQ5NTEsMTIuNDExMzc4IDUuMDAwMjQ5NTEsMTIuNTA5Mzc4IDUuMDAwMjQ5NTEsMTIuNTEzMzc4IEM0Ljk5OTI0OTUxLDEyLjU1NjM3OCA0Ljk5ODI0OTUxLDEyLjU5ODM3OCA1LjAwMDI0OTUxLDEyLjY0MDM3OCBDNS4wODAyNDk1MSwxMy42NDUzNzggNS43MTIyNDk1MSwxNC40MzQzNzggNi41NzUyNDk1MSwxNC42MDMzNzggTDYuMzgxMjQ5NTEsMTUuNTg0Mzc4IEM1LjA3NDI0OTUxLDE1LjMyNzM3OCA0LjExOTI0OTUxLDE0LjE3NjM3OCA0LjAwNDI0OTUxLDEyLjcxODM3OCBDMy45OTkyNDk1MSwxMi42NDMzNzggMy45OTkyNDk1MSwxMi41NjYzNzggNC4wMDEyNDk1MSwxMi40ODgzNzggQzQuMDAyMjQ5NTEsMTAuNTI3Mzc4IDUuNDM5MjQ5NTEsOS43MTgzNzc5OSA2LjI3NDI0OTUxLDkuNDEyMzc3OTkgQzYuMjczMjQ5NTEsOS4zNzUzNzc5OSA2LjI3MzI0OTUxLDkuMzM4Mzc3OTkgNi4yNzMyNDk1MSw5LjMwMTM3Nzk5IEM2LjI3MzI0OTUxLDcuNjcwMzc3OTkgNy4zNjYyNDk1MSw1Ljk3NzM3Nzk5IDguODE1MjQ5NTEsNS4zNjQzNzc5OSBDMTAuNTA5MjQ5NSw0LjY0NjM3Nzk5IDEyLjMwNDI0OTUsNS4wMDIzNzc5OSAxMy42MTcyNDk1LDYuMzE4Mzc3OTkgQzEzLjk2MTI0OTUsNi42NjQzNzc5OSAxNC4yNTMyNDk1LDcuMDczMzc3OTkgMTQuNDg5MjQ5NSw3LjUzODM3Nzk5IEMxNC45NzEyNDk1LDcuMjM0Mzc3OTkgMTUuNTU1MjQ5NSw3LjE0NDM3Nzk5IDE2LjExMzI0OTUsNy4zMDYzNzc5OSBDMTYuOTU3MjQ5NSw3LjU1MzM3Nzk5IDE3LjUzMzI0OTUsOC4yOTMzNzc5OSAxNy42OTYyNDk1LDkuMzE4Mzc3OTkgQzE4LjUzMjI0OTUsOS41NTUzNzc5OSAyMC4wMDIyNDk1LDEwLjI4MTM3OCAyMC4wMDIyNDk1LDEyLjQzMDM3OCBDMjAuMDAyMjQ5NSwxNC43NzQzNzggMTguMTczMjQ5NSwxNS41NTIzNzggMTcuMjA3MjQ5NSwxNS42MzUzNzggTDE3LjIwNzI0OTUsMTUuNjM1Mzc4IFoiLz4mI3hhOyAgICA8L2c+JiN4YTs8L3N2Zz4=;" vertex="1" parent="Z4amRD8m1zhhW-L_DsDk-35">
          <mxGeometry x="335.13278958576086" y="558" width="221.14186990236652" height="221.14186990236652" as="geometry" />
        </mxCell>
        <mxCell id="Z4amRD8m1zhhW-L_DsDk-24" value="" style="shape=image;verticalLabelPosition=bottom;labelBackgroundColor=default;verticalAlign=top;aspect=fixed;imageAspect=0;editableCssRules=.*;image=data:image/svg+xml,PHN2ZyB4bWxuczp4bGluaz0iaHR0cDovL3d3dy53My5vcmcvMTk5OS94bGluayIgeG1sbnM9Imh0dHA6Ly93d3cudzMub3JnLzIwMDAvc3ZnIiB2ZXJzaW9uPSIxLjEiIHZpZXdCb3g9Ii0wLjUgLTAuNSAyNSAyNSIgaGVpZ2h0PSIyNSIgd2lkdGg9IjI1Ij4mI3hhOyAgICAmI3hhOyAgICA8dGl0bGU+SWNvbi1BcmNoaXRlY3R1cmUvMTYvQXJjaF9BV1MtU3RlcC1GdW5jdGlvbnNfMTY8L3RpdGxlPiYjeGE7ICAgIDxkZXNjPkNyZWF0ZWQgd2l0aCBTa2V0Y2guPC9kZXNjPiYjeGE7ICAgIDxkZWZzPiYjeGE7ICAgICAgICA8bGluZWFyR3JhZGllbnQgaWQ9ImxpbmVhckdyYWRpZW50LTEiIHkyPSIwJSIgeDI9IjEwMCUiIHkxPSIxMDAlIiB4MT0iMCUiPiYjeGE7ICAgICAgICAgICAgPHN0b3Agb2Zmc2V0PSIwJSIgc3RvcC1jb2xvcj0iI0IwMDg0RCIvPiYjeGE7ICAgICAgICAgICAgPHN0b3Agb2Zmc2V0PSIxMDAlIiBzdG9wLWNvbG9yPSIjRkY0RjhCIi8+JiN4YTsgICAgICAgIDwvbGluZWFyR3JhZGllbnQ+JiN4YTsgICAgPC9kZWZzPiYjeGE7ICAgIDxnIGZpbGwtcnVsZT0iZXZlbm9kZCIgZmlsbD0ibm9uZSIgc3Ryb2tlLXdpZHRoPSIxIiBzdHJva2U9Im5vbmUiIGlkPSJJY29uLUFyY2hpdGVjdHVyZS8xNi9BcmNoX0FXUy1TdGVwLUZ1bmN0aW9uc18xNiI+JiN4YTsgICAgICAgIDxnIGZpbGw9InVybCgjbGluZWFyR3JhZGllbnQtMSkiIGlkPSJJY29uLUFyY2hpdGVjdHVyZS1CRy8xNi9BcHBsaWNhdGlvbi1JbnRlZ3JhdGlvbiI+JiN4YTsgICAgICAgICAgICA8cmVjdCBoZWlnaHQ9IjI0IiB3aWR0aD0iMjQiIHk9IjAiIHg9IjAiIGlkPSJSZWN0YW5nbGUiLz4mI3hhOyAgICAgICAgPC9nPiYjeGE7ICAgICAgICA8cGF0aCBmaWxsPSIjRkZGRkZGIiBpZD0iQVdTX1N0ZXBfRnVuY3Rpb25zX0ljb25fMTZfU3F1aWQiIGQ9Ik0xNCwxMyBMMTksMTMgTDE5LDExIEwxNCwxMSBMMTQsMTMgWiBNMTYsMTUgTDgsMTUgTDgsMTMgTDEwLjUsMTMgQzEwLjc3NiwxMyAxMSwxMi43NzYgMTEsMTIuNSBMMTEsMTAuNSBDMTEsMTAuMjI0IDEwLjc3NiwxMCAxMC41LDEwIEw4LDEwIEw4LDkgTDE2LDkgTDE2LDEwIEwxMy41LDEwIEMxMy4yMjQsMTAgMTMsMTAuMjI0IDEzLDEwLjUgTDEzLDEzLjUgQzEzLDEzLjc3NiAxMy4yMjQsMTQgMTMuNSwxNCBMMTYsMTQgTDE2LDE1IFogTTUsMTIgTDEwLDEyIEwxMCwxMSBMNSwxMSBMNSwxMiBaIE0xMi41LDE5IEMxMi4yMjUsMTkgMTIsMTguNzc2IDEyLDE4LjUgQzEyLDE4LjIyNCAxMi4yMjUsMTggMTIuNSwxOCBDMTIuNzc1LDE4IDEzLDE4LjIyNCAxMywxOC41IEMxMywxOC43NzYgMTIuNzc1LDE5IDEyLjUsMTkgTDEyLjUsMTkgWiBNMTIuNSw1IEMxMi43NzUsNSAxMyw1LjIyNCAxMyw1LjUgQzEzLDUuNzc2IDEyLjc3NSw2IDEyLjUsNiBDMTIuMjI1LDYgMTIsNS43NzYgMTIsNS41IEMxMiw1LjIyNCAxMi4yMjUsNSAxMi41LDUgTDEyLjUsNSBaIE0xOS41LDEwIEwxNywxMCBMMTcsOC41IEMxNyw4LjIyNCAxNi43NzYsOCAxNi41LDggTDEzLDggTDEzLDYuOTA4IEMxMy41ODEsNi43MDEgMTQsNi4xNTEgMTQsNS41IEMxNCw0LjY3MyAxMy4zMjcsNCAxMi41LDQgQzExLjY3Myw0IDExLDQuNjczIDExLDUuNSBDMTEsNi4xNTEgMTEuNDE5LDYuNzAxIDEyLDYuOTA4IEwxMiw4IEw3LjUsOCBDNy4yMjQsOCA3LDguMjI0IDcsOC41IEw3LDEwIEw0LjUsMTAgQzQuMjI0LDEwIDQsMTAuMjI0IDQsMTAuNSBMNCwxMi41IEM0LDEyLjc3NiA0LjIyNCwxMyA0LjUsMTMgTDcsMTMgTDcsMTUuNSBDNywxNS43NzYgNy4yMjQsMTYgNy41LDE2IEwxMiwxNiBMMTIsMTcuMDkyIEMxMS40MTksMTcuMjk5IDExLDE3Ljg0OSAxMSwxOC41IEMxMSwxOS4zMjcgMTEuNjczLDIwIDEyLjUsMjAgQzEzLjMyNywyMCAxNCwxOS4zMjcgMTQsMTguNSBDMTQsMTcuODQ5IDEzLjU4MSwxNy4yOTkgMTMsMTcuMDkyIEwxMywxNiBMMTYuNSwxNiBDMTYuNzc2LDE2IDE3LDE1Ljc3NiAxNywxNS41IEwxNywxNCBMMTkuNSwxNCBDMTkuNzc2LDE0IDIwLDEzLjc3NiAyMCwxMy41IEwyMCwxMC41IEMyMCwxMC4yMjQgMTkuNzc2LDEwIDE5LjUsMTAgTDE5LjUsMTAgWiIvPiYjeGE7ICAgIDwvZz4mI3hhOzwvc3ZnPg==;" vertex="1" parent="Z4amRD8m1zhhW-L_DsDk-35">
          <mxGeometry x="77.99108039696253" y="815.1428571428572" width="221.14186990236652" height="221.14186990236652" as="geometry" />
        </mxCell>
        <mxCell id="Z4amRD8m1zhhW-L_DsDk-25" value="" style="shape=image;verticalLabelPosition=bottom;labelBackgroundColor=default;verticalAlign=top;aspect=fixed;imageAspect=0;editableCssRules=.*;image=data:image/svg+xml,PHN2ZyB4bWxuczp4bGluaz0iaHR0cDovL3d3dy53My5vcmcvMTk5OS94bGluayIgeG1sbnM9Imh0dHA6Ly93d3cudzMub3JnLzIwMDAvc3ZnIiB2ZXJzaW9uPSIxLjEiIHZpZXdCb3g9Ii0wLjUgLTAuNSAyNSAyNSIgaGVpZ2h0PSIyNSIgd2lkdGg9IjI1Ij4mI3hhOyAgICAmI3hhOyAgICA8dGl0bGU+SWNvbi1BcmNoaXRlY3R1cmUvMTYvQXJjaF9BbWF6b24tR3VhcmREdXR5XzE2PC90aXRsZT4mI3hhOyAgICA8ZGVzYz5DcmVhdGVkIHdpdGggU2tldGNoLjwvZGVzYz4mI3hhOyAgICA8ZGVmcz4mI3hhOyAgICAgICAgPGxpbmVhckdyYWRpZW50IGlkPSJsaW5lYXJHcmFkaWVudC0xIiB5Mj0iMCUiIHgyPSIxMDAlIiB5MT0iMTAwJSIgeDE9IjAlIj4mI3hhOyAgICAgICAgICAgIDxzdG9wIG9mZnNldD0iMCUiIHN0b3AtY29sb3I9IiNCRDA4MTYiLz4mI3hhOyAgICAgICAgICAgIDxzdG9wIG9mZnNldD0iMTAwJSIgc3RvcC1jb2xvcj0iI0ZGNTI1MiIvPiYjeGE7ICAgICAgICA8L2xpbmVhckdyYWRpZW50PiYjeGE7ICAgIDwvZGVmcz4mI3hhOyAgICA8ZyBmaWxsLXJ1bGU9ImV2ZW5vZGQiIGZpbGw9Im5vbmUiIHN0cm9rZS13aWR0aD0iMSIgc3Ryb2tlPSJub25lIiBpZD0iSWNvbi1BcmNoaXRlY3R1cmUvMTYvQXJjaF9BbWF6b24tR3VhcmREdXR5XzE2Ij4mI3hhOyAgICAgICAgPGcgZmlsbD0idXJsKCNsaW5lYXJHcmFkaWVudC0xKSIgaWQ9Ikljb24tQXJjaGl0ZWN0dXJlLUJHLzE2L1NlY3VyaXR5LUlkZW50aXR5LUNvbXBsaWFuY2UiPiYjeGE7ICAgICAgICAgICAgPHJlY3QgaGVpZ2h0PSIyNCIgd2lkdGg9IjI0IiB5PSIwIiB4PSIwIiBpZD0iUmVjdGFuZ2xlIi8+JiN4YTsgICAgICAgIDwvZz4mI3hhOyAgICAgICAgPHBhdGggZmlsbD0iI0ZGRkZGRiIgaWQ9IkFtYXpvbi1HdWFyZER1dHlfSWNvbl8xNl9TcXVpZCIgZD0iTTE3LjAwODA2MDQsMTIuNTE3ODE4OCBDMTYuODg0MjM5NywxMi41NzQwMDg3IDE2Ljc4ODE1NDgsMTIuNjc3NjY5NCAxNi43NDQ1Njk5LDEyLjgwMzYxMjIgTDE2LjM5MTkyODUsMTMuODM1Mzc0NyBDMTYuMzQ4MzQzNiwxMy45NjUxOTI3IDE2LjM2MjIxMTUsMTQuMTA3NjA1IDE2LjQzMDU2MDUsMTQuMjI2NzY2MyBMMTcuNDUzODE1LDE2LjAwNzQwNDMgTDE0LjgzMTc4NzMsMTcuODcwMzg5NiBMMTMuNDAyNDAwOCwxNi4zNTUyMDAzIEMxMy4zMTAyNzgxLDE2LjI1NTQxNDkgMTMuMTc3NTQyMywxNi4xOTkyMjUgMTMuMDM4ODYzMSwxNi4xOTkyMjUgTDExLjk1NjE3NDYsMTYuMTk4MjU2MiBDMTEuODE4NDg2LDE2LjE5ODI1NjIgMTEuNjg1NzUwMiwxNi4yNTU0MTQ5IDExLjU5MTY0NjQsMTYuMzU0MjMxNSBMMTAuMTY2MjIyMiwxNy44Njg0NTIgTDcuNTQzMjAzODUsMTYuMDA1NDY2NyBMOC41Njc0NDg5MywxNC4yMjE5MjI0IEM4LjYzNTc5Nzk3LDE0LjEwMzcyOTggOC42NDk2NjU4OSwxMy45NjIyODYzIDguNjA2MDgwOTksMTMuODMyNDY4MyBMOC4yNTU0MjA2OSwxMi44MDA3MDU4IEM4LjIxMTgzNTc5LDEyLjY3MjgyNTQgOC4xMTY3NDE0NywxMi41NjgxOTYgNy45OTA5Mzk2MSwxMi41MTIwMDYxIEw2LjEwMjkyMTEzLDExLjY2NTI4MjcgTDcuMTA1MzczNzUsOC42NTA0MDQ4MiBMOS4xNjE3ODg0Myw5LjA1MjQ1MzEyIEM5LjI5NTUxNDgyLDkuMDc4NjEwNDggOS40MzYxNzUxNiw5LjA0OTU0Njc0IDkuNTQ4MTA5MSw4Ljk3MTA3NDY3IEwxMC40MzM2NzUsOC4zNDcxNzMyMSBDMTAuNTQ3NTksOC4yNjc3MzIzNCAxMC42MjA4OTE5LDguMTQ1NjY0NjYgMTAuNjM2NzQxLDguMDEwMDMzOTEgTDEwLjg3OTQyOTYsNS45Njg3OTEwOSBMMTQuMTIxNTUxNiw1Ljk2ODc5MTA5IEwxNC4zNjcyMTE5LDguMDEyOTQwMjggQzE0LjM4MzA2MDksOC4xNDc2MDIyNCAxNC40NTYzNjI4LDguMjY5NjY5OTIgMTQuNTY5Mjg3Myw4LjM0OTExMDc5IEwxNS40NTc4MjQ5LDguOTczOTgxMDQgQzE1LjU2OTc1ODgsOS4wNTM0MjE5MSAxNS43MDg0MzgsOS4wODM0NTQ0MyAxNS44NDQxNDU2LDkuMDU2MzI4MjggTDE3Ljg5NjU5OCw4LjY1MzMxMTE5IEwxOC44OTcwNjk1LDExLjY2OTE1NzggTDE3LjAwODA2MDQsMTIuNTE3ODE4OCBaIE0xOS45NzU3OTU3LDExLjc3OTYgTDE4LjcwMjkxODYsNy45NDQxNTYxMSBDMTguNjI0NjYzOSw3LjcxMDY3NzQ2IDE4LjM4Mzk1NjQsNy41NjgyNjUxNyAxOC4xMzQzMzM4LDcuNjE4NjQyMzEgTDE1Ljg2MDk4NTIsOC4wNjQyODYyMSBMMTUuMzI1MDg5MSw3LjY4NzQyNjQ4IEwxNS4wNTM2NzQsNS40MjgyMDU2NiBDMTUuMDIzOTU3LDUuMTg0MDcwMzEgMTQuODEyOTY2NSw1IDE0LjU2MTM2MjgsNSBMMTAuNDM4NjI3OCw1IEMxMC4xODcwMjQxLDUgOS45NzUwNDI5OCw1LjE4NDA3MDMxIDkuOTQ2MzE2NTcsNS40MjkxNzQ0NSBMOS42Nzg4NjM3OSw3LjY4NjQ1NzY4IEw5LjE0NDk0ODgxLDguMDYxMzc5ODQgTDYuODY3NjM3OTUsNy42MTU3MzU5NCBDNi42MjM5NTg3Niw3LjU2NTM1ODggNi4zNzczMDc4Niw3LjcwNzc3MTA5IDYuMjk5MDUzMTYsNy45NDEyNDk3NCBMNS4wMjQxOTQ5MywxMS43NzU3MjQ5IEM0Ljk0NjkzMDgsMTIuMDEwMTcyMyA1LjA1OTg1NTMsMTIuMjYzMDI2OCA1LjI4OTY2NjU4LDEyLjM2NTcxODYgTDcuMzgyNzMyMTksMTMuMzA0NDc3MiBMNy41OTY2OTQ0MSwxMy45MzQxOTE0IEw2LjQ2NDQ3NzY2LDE1LjkwNjY1MDEgQzYuMzQwNjU2OTMsMTYuMTIwNzUyOSA2LjQwMjA3MjAxLDE2LjM5MTA0NTYgNi42MDUxMzgwMSwxNi41MzUzOTU1IEw5Ljk0MDM3MzE3LDE4LjkwNjAyNzMgQzEwLjE0MzQzOTIsMTkuMDUxMzQ1OSAxMC40MjQ3NTk5LDE5LjAyNDIxOTggMTAuNTk2MTI3OCwxOC44NDIwODcxIEwxMi4xNzMxMDg2LDE3LjE2NzA0NzMgTDEyLjgyMTkyOTIsMTcuMTY4MDE2MSBMMTQuNDAxODgxNywxOC44NDQwMjQ2IEMxNC40OTg5NTcxLDE4Ljk0NjcxNjUgMTQuNjMxNjkzLDE5IDE0Ljc2NTQxOTQsMTkgQzE0Ljg2NzQ0NzYsMTkgMTQuOTY4NDg1NCwxOC45Njk5Njc1IDE1LjA1NjY0NTcsMTguOTA3OTY0OCBMMTguMzkyODcxNCwxNi41MzgzMDE4IEMxOC41OTY5MjgsMTYuMzkyOTgzMiAxOC42NTczNTI1LDE2LjEyMjY5MDUgMTguNTMzNTMxOCwxNS45MDg1ODc2IEwxNy40MDEzMTUsMTMuOTM5MDM1NCBMMTcuNjE2MjY3OCwxMy4zMTAyODk5IEwxOS43MTEzMTQ2LDEyLjM2ODYyNSBDMTkuOTQwMTM1MywxMi4yNjY5MDE5IDIwLjA1MzA1OTgsMTIuMDEzMDc4NyAxOS45NzU3OTU3LDExLjc3OTYgTDE5Ljk3NTc5NTcsMTEuNzc5NiBaIE0xMy45NjQwNTE2LDEyLjUzMTM4MTkgQzEzLjk2NDA1MTYsMTIuNjk0MTM4OCAxMy45MjI0NDc4LDE0LjEyMDE5OTMgMTIuNDc4MjAyOCwxNC4xMjAxOTkzIEMxMS4wNDc4MjU4LDE0LjEyMDE5OTMgMTAuOTk0MzM1MiwxMi42ODYzODg1IDEwLjk5MjM1NDEsMTIuNTI1NTY5MiBMMTAuOTkyMzU0MSwxMC41OTU3MzczIEwxMi40NzgyMDI4LDkuOTY2MDIzMTEgTDEzLjk2NDA1MTYsMTAuNTk1NzM3MyBMMTMuOTY0MDUxNiwxMi41MzEzODE5IFogTTE0LjY1NjQ1NzEsOS44MzMyOTg3MyBMMTIuNjc1MzI1NCw4Ljk5MzM1Njg2IEMxMi41NDk1MjM2LDguOTQxMDQyMTQgMTIuNDA1ODkxNSw4Ljk0MTA0MjE0IDEyLjI4MTA4MDIsOC45OTMzNTY4NiBMMTAuMjk5OTQ4Niw5LjgzMzI5ODczIEMxMC4xMTg2NzUsOS45MTA4MDIwMiAxMC4wMDE3ODgzLDEwLjA4NTE4NDQgMTAuMDAxNzg4MywxMC4yNzc5NzM4IEwxMC4wMDE3ODgzLDEyLjUyNTU2OTIgQzEwLjAwMTc4ODMsMTMuNDEyMDEzIDEwLjUxODg2MzYsMTUuMDg4OTkwNCAxMi40NzgyMDI4LDE1LjA4ODk5MDQgQzE0LjQzNjU1MTUsMTUuMDg4OTkwNCAxNC45NTQ2MTc0LDEzLjQxNTg4ODIgMTQuOTU0NjE3NCwxMi41MzEzODE5IEwxNC45NTQ2MTc0LDEwLjI3Nzk3MzggQzE0Ljk1NDYxNzQsMTAuMDg1MTg0NCAxNC44Mzc3MzA3LDkuOTEwODAyMDIgMTQuNjU2NDU3MSw5LjgzMzI5ODczIEwxNC42NTY0NTcxLDkuODMzMjk4NzMgWiIvPiYjeGE7ICAgIDwvZz4mI3hhOzwvc3ZnPg==;" vertex="1" parent="Z4amRD8m1zhhW-L_DsDk-35">
          <mxGeometry x="849.4162079633574" y="815.1428571428572" width="221.14186990236652" height="221.14186990236652" as="geometry" />
        </mxCell>
      </root>
    </mxGraphModel>
  </diagram>
</mxfile>
